/* XPM */
static char *result[] = {
/* columns rows colors chars-per-pixel */
"50 50 160 2 ",
"   c #221714",
".  c #251915",
"X  c #2D1B17",
"o  c #271D19",
"O  c #291F1B",
"+  c #351E18",
"@  c #391F19",
"#  c #2C2120",
"$  c #352A28",
"%  c #3D3233",
"&  c #462919",
"*  c #50271D",
"=  c #48321E",
"-  c #563422",
";  c #453A3B",
":  c #6E3223",
">  c #693A22",
",  c #733425",
"<  c #3E422A",
"1  c #49462C",
"2  c #5A4727",
"3  c #48493A",
"4  c #4E5334",
"5  c #4A523A",
"6  c #505635",
"7  c #694624",
"8  c #774B25",
"9  c #53643C",
"0  c #586A3B",
"q  c #626F3D",
"w  c #4B4345",
"e  c #544C4C",
"r  c #5E524F",
"t  c #544F55",
"y  c #5C565F",
"u  c #566A40",
"i  c #586941",
"p  c #577140",
"a  c #627A48",
"s  c #5D5863",
"d  c #615A67",
"f  c #6D6562",
"g  c #71686C",
"h  c #726A78",
"j  c #7C747A",
"k  c #843927",
"l  c #903C2A",
"z  c #9D402C",
"x  c #865326",
"c  c #9D5F2A",
"v  c #A3442D",
"b  c #AA462E",
"n  c #B04730",
"m  c #B54830",
"M  c #A0622B",
"N  c #BC672F",
"B  c #B46C2E",
"V  c #C44E33",
"C  c #C35033",
"Z  c #CB5235",
"A  c #D35337",
"S  c #D55837",
"D  c #D85D37",
"F  c #CC6633",
"G  c #DE6A37",
"H  c #D47D33",
"J  c #E16F37",
"K  c #E27137",
"L  c #E87C37",
"P  c #827B7C",
"I  c #65824A",
"U  c #738F4D",
"Y  c #6D9353",
"T  c #729455",
"R  c #749A5A",
"E  c #79A35E",
"W  c #7BAA61",
"Q  c #7EB462",
"!  c #DD8334",
"~  c #DA8339",
"^  c #E48636",
"/  c #EB8437",
"(  c #EB8A37",
")  c #EF8A38",
"_  c #F08D37",
"`  c #F18E38",
"'  c #F1913E",
"]  c #83A95B",
"[  c #8BB35E",
"{  c #81AF65",
"}  c #83B466",
"|  c #85BB68",
" . c #92BC63",
".. c #F19544",
"X. c #F29D53",
"o. c #F2A059",
"O. c #8BC36E",
"+. c #93C167",
"@. c #8FC771",
"#. c #91CD72",
"$. c #97D576",
"%. c #99D67A",
"&. c #99DA79",
"*. c #A4D36A",
"=. c #A1DF7B",
"-. c #9AE17A",
";. c #A3E27D",
":. c #ABE67A",
">. c #A4E87E",
",. c #ACE87C",
"<. c #B3EB79",
"1. c #B6F07C",
"2. c #B9F179",
"3. c #7C7587",
"4. c #817B8E",
"5. c #897E89",
"6. c #877F94",
"7. c #8C8685",
"8. c #928D8C",
"9. c #9A9593",
"0. c #9A9599",
"q. c #A09C9A",
"w. c #9A8DA0",
"e. c #AA9CB2",
"r. c #A7A3A2",
"t. c #B3AFAE",
"y. c #ADA0B7",
"u. c #C0BDBC",
"i. c #9FDF80",
"p. c #9FE681",
"a. c #A0E180",
"s. c #A2E880",
"d. c #A9E980",
"f. c #A5E68A",
"g. c #A6E88C",
"h. c #A8EA8B",
"j. c #B1E18C",
"k. c #B0F080",
"l. c #A8E890",
"z. c #F7C395",
"x. c #F7C599",
"c. c #C2E49C",
"v. c #C5E89C",
"b. c #F9D7BA",
"n. c #C4E7A1",
"m. c #ADA6C2",
"M. c #B2A8C3",
"N. c #BDB2C8",
"B. c #BEB4D2",
"V. c #C5B9CE",
"C. c #C3B9D7",
"Z. c #CBBEDB",
"A. c #CFC1DE",
"S. c #D0C2DF",
"D. c #DDDBDC",
"F. c #FADCC2",
"G. c #D1C3E0",
"H. c #FDF4EC",
"J. c #FAF7F4",
"K. c #FEFEFD",
/* pixels */
"g.f.;.-.a.a.a.a.a.a.a.a.a.a.i.i.i.a.a.i.a.a.%.=.%.%.&.&.$.$.&.f.p.h.h.h.l.l.l.l.l.l.l.l.l.l.l.g.p.g.",
"f.-.-.-.a.a.a.a.a.s.a.a.a.i.i.i.i.i.a.a.a.=.=.i.%.%.&.&.&.&.-.-.-.p.p.p.l.g.p.p.l.p.l.l.g.l.l.g.-.-.",
"-.-.-.-.a.a.%.a.&.&.a.a.i.a.i.a.i.a.a.a.a.a.a.a.%.&.&.&.$.&.&.-.-.-.-.-.p.p.-.p.p.p.p.l.p.p.p.-.-.-.",
"&.-.$.$.&.&.%.&.%.i.&.-.a.i.i.a.a.=.i.a.a.a.a.a.&.&.&.&.&.&.&.-.$.-.-.-.-.-.-.-.p.-.-.p.-.-.p.-.-.-.",
"&.&.&.&.&.&.%.$.&.&.&.&.&.&.i.p.a.a.i.a.i.a.a.a.;.&.a.a.&.&.-.-.-.-.-.-.-.-.-.-.p.-.-.-.-.-.-.-.-.-.",
"&.$.&.$.%.&.$.&.$.&.&.$.&.&.&.a.=.i.a.a.:.i.a.a.<.a.;.>.p.-.:.s.-.;.-.;.-.;.-.&.-.-.-.-.-.-.-.-.$.-.",
"$.&.$.&.$.&.&.$.&.$.$.&.&.&.&.&.%.=.a.a.<.,.;.<.2.,.d.1.;.<.<.;.,.<.>.2.>.<.=.>.-.-.-.-.-.-.$.-.$.-.",
"&.$.&.$.&.$.&.&.$.&.&.$.&.%.&.$.%.%.=.;.1.2.<.2.2.2.<.2.<.2.2.<.2.2.2.2.2.2.,.2.1.,.-.-.-.$.-.$.$.$.",
"$.&.&.$.%.&.$.&.$.&.$.&.&.$.&.&.%.&.=.:.<.2.2.2.2.2.2.2.2.2.2.2.2.2.2.2.2.2.2.2.2.2.>.<.:.%.&.%.$.$.",
"-.$.$.&.&.%.&.&.&.$.&.$.$.&.$.&.&.%.:.2.2.2.2.2.2.<.2.2.<.2.<.2.2.<.2.2.2.2.2.2.2.2.<.2.:.&.%.&.-.$.",
":.&.&.-.%.&.&.:.%.&.-.&.&.$.&.&.%.&.<.<.<.2.<.2.<.=.<.<.=.:.=.2.<.:.<.<.<.<.2.2.2.2.2.2.<.&.&.;.;.-.",
"<.;.;.,.=.=.:.<.=.=.<.&.&.&.%.&.&.:.:.=.:.:.=.:.:.i.=.a.i.:.=.=.a.=.=.:.<.<.2.<.2.2.2.2.2.:.;.<.:.>.",
"<.:.:.<.:.:.<.:.:.:.:.;.;.&.&.&.$.:.;.;.:.=.i.a.a.i.i.a.i.i.a.a.i.a.a.<.;.;.<.<.:.2.<.2.2.2.:.:.,.<.",
":.:.:.:.:.<.:.:.,.,.d.,.<.:.&.a.&.=.a.&.p.p.a.a.i.a.a.a.a.a.a.a.=.i.a.a.i.a.:.a.;.,.-.<.<.<.,.d.,.:.",
",.d.,.:.,.d.:.,.d.d.d.>.:.:.&.a.a.%.W 9 1 = * = - u R %.a.i.a.i.a.a.i.a.i.a.a.i.a.a.;.>.:.:.>.d.,.,.",
",.d.d.d.>.d.d.d.d.d.d.d.d.i.a.i.R 4 7 B H ! ! ~ H B 8 1 T =.a.a.a.a.a.a.i.a.i.a.a.a.-.;.a.a.d.d.d.,.",
"d.d.d.d.d.d.>.,.d.d.d.d.d.a.&.I 7 B ^ ` ` ` ` ` ` ` ( N - 0 #.=.p.i.&.a.i.&.a.a.&.a.a.a.&.;.a.d.d.d.",
"d.d.d.a.d.d.,.:.d.<.d.k.,.;.p 7 ~ X.X.' ` ` ` ` ` ` ` _ Z , 6 #.-.$.&.p.%.%.-.&.&.&.a.&.&.&.a.d.d.d.",
":.d.d.k.<.d.2.:.<.k.<.2.k.U 7 ^ b.J.J.x.' ` ` ` ` ` ` ` J Z , i $.$.&.&.&.&.&.$.%.&.%.%.&.%.-.d.<.d.",
"1.1.k.2.2.<.2.2.2.2.2.2.+.2 ~ z.J.K.K.H.X.` ` ` ` ` ` ` J A V - E &.$.&.&.%.&.%.&.&.&.&.=.;.&.1.2.d.",
"2.2.2.2.2.2.<.2.2.2.2.2.q c ( b.K.K.K.J.o.` ` ` ` ` ` ` J A A z 6 #.&.$.&.$.&.&.%.$.-.,.:.2.,.2.2.2.",
"2.2.2.2.2.2.2.2.2.2.2.*.2 ! _ z.K.K.K.b...` ` ` ` ` ` ` G A A Z - W &.&.$.&.%.&.&.&.<.<.:.2.2.2.2.2.",
"2.2.2.2.2.2.2.2.2.2.2.] x _ ` ' x.F.x...` ` ` ` ` ` ` / A A A A k I &.&.&.&.&.&.$.;.<.2.2.2.2.2.<.2.",
"<.2.2.<.<.<.2.<.<.<.2.a M ` ` _ ' ' ' ` ` ` ` ` ` ` ` K A A A A z 9 &.&.&.-.&.-.&.;.2.2.<.<.2.<.d.<.",
":.<.<.:.-.<.<.-.:.:.-.0 M _ _ _ ` _ ` _ ` ` ` ` ` ` L S A A A A b 4 -.&.s.s.-.p.-.>.s.>.s.>.>.>.s.<.",
"&.:.:.-.-.-.-.$.-.-.-.9 v L _ _ _ ( ( ( ) _ ` ` ` L D A A A A A v 4 -.s.s.s.p.s.s.s.s.s.s.>.>.s.p.s.",
"&.:.-.-.-.-.-.-.-.-.-.p : C K ( ^ x = & 8 H _ _ K S A A A A A Z , 9 p.s.p.p.s.p.s.s.s.-.s.>.s.s.s.s.",
"-.-.-.-.-.-.$.-.-.-.-.Y X @ , v > e t.u.f * F S A A A A Z n k & o I s.s.p.s.p.s.s.s.s.s.s.s.p.>.p.p.",
">.-.-.-.-.-.-.-.-.-.&.Q O   . X $ r.7.7.t.r k m n v l : * @ . . O W -.p.s.s.s.s.s.s.p.p.s.>.p.p.p.s.",
"-.-.-.&.$.-.$.-.-.&.&.&.1 w % X 3 9.u.D.8.P X @ + X       . o $ < $.k.h.k.s.s.s.s.>.>.p.s.s.p.s.s.p.",
"-.s.>.&.&.-.$.$.&.&.&.&.T y V.9.; 9.7.q.q.g         o # ; h 6.t T 1.k.s.k.s.s.k.p.p.p.s.s.s.s.p.p.s.",
"&.&.&.$.$.$.-.$.$.&.&.&.#.u P H.P e q.q.5.% g 3.5.w.e.N.Z.B.3.5 -.1.k.k.k.k.>.s.s.>.p.p.s.s.s.s.s.-.",
"&.&.$.&.&.&.$.&.$.&.&.&.$.| 4 0.D.P ; ; e w.Z.A.G.G.G.A.C.3.3  .<.:.<.<.:.k.k.k.k.a.s.s.s.s.>.s.a.&.",
"&.$.&.$.$.&.&.$.&.$.$.&.&.&.} 5 j N.M.y.V.Z.S.S.A.A.Z.M.3.6 [ :.:.<.<.k.<.<.:.k.k.:.d.,.s.>.<.;.a.=.",
"&.&.&.&.&.&.%.&.$.$.&.$.&.&.&.O.9 w 4.m.C.C.C.C.B.m.3.e 6 @.:.<.:.<.:.<.:.<.<.<.<.<.;.2.,.<.1.:.=.:.",
"<.=.,.=.:.;.;.&.&.&.$.&.$.$.&.$.$.W i 3 e y d s t 5 e W =.=.:.:.=.<.:.:.<.:.<.<.2.2.<.2.2.1.2.<.:.2.",
"2.,.2.:.2.<.<.;.&.$.%.%.&.$.&.&.%.&.&.O.{ R T R Q @.%.a.a.a.i.i.=.:.=.:.<.<.<.2.2.<.2.2.2.2.2.<.<.2.",
"2.2.2.<.2.2.2.2.;.%.&.&.$.&.&.-.=.=.a.a.a.a.a.i.i.p.i.a.i.a.a.=.i.=.i.<.:.:.2.2.2.2.2.2.2.2.2.2.2.2.",
"2.2.2.2.2.2.2.2.:.&.d.:.=.&.-.a.a.a.i.a.a.a.i.a.i.p.a.a.a.a.i.a.a.i.i.:.i.:.2.<.2.2.2.2.2.2.2.2.2.2.",
"2.2.2.2.<.2.2.<.<.>.:.:.,.a.,.s.a.a.a.a.a.a.a.a.i.i.i.a.a.i.a.i.i.i.i.i.i.:.:.i.<.2.<.2.2.2.2.2.2.2.",
"2.2.2.2.:.2.<.<.<.,.:.<.<.:.<.:.,.:.:.;.i.a.a.a.a.a.a.a.a.a.a.a.a.a.a.i.a.a.i.i.:.<.2.2.2.2.2.2.<.2.",
"<.:.<.:.<.<.<.:.<.<.:.>.:.:.,.:.:.<.:.;.i.a.a.a.a.a.a.a.i.p.a.&.a.a.&.&.a.a.&.p.&.:.<.2.<.<.2.<.<.<.",
"<.:.:.<.:.:.:.:.<.:.,.d.d.d.,.d.:.,.:.:.:.a.i.a.a.a.a.&.%.a.-.&.&.&.&.&.&.a.&.&.=.&.<.2.<.:.:.<.:.<.",
":.<.<.:.:.<.,.,.:.:.d.d.a.d.d.d.d.d.d.<.,.,.i.&.a.&.a.&.%.&.&.&.&.&.%.&.&.&.&.&.&.$.:.2.<.:.<.<.:.<.",
":.:.:.d.d.,.d.d.d.d.d.d.d.d.d.d.d.d.>.,.&.;.&.-.%.&.&.&.$.&.$.$.&.%.&.$.%.$.%.&.&.&.s.:.:.,.:.<.:.,.",
":.;.d.d.d.a.d.d.d.d.d.s.s.d.d.p.s.d.a.&.&.-.&.$.%.&.&.%.&.$.&.&.%.&.$.&.$.i.&.&.f.f.l.s.:.d.s.:.d.d.",
"f.d.d.d.d.d.d.d.s.s.d.p.s.s.p.p.s.s.;.&.&.&.$.&.$.&.%.&.$.&.%.&.%.p.i.&.i.f.i.f.l.g.l.l.g.l.l.f.g.h.",
"g.s.d.d.s.,.s.d.s.p.a.s.p.a.s.&.a.s.&.&.%.&.&.$.&.$.%.&.&.$.&.&.&.l.g.&.g.l.g.l.l.l.l.l.l.l.g.g.g.f.",
"l.f.d.a.p.;.p.p.p.p.=.p.i.a.a.a.;.a.i.&.%.&.&.&.&.%.&.&.&.%.%.f.a.l.l.g.l.l.l.l.g.g.l.l.l.l.l.l.l.l.",
"n.v.v.c.c.c.c.c.c.n.n.c.j.i.a.a.a.a.d.&.a.s.-.&.=.&.&.-.-.&.;.f.f.g.h.f.h.f.f.h.h.f.f.h.f.h.h.f.f.s."
};
