/* XPM */
static char *result[] = {
/* columns rows colors chars-per-pixel */
"50 50 26 1 ",
"  c #99DA79",
". c #A1DF7B",
"X c #9AE179",
"o c #9BE87E",
"O c #A3E27D",
"+ c #ABE67A",
"@ c #A5E87E",
"# c #ACE87C",
"$ c #B2EB79",
"% c #B5F07C",
"& c #B9F179",
"* c #9FDF80",
"= c #9EE682",
"- c #A0E180",
"; c #A2E881",
": c #A9EA80",
"> c #A5E68B",
", c #A4E88B",
"< c #A8EA8B",
"1 c #B1E18C",
"2 c #B0F080",
"3 c #A8E890",
"4 c #C2E49C",
"5 c #C5E89C",
"6 c #C2E6A0",
"7 c #C6E8A2",
/* pixels */
"<>XO=*--******-*----**.        *o3,<33,33333,33<;>",
",XXX.*-*******-*-**-*..*      * X===3,==3<,3<<3,XX",
"XXX -- **   -------.----        XXXX;=X=,=;3oo;XX ",
"            *.**--*-*--*  .     XXXXXXXXXXXXXooXXX",
"            *   -*---***O **  XoXXX XXXXXXXXXXXX X",
"                .*-*.-*:$*+*XX@OXOX+@XXXX XXXXX  X",
"                 .*-&+-$&#:&O$$O$+@%@$OO@oXXXX    ",
"                  ..&&&&&&&&$&&$&&&&&&#&%#XXX     ",
"                  .+$&&&&&&&&&&&&&&&&&$&&&@$O     ",
"                 ..&&&&&&$&&$&$&$$&&&&&&&&$&+     ",
"+     .+          $$$&$&$.$$.+.&$+$$&$&&&&$&$  OO ",
"+   ..++...      +$.$..++*.--+..*..#$$&&&&&&&++#+O",
"$++$++$++++.O    ...+.*1----------*+OO$$+$$&&$$++$",
"+++$$++#$.::+$.* ...-*----**-*--*--+**+O@++$$$#:++",
"++++#++:+-:+##.*-*..---**--.*-*--**--*-*--X+++::@$",
"+.+##@::++:::***--***-.--*-------.-*-----*---*:+#+",
"-:::::@+::::@ OO-*--**=***-***.*   * **  *** X@@::",
"::::::#@:%:#$+O.----****--               *    .#::",
"+::2$:&$#&$&$%+X+*--*>,=3-                    X+$:",
"$&:&&$$&%&&&%&&+&:*1*3>33>                  OX &&:",
"2&&&&&&&&&&&&&&&&:33333333>=              .$+$+5&&",
"&&&&&&&&&&&&&&$&&2&>3-,3333,>*            $$+&&&&&",
"&&&&&&&&&$&$$$&$&&&2,=,3333,=>>>         .$&&&&&$&",
"$&&&$$&$$$$$$$&$$&&$;,==3=,=,>>>       @ .$&$$&$:$",
"+$$+X$$X++X++X+X@$#X=o,,3===333,X = o; oXo@#;@%@=$",
" ++XXXXXXXXX+XXXX+XX=,;,=,,,=,,==o;=;;=@;;;;;o@;=;",
"XOOXXXXXX XXXXXXXXXXo==;=,:;;==,==;;o@=;;@;@o;o;;=",
"XXXXXX XXXXXXXXXXXXXX=<;<,2;2;,;,;;;;;o;@=o=@;;;=;",
"oX   XXXXX XX XXXXXXo#222:2:2;;2:=<=@;o==@=oo;;o;o",
"XXX  X     X  XXXX@@:#2222%%22%22:#;:;;=o;;;=@@=;@",
"X@X             X#$@#%$%2#$#2%%22:2;2:;2;oo;o;;;o;",
"                 X@X@$##$$$$%###2#%22222:=@;=@=;;X",
"                     $$$+$+$$$$+$$$$$1&22:=;;@@o- ",
"                     .$++++$$$+$$++$++$$2-;#;@$:- ",
".                    +$..+.++.$$+$$+$$$$$$+&#$&+.+",
"$X+ +..              ...*...*.++.$++$$$$&&$&&&&#$&",
"$$&+&$$+          *  -****-*--.*.+-$+$$&&&&&&&&$$&",
"$&&&&&&$         .**-*-O*-*--***--*+++$$&&&$&&&&&&",
"&&&&&&&&+ ++    ---*--*---.**1.*--.+.+&$&&&&&&&&&&",
"&&&$&&&$$++++   -#---*-*-*---*..*-*--++-$&&&&&&$&&",
"$$&&$$$$$++$+++++++****--*****  -** *O* +$&&&&&$$&",
"$$$$+$$++$+++$+$$#++*-***--***  .** ****.+&&$$$&$+",
"$$++$+$#$+++::@+++#++***-**. *   *  .*    $&$$$$$$",
".$$+$+#+++++:@#@::###@.**.*  .            +$$+$$+$",
"++#:@+::+::::::;::@#                    * ;#+#++++",
"##-::::-:-:@;@@-=:O                  *  ,;>,+-:$;:",
">:::@::::=:=;=;=;:               *  *>*>>33,,3>,><",
">;::;:-:;=o@=--. O.              >> >>>33333333>3;",
"3>@O;o*;------= ---            >*33>3333333<33<333",
"7554444446441*-:---.-:X *  X  O>>3<><>-<<>><>><><>"
};
