/* XPM */
static char *result[] = {
/* columns rows colors chars-per-pixel */
"50 50 182 2 ",
"   c #5A4336",
".  c #694B3C",
"X  c #2D3946",
"o  c #2C3C4B",
"O  c #393D43",
"+  c #2F404D",
"@  c #35444E",
"#  c #394248",
"$  c #374756",
"%  c #3A4B53",
"&  c #3F5157",
"*  c #3E525A",
"=  c #365664",
"-  c #3D5D73",
";  c #57524A",
":  c #4B5152",
">  c #465658",
",  c #48515C",
"<  c #6A5946",
"1  c #56635D",
"2  c #5A665E",
"3  c #676B5F",
"4  c #415760",
"5  c #475C61",
"6  c #4C5C63",
"7  c #46566C",
"8  c #4F5E71",
"9  c #4E6362",
"0  c #536663",
"q  c #5C6B6B",
"w  c #5C726C",
"e  c #556772",
"r  c #66766B",
"t  c #657574",
"y  c #657A74",
"u  c #697B74",
"i  c #707475",
"p  c #933212",
"a  c #B02800",
"s  c #BA3200",
"d  c #A53D1C",
"f  c #B43A14",
"g  c #C13A00",
"h  c #B24912",
"j  c #B74318",
"k  c #B8411E",
"l  c #9A4D30",
"z  c #A14425",
"x  c #B04120",
"c  c #B94A29",
"v  c #B7532D",
"b  c #B36A37",
"n  c #C64204",
"m  c #C84202",
"M  c #CA4707",
"N  c #D14E04",
"B  c #D55509",
"V  c #D7580D",
"C  c #D85808",
"Z  c #D35A13",
"A  c #DB5F12",
"S  c #DC6415",
"D  c #DF671B",
"F  c #C25C3E",
"G  c #D07033",
"H  c #E36E24",
"J  c #E57629",
"K  c #E87A30",
"L  c #8D634F",
"P  c #886B59",
"I  c #86735C",
"U  c #B06C56",
"Y  c #837364",
"T  c #907E72",
"R  c #C5664A",
"E  c #D17B54",
"W  c #6B8374",
"Q  c #6F8478",
"!  c #73857C",
"~  c #7B847E",
"^  c #728A7A",
"/  c #EA822C",
"(  c #EC8434",
")  c #EE8B36",
"_  c #F09038",
"`  c #8C847E",
"'  c #BF8A69",
"]  c #B08373",
"[  c #DD854B",
"{  c #D28B76",
"}  c #99DA79",
"|  c #A2DF78",
" . c #9CE27A",
".. c #A2E27B",
"X. c #ACE679",
"o. c #A6E87F",
"O. c #ACE87C",
"+. c #B2EB78",
"@. c #B7F07B",
"#. c #B9F179",
"$. c #19569C",
"%. c #1B5A9E",
"&. c #2F598B",
"*. c #286784",
"=. c #3D608E",
"-. c #1C5BA1",
";. c #0958B6",
":. c #235EA6",
">. c #1C60A2",
",. c #326CAA",
"<. c #0D71C5",
"1. c #2592B2",
"2. c #778784",
"3. c #7A8A82",
"4. c #7C9084",
"5. c #519EB0",
"6. c #5C9FB0",
"7. c #098CD3",
"8. c #0C9FDF",
"9. c #2AA6DC",
"0. c #09B3ED",
"q. c #20C4ED",
"w. c #39CDED",
"e. c #5BD1EC",
"r. c #6CD3EC",
"t. c #848685",
"y. c #858B85",
"u. c #838B88",
"i. c #898B8A",
"p. c #849489",
"a. c #89928D",
"s. c #8A988B",
"d. c #8E9B93",
"f. c #899B9A",
"g. c #929292",
"h. c #929F97",
"j. c #9A9A9A",
"k. c #8FA39C",
"l. c #90A39D",
"z. c #9CA59E",
"x. c #B0A39B",
"c. c #879BA4",
"v. c #96A6A3",
"b. c #9DAAA8",
"n. c #A0A8A0",
"m. c #A8ADAC",
"M. c #ADB2AF",
"N. c #B3B7B3",
"B. c #B3BCB9",
"V. c #D79A88",
"C. c #CDA48D",
"Z. c #E0B4A8",
"A. c #9FDF80",
"S. c #9FE681",
"D. c #A0E280",
"F. c #A4E882",
"G. c #A8E880",
"H. c #A5E68A",
"J. c #A6E88C",
"K. c #A8EA8B",
"L. c #B1E18C",
"P. c #A8E890",
"I. c #C2E49C",
"U. c #C5E89C",
"Y. c #E5C3B5",
"T. c #C4E7A1",
"R. c #B1C1C1",
"E. c #BCC5C3",
"W. c #BFC9C9",
"Q. c #C6C7C7",
"!. c #C3CBCB",
"~. c #CACDCD",
"^. c #D2D1CF",
"/. c #D5D6D6",
"(. c #D8D8D8",
"). c #EAD0C8",
"_. c #EEDCD7",
"`. c #E6E6E6",
"'. c #EFEAE7",
"]. c #F2E7E4",
"[. c #F1F1F1",
"{. c #F8F8F8",
/* pixels */
"J.H. .A.S.A.A.A.D.D.D.A.D.A.D.A.A.A.A.A.A.A.| A.} } } } } } } A.F.P.J.J.P.P.J.P.P.P.P.P.P.P.P.J.F.J.",
"F. . . .A.A.D.A.D.A.A.D.D.A.A.D.A.A.A.A.A.A.| A.} } } } } } } }  .F.S.S.P.J. .K.P.J.J.P.J.K.P.J. . .",
" . . .} A.A.} A.| } A.A.A.D.A.A.A.A.G.A.A.A.A.A.} } } } } } } }  . .}  .F.S.}  .J. .F.P.S.S.H.o. .} ",
"} } } } } ~.i.i.t.T T T T T T T T T T T T T T T T T T T T T T T T T ` T T T ` T T T i.i.j. .S. . . .",
"} } } } ~.m.!.N.[ K K K K K K K K K K K K K K K K K K K K K K K K K K K K K K J K K x.B.Q.j. .} }  .",
"} } } ~.m.!.N.[ K _ _ K ( _ ) K _ _ K _ _ K ) _ ) K _ _ K ( _ K ( _ ( K _ _ K ) _ ( J C.R.^.j. .} } ",
"} }  .g.Q.N.G K K ) ) K ( ( ( K ( ) K ( ( K ( ) ( K ( ( K ( ( K ( ( ( K ( ( K ( ( ( K H { R.~.l.} } ",
"} }  .g.B.v V K K K K K K K K K K K K K K K K K K K ( K K K ( K K K K K ( K K K K K K H n ] W.d.} } ",
"} } } i.R.j V K K ) _ K ( _ ) K _ _ K ) _ ( ( _ ( K _ _ K ) _ ( ( _ ) K _ _ K ) _ K K H m ] !.g.} } ",
"} } } g.R.j V K K K ( K K ( K K ( K K ( ( K K ( ( K ( ( K K ( K K ( K K ( ( K ( ( K K H m ] !.g.} } ",
"X.}  .g.R.j B K K ( ( K ( ( ( K ( ( K K ( K K ( K K ( ( K ( ( K K ( K K ( ( K K ( K K H m ] !.a.}  .",
"+.X...g.R.k B K K _ _ K ( _ ( K _ _ K _ _ ( ( _ ) K _ _ K _ _ K ( _ _ K _ _ K ) _ ( K H m ] !.g.X. .",
"X.X. .g.R.j V K K K K K K K K K K K K K K K K K K K K K K K K K K K K K K K K K K K K H m ] !.g.X.+.",
"+.O. .g.R.j V K K ( ( K ( ) ( K ( ) K ( ) K ( ( ( K ) ( K ( ( K ( ( ( K ) ( K ( ) K K H m ] !.g.X.X.",
"G.G. .g.R.j V K K ) _ K ( _ ( K _ ) K _ _ K ( _ ( K ) _ K ) _ ( K _ ) K _ _ K ( _ ( K H m ] Q.g.o.+.",
"G.G. .g.R.j V K K K K K K K K K K K K K K K K K K K K K K K K K K K K K K K K K K K K H g ] !.g.o.O.",
"G.G. .g.B.j B K K ) _ K ( ) ) K ) _ K ( ) / ( ) ( K ) ) K ) ) K ( _ ( K _ ) K ( ) ( K H M ] ~.g.G.G.",
"G.G. .g.R.j V K K ) ) K ( ) ( K ( ) K ) ) K ( ) ( K ) ) K ( ) ( K ( ( K ) ) K ( ) ( J H g ] ~.g.G.G.",
"G.G. .g.R.j M S K K J K K K K K K K K K K K K / K K K K J K K K K K K K K K K K K K H B g ] !.g.+.G.",
"+.@. .g.B.U s M V D D D D D D D D D D D D D D D D D D D D D D D D D D D D D D D D D B g f n.!.g.#.G.",
"U.#. .s.E.R.U a M N N N N N N N M N N N N E ].'.'.'.'.].Y.Z N N N N N N N N N N N N g f x.R.~.g.#.#.",
"#.#...g./.E.B.U s g g g g s g g g g g g F ^.[.[.[.[.[.[.`.C.j g g g g g g g g g g g f x.R.~.(.g.#.#.",
"#.#. .3 !./.E.B.U x x x x x x k x x x l s.(.[.[.[.[.[.[.`.E.I d x x x x x x x x x x x.R.~.(.b.i.+.#.",
"+.#. .1 2.~./.E.R.R.R.R.R.R.R.R.R.R.b.^ d.(.[.[.'.[.[.[.`.Q.^ 3.R.R.R.R.R.R.R.R.R.R.R.~.(.b.y i.G.@.",
"X.+. .> y ! !.(.(.(.(.(.(.(.(.(.(.(.k.Q d./.B.R.B.B.N.B.Q.E.^ W !.(.(.(.(.(.(.(.(.(.(.(.b.u e i. .+.",
" .X. .3 e t t t y t t t y t y t y y k.W p.j.2.L L L L i ~ z.^ W c.t y y t y t y y t y t u q 8 M. .F.",
" . . . .8 e t y u y y y y y y t y u l.W 2.Y d F Y.).{ c l ` ^ W l.y y y y y y t y u u t e 8 ,  . . .",
" . . . .=.-.%.%.%.%.%.>.>.%.$.= % > l.! ! z E {._._.'._.j I ^ ^ 2.& & &.%.%.-.%.%.%.-.-.-.:., .. . .",
"o. . . .&.;.7.8.8.8.8.8.8.8.;.- 9 9 v.~ Y f {.Y.F { R [.C.z ~ 3.4.9 9 >.<.8.8.8.8.8.8.8.<.;., }  . .",
" . . . .=.;.9.w.w.w.w.w.w.w.;.c.b.n.v.! d a a a _.{.E a a a P 3.M.z.b.,.9.w.w.w.w.w.w.w.<.-., .. . .",
"} F.} i 7 =.>.>.>.>.>.>.>.>.:.f.n.b.v.3.d f ].Z.R V.R ].V.a P 3.M.b.j.5.%.>.>.>.>.>.>.>.%.8 : ~. . .",
"} } } : X 7 7 7 7 7 7 7 7 7 t d.d.d.v.~ z a { {.).).]._.c a P 3.m.g.g.4.7 7 7 7 7 7 7 7 7 $ o t.F.D.",
"} }  .1 & + + o + o + + o o X % ; ; v.W d a a R )._.V.c a a P 4.4.; > + + + + + + + + + o + 0 u.D.} ",
"} }  .1 W W y W W y u u y W + X h C ' b M h n m M n n n n n v b G V   X > y y y W y u u y W Q a.A.| ",
"..}  .2 ` k.k.k.f.k.k.s.k.4.o % b S C C C C C C C C C C C C C C C J < + 9 d.h.d.f.k.k.h.h.k.Q i...X.",
"O.}  .2 p.n.n.n.z.z.k.z.z.4.+ 1 b ) A C C C C C C C C C C C C B J ( < & 1 h.n.h.z.z.n.n.n.z.^ i.X.#.",
"@.+. .2 s.z.n.n.n.z.k.z.z.4.@ 2 p H ) / / / / / / / / / / / / / ) m . & 9 d.n.h.n.n.n.n.n.z.^ y.+.#.",
"+.@...2 s.n.n.n.n.z.z.z.z.^ + w . a V Z Z Z Z V Z S Z Z Z Z Z Z M p 3 > 9 d.n.h.n.n.n.n.n.z.^ y.#.#.",
"@.#. .2 p.n.n.n.n.n.z.l.z.4.+ 3.4.. a a a a a a a a a a a a a a p 3 d.6 9 h.n.k.n.n.n.n.n.z.^ y.#.#.",
"#.#. .: p.z.n.n.n.n.z.z.z.4.+ a.z.u.1 O O - *.*.*.*.*.*.*.@ O : r k.z.9 9 k.n.h.n.n.n.n.n.z.r i.#.#.",
"#.+. .# q p.u.u.y.y.3.4.u.u o a.n.z.4.o X 1.q.q.q.q.q.q.q.= o 0 h.n.n.6 > 2.4.2.u.u.4.u.4.2.% t.+.+.",
"+.+. .> @ @ @ @ @ @ @ @ @ @ o a.n.z.4.@ o 6.r.r.r.r.r.r.r.= o 9 j.n.n.6 o @ @ @ @ @ @ @ $ @ 4 t.+.+.",
"+.+. .2 w 5 5 5 > 5 5 5 5 5 o 9 a.b.4.+ X 6.r.r.r.r.r.r.r.* o 9 k.z.u $ % 6 > 9 9 > 9 4 5 5 Q i.+.+.",
"X.X. .2 ^ 4.4.4.4.4.4.4.3.3.o o % a.4.+ X 6.r.r.r.r.r.r.r.4 o 9 h.q + o 9 4.4.4.4.4.4.4.4.3.! i.X.+.",
"O.X. .i p.z.z.n.z.z.h.z.n.4.o u 9 % > o X 6.r.r.r.r.r.r.r.4 X > : @ Q * 9 k.z.h.z.n.b.z.n.z.r N.+.o.",
"G.o.G. .t.y.y.y.y.y.t.t.y.u o a.d.9 % X X 6.r.r.r.r.r.r.r.4 X o % ! z.6 > ` y.~ y.y.y.i.y.y.m. .F.F.",
"K.G.G.G. .Q.Q.Q.Q.Q.!.Q.Q.!.Q.i.y.d.! o X 5.e.e.e.e.e.e.e.= o > a.h.i N.Q.Q.Q.Q.Q.Q.Q.Q.Q.~.J.K.P.H.",
"J.F.o.F.F.o.F.o.o.F...F.D...F...Q.a.3.o X 1.0.0.0.0.0.0.0.= X 0 d.i...A.H.P.P.P.P.J.P.P.J.P.P.J.P.S.",
"P.K.o...S.F.S. .S.A.D.D.A.D.S.A.A.Q.~ O j. . . . . ... . . .1 : j. .P.P.P.J.P.P.J.P.P.P.P.P.P.P.P.P.",
"T.U.U.I.I.I.T.I.I.T.I.I.L.A.D.G.D.A. . . . . . . . . . . . . . .K.K.F.H.K.H.H.K.K.H.H.K.H.K.G.H.K.H."
};
