/* XPM */
static char *result[] = {
/* columns rows colors chars-per-pixel */
"50 50 196 2 ",
"   c #000000",
".  c #0B0101",
"X  c #05000A",
"o  c #08020D",
"O  c #0C0D0C",
"+  c #160302",
"@  c #0B0114",
"#  c #0E011A",
"$  c #11011E",
"%  c #151615",
"&  c #1B1C1A",
"*  c #210503",
"=  c #2C0906",
"-  c #390A05",
";  c #210518",
":  c #1E211D",
">  c #20231E",
",  c #140123",
"<  c #150920",
"1  c #170229",
"2  c #19012D",
"3  c #1D0134",
"4  c #1F0039",
"5  c #21013C",
"6  c #262628",
"7  c #31382D",
"8  c #32273D",
"9  c #373938",
"0  c #4B0D08",
"q  c #510E09",
"w  c #73140A",
"e  c #35422F",
"r  c #394335",
"t  c #404738",
"y  c #49583D",
"u  c #250143",
"i  c #280147",
"p  c #2A014B",
"a  c #2D1442",
"s  c #2E0153",
"d  c #300256",
"f  c #340956",
"g  c #33015B",
"h  c #3A1755",
"j  c #392946",
"k  c #360261",
"l  c #390266",
"z  c #3C016C",
"x  c #3F0171",
"c  c #44285A",
"v  c #5C066E",
"b  c #410174",
"n  c #450775",
"m  c #45007D",
"M  c #570470",
"N  c #501D79",
"B  c #610569",
"V  c #53326E",
"C  c #57267E",
"Z  c #60397F",
"A  c #494B4A",
"S  c #4D5D45",
"D  c #4A4152",
"F  c #505552",
"G  c #4B6041",
"H  c #54664A",
"J  c #59714E",
"K  c #5B7150",
"L  c #63665B",
"P  c #637A58",
"I  c #5A4969",
"U  c #5D4370",
"Y  c #645473",
"T  c #5D6260",
"R  c #686C6B",
"E  c #6B6275",
"W  c #B61E10",
"Q  c #B41937",
"!  c #F6260F",
"~  c #EB2513",
"^  c #EC2618",
"/  c #F32711",
"(  c #C31C31",
")  c #DA2121",
"_  c #688859",
"`  c #6D8961",
"'  c #749962",
"]  c #7E857E",
"[  c #818E7A",
"{  c #8AAD70",
"}  c #8BB478",
"|  c #90BE78",
" . c #95C67A",
".. c #99D77B",
"X. c #9ADA7A",
"o. c #A9D577",
"O. c #A8D578",
"+. c #A1DE7A",
"@. c #9AE17A",
"#. c #A3E27C",
"$. c #ABE67A",
"%. c #A5E87F",
"&. c #ACE87C",
"*. c #B3EB78",
"=. c #B6EC7C",
"-. c #B7F07C",
";. c #B9F179",
":. c #470080",
">. c #4F0C83",
",. c #5A1D8A",
"<. c #5D2589",
"1. c #653988",
"2. c #662C92",
"3. c #6B3694",
"4. c #684286",
"5. c #74568B",
"6. c #774F94",
"7. c #744499",
"8. c #79469F",
"9. c #7F6B8D",
"0. c #7B7885",
"q. c #7D6395",
"w. c #806F8C",
"e. c #846999",
"r. c #877795",
"t. c #855AA6",
"y. c #8B60AC",
"u. c #9D79B6",
"i. c #858684",
"p. c #8E928A",
"a. c #948B97",
"s. c #969699",
"d. c #96929D",
"f. c #8EA982",
"g. c #99BB8C",
"h. c #98AE92",
"j. c #9AAB97",
"k. c #A7B99E",
"l. c #998EA6",
"z. c #A099A8",
"x. c #A483BD",
"c. c #A795B4",
"v. c #A5A7A6",
"b. c #AABEA4",
"n. c #B1BBA7",
"m. c #B8B8B8",
"M. c #9CC785",
"N. c #9ED883",
"B. c #AFCE8A",
"V. c #A2DC85",
"C. c #A6DD8B",
"Z. c #AAD889",
"A. c #A5CC93",
"S. c #ACC698",
"D. c #AAD995",
"F. c #B7D598",
"G. c #9FE381",
"H. c #A1E281",
"J. c #A4E881",
"K. c #A8E880",
"L. c #A5E489",
"P. c #AAE48B",
"I. c #A6E88C",
"U. c #ABEA8B",
"Y. c #B6E987",
"T. c #BEF086",
"R. c #ADE395",
"E. c #A9E891",
"W. c #AEE798",
"Q. c #B5E894",
"!. c #B4EA9C",
"~. c #B5C9A8",
"^. c #AFD7A1",
"/. c #B9D2A6",
"(. c #B8E8A4",
"). c #C1DF9E",
"_. c #C1F189",
"`. c #C4F28F",
"'. c #C2E39B",
"]. c #C5E89C",
"[. c #C1D4A6",
"{. c #C6E5A4",
"}. c #C6E8A4",
"|. c #C8EEB9",
" X c #B69ACA",
".X c #BDA6CE",
"XX c #BDACCA",
"oX c #CDBAD8",
"OX c #D0BEDD",
"+X c #C7C7C7",
"@X c #D6C7DE",
"#X c #D9CBE0",
"$X c #E6DEEC",
"%X c #F6F1F7",
"&X c #F8F4F9",
"*X c #FEFDFE",
/* pixels */
"(.E.L.P.L.H.H.#.G.V.@.V.#.G.V.#.N.#.G.C.m.3.P.X.X.N.N.X.X...X.L.H.E.I.E.W.E.E.W.|.<.#   ' !.E.E.I.I.",
"E.@.@.@.+.N.G.N.#.H.H.H.#.N.H.@.H.G.G.H.g.9 P.V...(.R.M.7 ..X.@.@.I.G.I.(.(.W.7.6 @ X g k.I.E.I.@.@.",
"L.@.X.X.N.#.X.@.X.N.G.#.G.G.G.#.#.V.L.| & < 7.R.C.S.<.: % ..@.@.H.@.@.W.1.6 > x x o   f.I.G.G.@.@.@.",
"+.@.X.X.X.X.X.V.X.X.X.N.N.#.N.} K V.b.1.p X 8 ~.4.9 $   % X.X.@.W.7.e 9 , d k m 2 X ` V.@.@.J.@.@.@.",
"..z.U I d.L.V.N.V.X.X.X.N.X.n.V % H j.z $   O 9 <         e e e r , d d g m 2 , X p g.N.@.@.@.@.@.@.",
"..e.u # j G T d.V.X...X.X.X.f.,   % A 1                       i X u 4 m m 5       0.V.@.X.@.@.X.@.@.",
"..j.4.< , p u j G G T q.q.E A 4                               4 p 4 u 4 m o     u A.@.@.@.@.X.X.....",
"X.X.j.D # d l u 1   @ 4 4 1 o 1                                 4 u 4 u 4 X     z D.#.@.@.X.X.X.@...",
"....X.R @ $ g m k 4 4 $                                           u X u         5.}.%.*.$.....X.....",
"X.X.V.v.V $ , g :.:.z 2                                                       1 F.-.*.;.$.X.....@...",
"$.X.X.@.d.V @ , z :.s                                           ,             Z ).;.;.;.*.X.X.#.@.@.",
"*.$.#.$.D.l.i   , g 5                                         , d           $ B._._.;.;.;.$.#.*.$.@.",
"*.$.$.*.Q.s.h o                                 @           # m   X         k S.$.Y.*.;.=.;.*.$.$.*.",
"$.$.$.*.=.Y.r.s                               , x       @ @ v v               | $.F.M.*.*.*.$.K.$.*.",
"$.K.$.&.$.K.a.h X     X o X                 @ :.x     @ v B ~ / .             { A.N $ M.&.&.$.K.#.*.",
"K.K.K.K.K.K.Q.d.p     2 m s                 @ :.x   X M / ! ! / .                   k ~.H.H.J.K.%.$.",
"K.K.K.K.K.K.&.a.p     3 m m m d       @ k     # :.m n ~ ! ! ! / .                   g.V.X.@.H.K.K.K.",
"K.K.K.&.K.K.&.s.p 3 p   0 ^ ( n b g   # l     @ :.v ^ * ! ! ! / .   n X           M.R.N.X...#.K.K.K.",
"K.&.&.&.-.K.T.d.b i 3 5 0 ! / ) ) Q z d @       ; ) ~ + ! ! ~ =     m o           > C ~.X.X.X.&.=.&.",
"-.-.Y.;.l.2.2.,.:.b p o 0 ! ! ! W q Q z           = =   = = =   . l #XO           g z.D.#.#.X.;.-.K.",
"-.;.;.;.F.e.m m :.d 4 5 + w ! ! W - W @                         g @X*XO           x b.Y.$.*.$.;.;.;.",
";.;.;.;._./.e.m :.z i 5 5 + q q - . -                   X s s d .X*X*XO           , 4.F.*.;.;.;.;.;.",
";.;.;.;._._.F.y.:.:.z 4.w.                    X s s f v.v..X Xm &X*Xt.X             , t  .;.;.;.*.;.",
"*.;.;.;.T.n.e.6.:.:.m t.XXu 3         o i h i.a. Xu.>.*X*X*X&Xm &X&X5 X                 y o.;.*.J.;.",
"$.*.*.$.#.k.U d :.:.:.y.$Xu.e.h p.R E h x. X*X*X%X$X>.*X*X*X%Xm %Xu.                      y O.H.G.*.",
"@.$.$.X.E. .A p :.:.:.1.m.*XOX8.*X*X@X2.*X*X*X*X*X$X>.*X*X*X%Xm  Xp                         0.D.@.J.",
"X.@.#.@.| F d m :.:.:.k Y &X+X8.*X*XOX2.*X*X*X*X*X$X>.*X*X*X%Xm s                           u h.J.%.",
"@.@.@.M.I d :.m :.:.:.:.1.oXOX8.*X*XOX2.*X*X*X*X*X$X>.*X&XXXz.s                       , X     J N.J.",
"G.I.X.0.z m :.b z :.:.:.k D c.8.*X*X#X2.*X*X*X*X*X$X>.@XoXg                         @ d 2 X     } G.",
"G.G./.T p :.b u 3 :.:.:.b p 1 1.+X+Xc.,.#X#X#X#X#Xm.k l d                           s 1 s 1 X   p.E.",
"@.H.r.m m m 5   3 :.:.:.g 2 d X   X , b x b x b l                                   X k , k # X d j.",
"X.D.P u m u     3 :.:.:.:.d , d 1 g X   X                                         X l @ d $ k $   ' ",
"X.9.m m 5       3 m :.:.:.m g 1 s , d # k                                         n >.# X g #     ' ",
"X.H 4 u           4 :.:.:.d , d 1 k , l                                           A.(.2.#       f s.",
"@.H X       4 5.P 3 m m :.m d 1 s , d o                                           o.K.'.7 { $.7 { F.",
"&.e.5   5 u H S._ X 4 m :.:.m d 2 g , g                                         g F.;.T.o.=.;.Z.$.;.",
";.F.L y  .w.w.Y...G 2 :.:.m l 3 p 1 s #                                         b B.;.;.;.;.;.;.*.;.",
";.;.o.o.`.F.[.;.+.P 2 g 4 k 3 p 3 s @                                           { _.;.;.;.;.;.;.;.;.",
";.;.;.;._.;.=.;.$.] u 5 u $ X $ o ,                                           u F.=.;.;.;.;.;.;.;.;.",
";.;.;.*.*.;.=.;.&.[ 5 u ,                                                     1 6.).;.;.;.;.;.;.*.;.",
";.*.;.*.*.=.=.Y.n.Z g z 4                                                       1 B.;.;.;.;.;.;.*.;.",
"*.*.*.*.*.*.*.Y.a.m z u 2                                                         o.*.;.*.*.;.*.*.*.",
"*.*.*.$.$.*.*.$.a.m p                                                              .*.;.*.$.*.*.*.$.",
"$.$.*.$.$.$.&.K.i.d 5                                               1              .$.*.*.*.$.*.*.&.",
"$.&.$.K.K.%.&.Q.[ @                 X , ,                       , X s X         , M.H.&.$.$.&.*.*.&.",
"%.$.K.K.K.K.K.U.v.c               X a 7.4.9 $           O 7 r e d               4.^.I.I.$.L.J.$.J.J.",
"I.K.K.K.K.K.&.U.K.`             O 8 t.R.X.k.<.o       @ 9 X.X.C.6   @ @         A.!.I.I.I.E.E.L.I.L.",
"I.J.K.J.J.K.K.%.V.J           O S !.R.X.X.C.S.N   @ 6 3.C.....X.L.6 l m X   @ X f.E.E.E.E.E.I.I.I.I.",
"E.I.%.@.H.J.@.J._   O   X X   r H.H.H.X.X.X.X.| @ <.V.V.....X.L.H.W.O n o   n % X N.E.E.E.E.E.E.E.I.",
"}.].].'.].'.{.'.}.}.{.{.Q.J.U.U.#.V.J.X.#.H.@.N.D.(.#.@.X.X.#.J.L.E.(.(.Q.!.(.!.W.I.L.L.L.I.I.J.I.L."
};
