/* XPM */
static char *result[] = {
/* columns rows colors chars-per-pixel */
"50 50 137 2 ",
"   c #000001",
".  c #05000A",
"X  c #0B0B0B",
"o  c #0B0213",
"O  c #0E0119",
"+  c #160C1F",
"@  c #101010",
"#  c #19131B",
"$  c gray11",
"%  c #120122",
"&  c #160229",
"*  c #19022E",
"=  c #1E102B",
"-  c #1D0234",
";  c #221627",
":  c #21033E",
">  c #29163A",
",  c #242424",
"<  c #2B202F",
"1  c gray17",
"2  c #3C3C3C",
"3  c #250343",
"4  c #270348",
"5  c #2A034D",
"6  c #321B46",
"7  c #341C4A",
"8  c #2D0452",
"9  c #310756",
"0  c #340A5A",
"q  c #3A0F5D",
"w  c #3C1163",
"e  c #48354E",
"r  c #52345C",
"t  c #401467",
"y  c #45196D",
"u  c #4C1F74",
"i  c #462562",
"p  c #492767",
"a  c #492868",
"s  c #502171",
"d  c #522C74",
"f  c #51247A",
"g  c #582B79",
"h  c #58307D",
"j  c gray25",
"k  c #4D4D4D",
"l  c #535353",
"z  c gray35",
"x  c #5A4362",
"c  c #70477E",
"v  c #6D5177",
"b  c #72547C",
"n  c #676767",
"m  c #6D6D6D",
"M  c gray47",
"N  c #91003D",
"B  c #9B0041",
"V  c #C00050",
"C  c #C90054",
"Z  c #FF006B",
"A  c #99DA79",
"S  c #A1DF7A",
"D  c #9AE179",
"F  c #A3E27D",
"G  c #ABE67A",
"H  c #A4E87E",
"J  c #ACE87C",
"K  c #B3EC78",
"L  c #B6F07C",
"P  c #B9F179",
"I  c #562880",
"U  c #5B2C85",
"Y  c #5B3181",
"T  c #623080",
"R  c #64358F",
"E  c #723E8F",
"W  c #683793",
"Q  c #6B3A97",
"!  c #6E3C98",
"~  c #713F9C",
"^  c #765C8E",
"/  c #74419C",
"(  c #7B469A",
")  c #7A46A0",
"_  c #854FA7",
"`  c #8B55AD",
"'  c #915BAE",
"]  c #8B57B1",
"[  c #955BB1",
"{  c #9770A5",
"}  c #9F63B6",
"|  c #A165B9",
" . c #A669BC",
".. c #A86BBE",
"X. c #AC6FC2",
"o. c #AE77CE",
"O. c #B87CCE",
"+. c #868686",
"@. c #909090",
"#. c #9B9B9B",
"$. c gray63",
"%. c #AEAEAE",
"&. c #B4B4B4",
"*. c gray",
"=. c #9FDF80",
"-. c #9FE681",
";. c #A0E180",
":. c #A1E880",
">. c #A8E880",
",. c #A5E68A",
"<. c #A6E88C",
"1. c #A8EA8B",
"2. c #B1E18C",
"3. c #A8E890",
"4. c #C2E49C",
"5. c #C5E89C",
"6. c #C4E7A1",
"7. c #C68ADC",
"8. c #C498D4",
"9. c #CB8EE0",
"0. c #D599EA",
"q. c #D99FF1",
"w. c #DDA2F1",
"e. c #E2A6F7",
"r. c #EAAEFF",
"t. c #EBB2FF",
"y. c #C0C0C0",
"u. c #CCCCCC",
"i. c #DBDBDB",
"p. c #DFD9E5",
"a. c #F4D7FF",
"s. c #E2E2E2",
"d. c #EEEEEE",
"f. c #F8E6FF",
"g. c #FBEFFF",
"h. c #F6F6F6",
"j. c #FEFEFE",
/* pixels */
",.:.3.3.3.3.3.3.3.3.3.3.3.3.-.3.3.-.-.-.A A A A A A S A =.=.=.=.S ;.;.;.=.;.=.=.=.=.;.;.A =.A A 1.3.",
"D D <.3.<.<.3.<.<.3.-.-.3.3.-.-.<.D -.-.A A A A A A ;.A =.=.;.=.=.=.=.=.;.=.=.=.=.;.=.;.A A =.A D ,.",
"D D -.<.-.-.<.:.D -.D D -.-.D D D D A A A A A A A A A =.;.;.;.;.=.=.=.=.=.;.;.=.A =.S S A A A A A D ",
"D D D -.D D -.D D D D D D D D D D D D D A A A =.A A A A =.;.=.;.=.=.=.=.=.;.S S =.A S A A A A A D A ",
"D A D D D D D D D D D D D D D D D D D D A D =.=.n   2 =.S ;.;.;.A S S S A A A A A A A A A A A A A A ",
"D A D D D A D D D D D D H D F A D D F G F -.F F n   2 F ;.S =.;.A A S A A A A A A A A A A A A A A A ",
"A A A A D D D D D J H D K H P G J J F K J ;.P 2   % g t.g.K ;.;.A A A A A A A A A A A A A A A A A A ",
"A A A A A D D D K L P J P P P P P P K P P i.X   * 8 g w.; &.S S A A A A A A A A A A A A A A A A A A ",
"A A A A A G G H P P P P P P P P P P P K P i.X 3 8 y ] r.r.f.J S A A A A A A A A A A A A A A A A A A ",
"A A A A A G P L P P P P P P P P P K P K &.    : 8 y ( X.w.e +.H A A A A A A A A A A A A A A A A A A ",
"D S A A A K P P P P P P P P K K G G K G %.. 5 8 f Q Q / q.r.a.K A A A A A A A A A A G S A A S A A S ",
"K S G D G P P P P K P P G K G ;.F S F +.  . 5 8 f Q Q ! } 0.b l G A A A A A A A S A G G A A G S G G ",
"K G J G P P P K K G K K ;.F G =.=.;.l   O 8 8 8 f Q Q Q Q [ r l G A A A A ;.G G G K K G G G K G G K ",
"K G J H K K K F G F F G =.=.S S h.,   7 Q Q Q Q ] ...... .....c       #.G G G >.S G G K J K K G G G ",
"G G H H G G H =.F ;.;.;.;.;.;.u.    p Q Q !  .......................;   m J J >.>.>.S K >.>.J J G H ",
"G G H G F F ;.;.D ;.F =.;.=.#.    h Q Q _ ..........................w.x   j >.>.>.H G G >.>.>.>.G H ",
">.>.>.;.;.A =.F ;.A ;.;.A m   + Q Q Q Q _ } Q Q Q Q Q ! | ..........w.r.r.r.0.#       1 j.>.>.>.H H ",
">.>.>.;.A A A A =.A A A 2   > Q Q Q Q Q Q Q Q Q Q Q Q Q Q Q ` ............O.r.r.r.7.8.J >.>.H >.>.F ",
"J K H A A A A A A A A A j * y Q Q Q Q Q Q Q Q Q Q Q Q Q Q Q Q Q ~  ... ... .| q 9 & z P J L K J J >.",
">.P K A S S A A A A s.@ : 8 y Q Q Q Q Q Q Q Q Q Q Q Q Q Q Q Q Q Q Q ! ] E 9 8 8 o @.>.P L P P G P K ",
"P P 5.G K J J F A &.    : 8 y Q Q Q Q Q Q Q Q Q Q Q Q Q Q Q Q Q Q Q Q y 8 8 9 R ; +.P K P P P K P 5.",
"P P P P P J K K A &.. 5 8 8 - + Q Q Q Q Q Q Q Q Q Q Q Q Q Q Q Q Q Q Q Q f w Q Q 7.v z K P K P K P P ",
"P K P P P P P P +.    5 8 %       Y Q Q Q Q Q Q Q Q Q Q Q Q Q Q Q Q Q Q Q Q Q Q 9.r.r.r.r.<   M P P ",
"K J P P K K P K +.O 8 8 o N Z C . Y Q Q Q Q Q Q Q Q Q Q Q Q Q Q Q Q Q Q Q Q ! | ....7.r.r.< $.P P K ",
"K H :.H H H L H +.O 4 . V Z Z C   3 I Q Q Q Q Q Q Q Q Q Q Q Q Q Q Q Q Q Q ) ........( 3     $.K K G ",
"H H :.:.H :.:.:.+.O 4   V Z B     3 I Q Q Y . d Q Q Q Q Q Q Q Q Q Q Q Q Q ) ....s 8 -     u.D G G D ",
"H D :.:.-.-.:.:.+.O 5   V Z B o 8 8 8 u a     d Q Q Q Q Q Q Q Q Q Q Q Q Q Q W 0 8 &   1 j.D D D D D ",
"-.-.:.:.-.-.H :.+.O 4       % 8 8 8 8 &   @ R Q Q Q Q R o p Q Q Q Q Q Q Q Q Q Q W 6 z D D D D D D D ",
"H -.-.H H :.:.:.+.O 8 8 5 5 8 8 0 p.l   O 0 W Q Q Q ! R @ a Q Q Q Q Q Q Q Q Q Q Q 7 z D D A D D D D ",
"-.-.-.-.-.:.-.H +.      - 4 { j.j.j.l & t Q ! Q Q Q Q R o a Q Q Q Q Q Q Q Q ! | ..7.r.r.t.g.A D D G ",
"-.-.-.-.-.-.-.-.+.k j.j.j.j.j.j.h.,   & t Q Q Q Q Q ! R o a Q Q Q Q Q Q Q ( ........_ :   u.A D H D ",
"D :.-.H -.-.H -.-.&.$ d.j.j.j.u.  3 O & t Q Q Q Q Q U 5 . a Q Q Q Q Q Q Q ) ....s 5 - 1 j.A A A A A ",
"D -.:.:.H H H H :.&.$ d.j.j.#.o 8 8 O & t Q Q Q Q f 3     a Q Q Q Q Q Q Q U 8 5 O   z A A A A A A A ",
"D -.H J J D H H H H s.@ y.m O 5 8 8 O   O 8 8 o           a Q Q Q Q Q Q Q Q R o &.A A A A A A A A A ",
"J D H L K J K G K L s.@   * 8 8 8 8 8 &             o 8 8 8 u Q Q Q Q Q Q ] r.r.r.v   1 h.A A A A S ",
"P H L P P P P K P P K K j - 8 8 8 8 8 8 8 8 8 8 8 8 8 8 8 8 8 8 8 8 8 f _ ..X.e.r.r.{ 1 j.G A G S G ",
"P P P P P P P K P P P K G m O 8 8 8 8 8 8 8 8 8 8 8 8 8 8 8 8 8 8 8 8 8 T ..| q 5 9 ^ G K P G P K K ",
"P P P P P P P P P P P K j     o 8 8 8 8 8 8 8 8 8 8 8 8 8 8 8 8 8 8 8 f f 8 8 8 9 ' { 1 j.P P P P K ",
"P P P P P P P P P &.      * 8 3   3 8 8 8 8 8 8 8 8 8 8 8 8 8 8 8 8 8 8 8 8 8 8 I o.r.8.  u.P P P P ",
"P P P P P K P P P K s.@ : 8 8 8 5 o - 8 8 8 8 8 8 8 8 8 8 8 8 8 8 8 8 8 8 8 9 R Q Q ! h   u.P P P P ",
"P K P P P P P K K G s.@   - 8 8 8 8 8 & O 8 8 8 8 8 8 8 8 8 5 :     3 8 8 8 9 R Q Q i 1 j.K K K K P ",
"G K P K K P P P G F =.S 2   O 8 8 8 8 & O 8 8 8 8 8 8 8 8 8 &       3 8 8 w Q Q Q Q i 1 j.G K K K P ",
"K G K K K K P G A A A A A m % 8 8 8 8 &   , h.;.;.=.;.=.F H G J i..     % 8 9 R Q 6 z K K G G K G G ",
"K K G K G G K G A A A A A m   o 8 8 8 & k A A A A ;.=.A G G J >.J H >.:.@.o 9 R =   z G K G K G K J ",
"G K G G :.G K :.A =.A A A A #.o 8 8 O M A A A A A A A A F A J J H >.>.>.@.O 8 8 O +.>.>.G H G J G J ",
"S G G :.3.;.,.<.-.-.A A =.A A u.    %.A A A A A A A A A A A A >.>.:.:.>.:.*.    &.>.>.>.H H >.>.>.>.",
",.1.,.3.3.3.3.3.3.3.,.=.,.=.A A A A A A A A A A A A A A A A A F >.;.D :.:.*.    &.>.>.>.>.>.>.>.>.,.",
",.3.1.3.3.3.3.3.3.3.3.,.3.,.=.,.=.A A A A A A A A A A A A A A =.-.;.=.:.=.:.:.:.;.>.>.:.>.:.:.>.:.3.",
",.<.3.3.3.3.3.3.<.3.3.3.3.3.3.3.3.;.,.A A A A A A A A A S A =.=.-.=.;.=.;.;.;.;.=.;.:.;.:.-.D >.1.3.",
",.1.1.1.1.;.1.,.,.1.1.,.;.1.1.<.1.<.,.S A A D A A A A D :.S A ;.=.;.;.:.=.2.4.4.6.5.4.4.4.4.4.5.5.6."
};
