/* XPM */
static char *result[] = {
/* columns rows colors chars-per-pixel */
"50 50 181 2 ",
"   c #020103",
".  c #05000A",
"X  c #09030E",
"o  c #0B0B0B",
"O  c #0B0013",
"+  c #0F0816",
"@  c #0D0119",
"#  c #10011E",
"$  c #160F19",
"%  c #141414",
"&  c #1D1D1D",
"*  c #130123",
"=  c #1A0C27",
"-  c #160129",
";  c #19022E",
":  c #1F132A",
">  c #1C0234",
",  c #1F023A",
"<  c #231A2A",
"1  c #22033D",
"2  c #240D39",
"3  c #241335",
"4  c #291639",
"5  c #242424",
"6  c #2A232E",
"7  c #2A2A2A",
"8  c #2D2233",
"9  c #343235",
"0  c #3B3B3B",
"q  c #590030",
"w  c #67002B",
"e  c #6A0033",
"r  c #240343",
"t  c #270348",
"y  c #29034C",
"u  c #2C0B49",
"i  c #2F1A43",
"p  c #341C4A",
"a  c #361A4C",
"s  c #2D0452",
"d  c #320857",
"f  c #360B5B",
"g  c #380E5E",
"h  c #391658",
"j  c #3D3247",
"k  c #3A0F61",
"l  c #3D1362",
"z  c #3F1861",
"x  c #502E5F",
"c  c #4C3A58",
"v  c #411669",
"b  c #431668",
"n  c #45196D",
"m  c #4A1D72",
"M  c #492766",
"N  c #4C296B",
"B  c #502D6E",
"V  c #573964",
"C  c #4E2374",
"Z  c #542C73",
"A  c #552977",
"S  c #53257C",
"D  c #592A79",
"F  c #58307D",
"G  c #424242",
"H  c #4E4E4E",
"J  c #514A58",
"K  c #555555",
"L  c #5A5A5A",
"P  c #5C5563",
"I  c #635867",
"U  c #6B4E76",
"Y  c #646464",
"T  c #6B6B6B",
"R  c #716677",
"E  c #747474",
"W  c #79757C",
"Q  c #7B7B7B",
"!  c #890039",
"~  c #C00050",
"^  c #CB0055",
"/  c #FF006B",
"(  c #99DA79",
")  c #A1DF7A",
"_  c #9AE179",
"`  c #A3E37D",
"'  c #ABE67A",
"]  c #A4E87E",
"[  c #ACE87C",
"{  c #B3EC78",
"}  c #B6F07C",
"|  c #B9F179",
" . c #562880",
".. c #5B2C85",
"X. c #5F2F89",
"o. c #5B3181",
"O. c #62338C",
"+. c #693889",
"@. c #673692",
"#. c #6B3A97",
"$. c #6D3C98",
"%. c #703E9A",
"&. c #784D89",
"*. c #755382",
"=. c #75419D",
"-. c #794598",
";. c #7D698B",
":. c #7B47A1",
">. c #7E49A3",
",. c #825896",
"<. c #837489",
"1. c #886A9A",
"2. c #8C729B",
"3. c #834DA4",
"4. c #8751A8",
"5. c #8B53AB",
"6. c #935EA7",
"7. c #8E5DB1",
"8. c #955CB2",
"9. c #985EB4",
"0. c #9667A6",
"q. c #9C64B4",
"w. c #A077AF",
"e. c #A266BA",
"r. c #A56ABD",
"t. c #A86BBE",
"y. c #A579B5",
"u. c #AC70C4",
"i. c #B076CB",
"p. c #B37ACC",
"a. c #B97DCF",
"s. c #868686",
"d. c #868089",
"f. c gray55",
"g. c #959595",
"h. c #979798",
"j. c #9B9B9B",
"k. c #9988A8",
"l. c #A990B7",
"z. c #A3A3A3",
"x. c #AEAEAE",
"c. c #B4B4B4",
"v. c #BBBBBB",
"b. c #9FDF80",
"n. c #9FE681",
"m. c #A0E180",
"M. c #A1E880",
"N. c #A8E880",
"B. c #A5E68A",
"V. c #A6E88C",
"C. c #A8EA8B",
"Z. c #B1E18C",
"A. c #A8E890",
"S. c #C2E49C",
"D. c #C5E89C",
"F. c #C4E7A1",
"G. c #B689C7",
"H. c #BD82D3",
"J. c #B2A3C0",
"K. c #C589DB",
"L. c #C6B2CD",
"P. c #C88EE1",
"I. c #CF92E4",
"U. c #D69AEB",
"Y. c #DDA2F2",
"T. c #E4A8FA",
"R. c #EAAEFF",
"E. c #E8BCF9",
"W. c #C3C3C3",
"Q. c #CDCDCD",
"!. c #CFC5D2",
"~. c #D3D3D3",
"^. c #DBDBDB",
"/. c #DEC6E7",
"(. c #EDDDF2",
"). c #F4D7FF",
"_. c #E3E3E3",
"`. c #E8E3EB",
"'. c #EBEBEB",
"]. c #FCF5FF",
"[. c #FDFDFD",
/* pixels */
"V.B._ ` ) m.b.b.b.b.b.b.b.b.m.b.m.b.m.m.b.b.( b.( ( ( ( ( ( ( m.n.A.C.C.A.A.A.A.A.A.A.A.A.A.A.V.n.V.",
"B._ _ _ m.b.b.m.b.b.b.b.m.b.m.b.m.m.m.b.m.) ) b.( ( ( ( ( ( ( n._ _ n.n.A.C.n.n.A.V.A.A.V.C.A.V._ _ ",
"_ _ _ ( m.m.( m.( ( ( ( b.b.m.m.) m.b.m.m.m.m.m.( ( ( ( ( ( ( _ _ _ _ _ n.n._ n.n.n.n.A.n.n.n._ _ _ ",
"( _ ( ( ( ( ( ( ( ) ( ( m.b.) b.b.b.m.b.m.m.m.G + T ) ( ( ( ( ( _ _ _ _ _ _ _ _ n._ _ _ _ _ n._ _ _ ",
"( ( ( ( ( ( ( ( ( ( ( ( ( ( ) ( m.b.b.m.b.m.` 0   T m.( ( ( _ _ _ _ ( _ _ _ ( _ _ _ _ _ _ _ _ _ _ _ ",
"( ( ( ( ( ( ( ( ( ( ( ( ( ( ( ( ) b.b.b.) ].R.Z @ o H ` _ _ [ M.] _ _ ` ] _ _ _ _ _ _ _ _ _ _ _ ( _ ",
"( ( ( ( ( ( ( ( ( ( ( ( ( ( ( ( ( ) b.b.v.9 T.D y - o 7 _.{ { ` { ' ] | ] { ` ] ] _ _ _ _ _ ( ( ( ( ",
"( ( ( ( ( ( ( ( ( ( ( ( ( ( ( ( ( ( b.' (.I.R.3.v y , o ^.| | { | | | | | | [ | } [ _ _ _ ( ( ( ( ( ",
"( ( ( ( ( ( ( ( ( ( ( ( ( ( ( ( ( ( ) g.I T.p.:.n s ,   5 v.| } | | | | | | { | | | ] { ' ( ( ( ( ( ",
"( ( ( ( ( ( ( ( ( ( ( ( ( ( ( ( ( ( ' /.P.Y.:.$.@.m s , . x.{ | { { | | | | | | | | { | ' ( ( ( ( ( ",
"' ( ( ( ( ( ) ' ( ( ( ( ( ( ( ( ( ( W 2.U.u.$.$.#.S s y . 5 j.{ ' [ { | | | | | | | | | [ ( ( ) ` ( ",
"' ( ( ( ) ) ' ' ) ) ) ( ( ( ( ( ( ' K V r.:.#.#.#.S s s r O & Q ) ` ) ' { ' | { { | | | | ' ' ' ' _ ",
"{ ' ' { ' ' ' { ' ' ' ` ` _ c.G 0 0 U 6.e.9.9.9.9.>.......Z 3 % L [.( [ N.) { { ' | { | | { { [ ' { ",
"' ' ' { { ' ' { ' ' ] ' ' g.6 $ &.&.6.r.t.t.t.t.t.e.8.8.%.#.o.p o G ~.` b.m.' m.` [ ` { { { [ N.' ' ",
"' ' ' ' [ N.' N.' N.N.' Q 5 c y.t.t.t.t.t.t.t.t.t.t.u.r.q.=.$.X.M   0 c.b.m.b.m.m.m._ [ [ ' N.N.] ' ",
") ' ' ' N.[.T H H H I E.l.y.G.U.t.t.t.t.r.e.3.>.>.>.>.>.q.>.$.$.@.M O 9 j.m.) m.m.b.b.m.m.m.N.N.[ ' ",
"N.N.N.N.N.[.c.<.,.w.y.T.K.H.H.a.t.t.t.8.:.:.$.#.#.#.#.#.:.%.#.#.#.#.N = 5 s.m.b.( m.m.m.( ) ` [ N.N.",
"N.N.N.N.N.[ [ <.V +.-.a.u.t.r.t.t.4.3.%.#.#.#.#.#.#.#.#.$.#.#.#.#.#.#.h @ 0 ) _ ( ( b.( ( ( _ [ N.N.",
"N.N.N.| | [ | L.L ; d D D ,.9.3.3.%.#.#.#.#.#.#.#.#.#.#.#.#.#.#.#.#.#.n t 4 T '.( ( ( ( ( ( _ [ { N.",
"| | N.N.| { | | s.= m d s m O.#.#.#.#.#.#.#.#.#.#.#.#.#.#.#.#.#.#.#.#.n s 1 . K Q.( ( ( ) _ _ | | N.",
"D.| | | | | | j.R ,.@.S f b ..#.#.#.#.#.#.#.#.#.#.#.#.#.#.#.#.#.#.#.a u s t ;   c.( ) [ ' { N.D.| | ",
"| | x.T <.).).l.G.P.#.#.S X.#.#.#.#.#.#.#.#.#.#.#.#.#.#.#.#.#.#.O.i o @ , s y   H v.{ { { | | | | | ",
"| | W.K 6 R.R.I.K.i.4.$.#.#.#.#.#.#.#.#.#.#.#.#.#.#.#.#.#.#.#.#.o.  w ! q > s > . s.{ | | | } | { | ",
"{ | | z.$ U 3.q.t.u.e.5.=.#.#.#.#.#.#.#.#.#.#.#.#.#.#.#.#.#.$.X.z   ^ / ^ e - y @ s.{ | { { | { M.| ",
"{ { { Q.Y   $ M +.-.t.t.3.@.#.#.@.h F #.#.#.#.#.#.#.#.#.#.#.#. .t   q ^ / ~   t o s.] ] ] ] ] ] M.{ ",
"_ ' ' _ _.Q % O 1 g +.5.%.@.#.O.p p F #.#.#.#.#.#.#.#.#.#.#...v y ; . ! / ~   t + f.] M.M.M.] n.M.M.",
"_ _ _ _ _ [.f.7 2 m C @.$.#.D p p -.4.:.#.#.#.#.#.#.#.#.#. .k s s s ; q ! w . y @ s.M.M.M.M.M.] M.n.",
"_ _ _ _ _ _ _ L p #.#.@.$.B x *.u.t.8.:.#.#.#.#.#.#.#.#.#.l > M ;.d s > * * * y @ s.n.] M.M.n.M.M.M.",
"M._ _ ( ].).).k.&.3.3.#.N V 0.T.P.9.=.#.#.#.#.#.#.#.#.#.#.b - K '.2.2.B s u ; ; X s.n.n.M.M.M.n.n.M.",
"M._ _ ( `.1.0.K.a.e.q.x + U I.K.7.$.#.#.#.#.#.#.#.#.#.@.S g > j z.[.[.J.;.;.Y Y & s.n.n.M.M.] M.M.n.",
"( B.) ( ^.Y 3 Z -.3.0.X @ U q.4.#.#.#.#.#.#.#.#.#.#.@.S d s s r 3 h.'.[.[.[.[.z.E c.n.M.M.M.n.M.n.] ",
"( ( ( ( ( [.W 8 1 a +.. 1 S =.#.#.#.#.#.@.S S  .X.X.m s s s s s y @ d.^.[.[.'.& c.M.M.M.n.M.n.n.M._ ",
"( ( ( ( ( ( ( g.K c ; 3 2 r l ..$.$...S m y , > l n s s s s s s s s * T Q.`.z.Y Q.] M.M.M.n.] M.m.( ",
"( ( ( ( ( [.c.x.!.L.V 7.< # r f  .S l s t > @ @ , s s s s s s s s s s > J s.o _.[ ] _ [ M.[ } M.m.) ",
"( ( ( ( ( [.7 8 2.R.T.U.P $ O 1 s s r > ; # s s s s s s s s s s s s s s > % K '.{ { ] | [ } | [ ) ' ",
"{ ) ' ( ' [.T 2.p.p.p.t.e.M . . , , * @ - s s s s s s s s r , , , , y r 8 E { { | | { | } | | { ' | ",
"| ' | ' | { { k.N s d 3.3.A 1 O O O r s s s s s s s s s s - O @ O   > 9 g.' } | | | { | | { | | { | ",
"| | | { | { | { k.1 y s s s s s s s s s s s s s s s s s s s s s t O O W ^.' [.W._.| | | | | | | | | ",
"| | | | | | | ~.T X 1 1 s s s s s s s s s s s s s s y r y s s s s s s # K W.c.% f._.| | | | { | | | ",
"| | | | | | | Q &   X X 1 1 t y r r s s s s s s s s 1   t s s s s s s - O O O O   s.| { | | | | | | ",
"| | { | ' { { ' s.O r y # X - r     - u s s s s s s r   t s s s s s s s s s s r 6 j.| | | | | | { | ",
"| ' { { { { { { j.& . y s s y >   5 7 4 s s s s s s r X 1 y s s s s s s s y r 6 W.' { | | { | { { { ",
"' { ' { ' { { [ ' c.. y s y - o 7 ^.[ l.N N N N N N N M 6 2 y s s s s s y 2 9 _.( ( { | { ' ' { ' ' ",
"' ' { ' ' ' [ [ { v.< u s * o H N.N.[ [ ] [ ( ( m.( b.( ( Y 3 t s s t t 2 K ( ( ( ( ' { { { { ' { [ ",
"' ' [ N.N.[ N.N.[ N.`.h y * Y [ N.N.[ [ ( ( ( ( ( ( ( ( ( ( d.= t y O o Q ( ( ( ( ( M.{ ' N.' ' { [ ",
"[ [ N.N.N.N.N.N.M.M._.5 1 : T m.M.N.M.( ( ( ( ( ( ( ( ( ( ( ( x.% % % z.( b.( ( B.B.V.B.' N.B.' N.M.",
"V.N.N.N.N.N.N.N.N.M.] M.H h.M.m.n.m.( ( ( ( ( ( ( ( ( ( ( ( ( ( ( b.n.( b.B.n.B.V.V.A.V.V.A.V.B.V.B.",
"V.M.N.m.M.N.M.N.M.m.M.M.n.m.m.m.` ` ( ( ( ( ( ( ( ( ( ( ( ( ( ( ( A.V.b.B.A.B.A.A.A.A.A.A.A.V.V.V.B.",
"V.C.N.m.m.] n.n.n.n.) b.b.b.n.b.b.b.m.b.( b.( ( ( ( ( ( ( ( ( B.b.A.A.A.V.A.A.A.A.A.A.A.A.A.V.A.A.V.",
"F.D.D.S.S.S.S.S.S.F.F.S.Z.b.m.N.m.) N.( ( N.( ( ( ( ( _ _ ( ` B.B.V.C.B.C.B.B.C.C.B.N.B.B.V.C.B.C.B."
};
