/* XPM */
static char *result[] = {
/* columns rows colors chars-per-pixel */
"50 50 31 1 ",
"  c black",
". c #2D0452",
"X c #FF006B",
"o c #99DA79",
"O c #A1DF7A",
"+ c #9AE17A",
"@ c #A3E27D",
"# c #ABE67A",
"$ c #A5E87E",
"% c #ACE87C",
"& c #B3EB78",
"* c #B7F07B",
"= c #B9F179",
"- c #6B3A97",
"; c #A86BBE",
": c #9FDF80",
"> c #9FE681",
", c #A0E180",
"< c #A2E881",
"1 c #A8E880",
"2 c #A5E68A",
"3 c #A6E88C",
"4 c #A8EA8B",
"5 c #B1E18C",
"6 c #A8E890",
"7 c #C2E49C",
"8 c #C5E89C",
"9 c #C2E6A0",
"0 c #C6E8A2",
"q c #EAAEFF",
"w c white",
/* pixels */
"32+@o,,,,o,,,,:,:,:,,Oo:ooooooo2>633663666666664>>",
"2+++,,,,,,,,,,,O,:,:,:o:ooooooo++<>>63>362364463>>",
"+++o,,o,  ,,:,,,O:::,,,, oooooo+++++<>+  +22>>>+++",
"o+oooooo q   ,::,::: ,,  oooo o+++++     +++++++++",
"oooooooo qqqq  ,:,: ;1,;. ,,;.+++o  ;;-. +++++++o+",
"oooooooo -;qqqq   ,;;O ;..@ ;.$   q;;--. +++o+++o+",
"oooooooo .--;;qqq  ;..;;.. ;;.  q;;;---..+++++oooo",
"oooooooo .---;;;q;;;..;;;. ;;. q;;----.. *+++ooooo",
"ooooooooo..----;;;;;;;;;;;;;;;;;;-----..==$&#ooooo",
"ooooooooo .-----;;;;;;;;;;;;;--------...==&=#ooooo",
"#oooooOOo ..---;;;;;;;;;;;;;;-------... ====#oo@+o",
"#oooOO&#OO .--;;;;;;;;;;;;;;;;------.. ======#@&#+",
"######&&## ..-;;;;;;;;;;;;;;;;------... #=&===&##&",
"&#&#&&##%# ..;;;;;;;;;;;;;;;;;-------.. @%@&&&#1##",
"###&#1#111 ;;;;;;;;;;;;;;;;;;;-------.. ,,o1##11$#",
"O##111111  ;;;;;; ;;;;;;;;;;;--- ----..  ,,,,,11%%",
"111111111  ;;;--   ;;;;;;;;;;--   ---..  ,,,oo$<11",
"11111111% ;;;;-- X  ;;;;;;;;--  X ----.. ooooo@##<",
"111==%*%  ;;;;-- XX  ;;;;;;--  XX ----.. ooooo+&&4",
"==11=&=  q;;;--- XX   ;;;;--   XX ----..  oo@++==%",
"8=====  qq;;;--- XX X  ----  X XX ----.... &#&&8==",
"=====  qq;;;;---  XXXX ---- XXXX  ----....  %==1==",
"====  qq;;;;------    ------    ------.....  ===&=",
"&=== qq;;-;;--  -----------------  ---...... &=&1&",
"#&= qq;;--;;-- w                 w ---......  $$>&",
"+#% q;;----;-- www www wwww www ww ---....... $$><",
"+++ q;--...;;-- ww www wwww www w ----....... >>><",
"+++ q;--...;;--- w www wwww www w ----....... <<<>",
"<++  -.....;;----  www wwww www  ----........ <<<<",
"<++   .. ..;;;----  ww wwww     -----..  ... <<$$<",
"o<+oo   o ..;;;-----         --------.. <   <<><>>",
"ooooooooo  ..;;---------------------... <<<<<><><+",
"ooooooooo  ..;;;-------------------.... 1<<<>$$>@o",
"oooooooooo -..;;-------------------... &11>%<$*<2o",
"Oooooooooo -...;;-----------------.... &==$=%==%O#",
"&o#o#O,ooo ---..-----------------..... &==&====%&=",
"&#=#=&&#oo --------------------....... ========&&=",
"=======&Oo -----------................ =&=========",
"========#o ---------.................. #===&======",
"===&===&&$ --------.         ......... @&=====&===",
"=&==#&&&&# -------.. ,:,,,,, ......... ,#&&=====&=",
"&&&##&&&&& .-----... ,,,:,,, ......... :+#&==&=&&#",
"&&#&&###&# ......... ,,,,:,o  ........ :Oo&=&#&&&&",
"##&##&%1# ......... %$o:,o,oo ........  oo#&&&&##&",
"###11$%1%     .    %oooooooooo  ....... oo<######%",
"#<1111111<1<<   <1#oooooooooooo .  .   o2232#<2&11",
"31111111<<<<>< ,,<Oooooooooooooo  :  2>23663363<32",
"3<1111<11,<<>O<,,,ooooooooooooooo62:2623666666666<",
"63$@>>+<,,,,O,,,,::Oooooooooooo2223666663366664666",
"0887789779975,<,,,,o,,@oooo@oo+2244242234224244222"
};
