/* XPM */
static char *result[] = {
/* columns rows colors chars-per-pixel */
"50 50 141 2 ",
"   c #000001",
".  c #05000A",
"X  c #0B0B0B",
"o  c #0B0213",
"O  c #0E0119",
"+  c #160C1F",
"@  c #101010",
"#  c #19131B",
"$  c gray11",
"%  c #120122",
"&  c #160229",
"*  c #19022E",
"=  c #1E102B",
"-  c #1D0234",
";  c #221627",
":  c #21033E",
">  c #29163A",
",  c #242424",
"<  c gray17",
"1  c #3C3C3C",
"2  c #250343",
"3  c #270348",
"4  c #2A034D",
"5  c #321B46",
"6  c #341C4A",
"7  c #2D0452",
"8  c #310756",
"9  c #330B57",
"0  c #340A5A",
"q  c #3A0F5D",
"w  c #3C1163",
"e  c #48354E",
"r  c #52345C",
"t  c #401467",
"y  c #45196D",
"u  c #4C1F74",
"i  c #462562",
"p  c #492868",
"a  c #502171",
"s  c #522C74",
"d  c #51247A",
"f  c #582B79",
"g  c #58307D",
"h  c gray25",
"j  c #4D4D4D",
"k  c #535353",
"l  c gray35",
"z  c #5A4362",
"x  c #70477E",
"c  c #6D5177",
"v  c #72547C",
"b  c #676767",
"n  c #6D6D6D",
"m  c gray47",
"M  c #91003D",
"N  c #9B0041",
"B  c #C00050",
"V  c #C90054",
"C  c #FF006B",
"Z  c #99DA79",
"A  c #A1DF7A",
"S  c #9AE179",
"D  c #A3E27D",
"F  c #ABE67A",
"G  c #A4E87E",
"H  c #ACE87C",
"J  c #B3EC78",
"K  c #B6F07C",
"L  c #B9F179",
"P  c #562880",
"I  c #5B2C85",
"U  c #5B3181",
"Y  c #623080",
"T  c #64358F",
"R  c #723E8F",
"E  c #663692",
"W  c #683793",
"Q  c #6B3A97",
"!  c #6E3C98",
"~  c #713F9C",
"^  c #765C8E",
"/  c #74419C",
"(  c #7B469A",
")  c #7A46A0",
"_  c #7E49A3",
"`  c #854FA7",
"'  c #8B55AD",
"]  c #915BAE",
"[  c #8B57B1",
"{  c #955BB1",
"}  c #9770A5",
"|  c #9F63B6",
" . c #9F64B8",
".. c #A165B9",
"X. c #A669BC",
"o. c #A86BBE",
"O. c #AC6FC2",
"+. c #AE77CE",
"@. c #B87CCE",
"#. c #868686",
"$. c #909090",
"%. c #9B9B9B",
"&. c gray63",
"*. c #AEAEAE",
"=. c #B4B4B4",
"-. c gray",
";. c #9FDF80",
":. c #9FE681",
">. c #A0E180",
",. c #A1E880",
"<. c #A8E880",
"1. c #A5E68A",
"2. c #A6E88C",
"3. c #A8EA8B",
"4. c #B1E18C",
"5. c #A8E890",
"6. c #C2E49C",
"7. c #C5E89C",
"8. c #C4E7A1",
"9. c #BF82D4",
"0. c #C68ADC",
"q. c #C498D4",
"w. c #C58CE0",
"e. c #D599EA",
"r. c #D99FF1",
"t. c #D9A1ED",
"y. c #DDA2F1",
"u. c #E2A6F7",
"i. c #EAAEFF",
"p. c #C0C0C0",
"a. c #CCCCCC",
"s. c #DBDBDB",
"d. c #DFD9E5",
"f. c #F4D7FF",
"g. c #E2E2E2",
"h. c #EEEEEE",
"j. c #F8E6FF",
"k. c #FBEFFF",
"l. c #F6F6F6",
"z. c #FCF4FF",
"x. c #FEFEFE",
/* pixels */
"2.1.S D A >.;.>.;.;.;.;.;.;.>.>.;.>.>.;.;.;.Z Z Z Z Z Z Z Z Z ;.S 5.3.3.5.5.5.5.5.5.5.5.2.2.5.2.:.2.",
"1.S S S >.;.;.;.;.;.;.;.;.;.;.>.>.>.>.>.>.;.A ;.Z Z Z Z Z Z Z :.S S 1.S 5.3.:.:.5.2.2.5.2.2.5.2.S :.",
"S S S Z >.>.Z >.Z ;.Z Z >.>.;.;.;.>.;.>.;.;.>.Z Z Z Z Z Z Z Z S S S S S 2.S S :.2.S :.5.:.:.:.S S S ",
"Z S Z Z Z Z Z Z Z Z Z Z ;.A ;.>.>.;.>.A >.;.>.;.Z Z A Z Z Z Z Z S S S S S S S S S S S :.S S G S S S ",
"Z Z Z Z Z Z Z Z Z Z Z Z ;.Z Z Z ;.;.>.;.>.;.A 1   b >.>.Z Z S S S S S S S S S S S S S S S S S S S S ",
"Z Z Z Z Z Z Z Z Z Z Z Z Z Z Z Z A ;.;.>.F A A 1   b D >.:.S D G D D S D G S S S S S S S S S S Z Z S ",
"Z Z Z Z Z Z Z Z Z Z Z Z Z Z Z Z A Z ;.>.J k.i.f %   1 J D J J D H H G L G J D D G S S S S S Z Z Z Z ",
"Z Z Z Z Z Z Z Z Z Z Z Z Z Z Z Z Z Z ;.A =.; u.f 7 *   X s.L L J L L L L L L H L K J S S S S Z Z Z Z ",
"Z Z Z Z Z Z Z Z Z Z Z Z Z Z Z Z Z Z Z F j.i.i.[ y 7 : X s.L L L L L L L L L J L L L D J F Z Z Z Z Z ",
"Z Z Z Z Z Z Z Z Z Z Z Z Z Z Z Z Z Z F #.e y.O.( y 7 2     *.J L J J L L L L L L L L J L F Z Z Z Z Z ",
"F Z Z Z Z Z Z F Z Z Z Z Z Z Z Z Z Z J f.i.r.~ Q ! d 7 4 . *.F J J F J J L J L L L L L L J Z Z D S Z ",
"F Z Z Z A Z J F A A A Z Z Z Z Z Z F k v e...! Q Q d 7 4 .   #.D ;.;.A F J J J L L L L L L F D H F S ",
"F F F J F F J J A J F >.D A Z Z Z F k r { Q Q Q ! d 7 7 7 O   k >.>.>.J D D J J F J J L L L J F F J ",
"F F F J F J H F F F <.F J F %.      x X.o.o.o.o.o.' Q Q Q Q 6   , l.;.D ;.;.F >.D H D J J J F <.F F ",
"F F F F F <.F <.F <.<.F F n   ; o.o.o.o.o.o.o.o.o.o.o.X./ Q Q i     a.;.;.>.>.A >.>.D D F F <.<.G H ",
"F F F F F <.<.<.<.<.<.<.h   z y.o.o.o.o.o.o.o.o.o.o.o.o.o._ Q Q U     %.>.;.;.>.>.>.>.D >.>.<.<.H H ",
"<.<.<.<.G x.<       # t.i.i.i.y.o.o.o.o.o...! Q Q Q Q ! .._ Q Q Q Q +   n Z >.;.Z >.>.>.Z A >.<.<.<.",
"<.<.<.<.G <.H q.0.i.i.i.@.o.o.o.o.o.X.' Q Q Q Q Q Q Q Q Q Q Q Q Q Q Q >   h D Z Z Z ;.Z Z Z >.<.<.<.",
"<.J <.<.L <.L l & 7 q | o.o.o.o.X./ Q Q Q Q Q Q Q Q Q Q Q Q Q Q Q Q Q y * 1 Z Z Z Z Z Z Z Z D <.J <.",
"<.L <.L L L L L #.o 7 7 7 R ' Q Q Q Q Q Q Q Q Q Q Q Q Q Q Q Q Q Q Q Q y 7 : @ g.Z Z Z Z Z F A L L <.",
"L L L L L L J L #.= T 8 7 7 y Q Q Q Q Q Q Q Q Q Q Q Q Q Q Q Q Q Q Q Q y 7 :     =.Z A H F J <.<.L L ",
"L L L L L L L l c w.Q ! w d Q Q Q Q Q Q Q Q Q Q Q Q Q Q Q Q Q Q Q Q + * 7 7 4 . =.Z J J J L L L L L ",
"L L m   < i.i.i.i.w.Q Q Q Q Q Q Q Q Q Q Q Q Q Q Q Q Q Q Q Q Q Q U .     % 7 4 .   #.J L L L L K J L ",
"J L L &.> i.i.9.X.O...! Q Q Q Q Q Q Q Q Q Q Q Q Q Q Q Q Q Q Q Q U   V C M o 7 7 o #.J L J J L J <.L ",
"J J J %.    2 ( X.o.o.o.) Q Q Q Q Q Q Q Q Q Q Q Q Q Q Q Q Q Q f 3   V C C B . 3 @ #.,.K ,.G K ,.:.H ",
"Z F F S a.    - 7 a o.o.) Q Q Q Q Q Q Q Q Q Q Q Q Q s . g ! Q P 3     N C B   3 o #.,.,.,.,.,.,.,.,.",
"S D D S S x.<   & 7 9 E Q Q Q Q Q Q Q Q Q Q Q Q Q Q s     p u 7 7 7 . N C B . 3 o #.,.,.,.:.,.S ,.:.",
"S S S S S S S l 5 Q Q Q Q Q Q Q Q Q Q Q p o E Q Q Q Q T o   & 7 7 7 7 O       3 O #.,.,.S ,.,.,.,.,.",
",.S S S Z S Z l 5 ! Q ! Q Q Q Q Q Q Q Q p @ T Q Q Q Q W 0 O   k d.9 7 3 7 8 7 7 O #.:.:.:.,.:.:.,.,.",
",.S S Z z.i.i.i.w.o. .! Q Q Q Q Q Q Q Q p o E Q Q Q Q Q ! t & k x.x.x.} 7 -     . #.,.:.:.G ,.G ,.S ",
"Z ,.S Z a.  2 ( o.o.o.o.( ! Q Q Q Q Q Q p o T ! Q Q Q Q Q t &   , l.x.x.x.x.x.x.j #.,.,.,.,.,.,.,.,.",
"Z Z Z Z Z x.< - 7 a o.o.) ! Q Q Q Q Q Q p . 4 I Q Q Q Q Q t & O 2   a.x.x.x.h.$ =.,.,.,.,.,.G :.:.:.",
"Z Z Z Z Z Z Z k   o 4 7 I Q Q Q Q Q Q Q p     : d Q Q Q Q t & O 7 7 o %.x.x.h.$ =.<.,.,.G G G :.>.Z ",
"Z Z Z Z Z Z Z Z Z =.o T Q Q Q Q Q Q Q Q p           o 7 7 O   O 7 7 7 % n p.@ g.H G ,.G ,.G J G ;.A ",
"Z Z Z Z Z x.<   c i.i.i.[ ! Q Q Q Q ! u 7 7 7 o             & 7 7 7 7 7 *   @ g.J J G L H J L G A F ",
"J A F Z F x.< } i.i.u.O.X.` d 7 7 7 7 7 7 7 7 7 7 7 7 7 7 7 7 7 7 7 7 7 * h J J L L L L J L L J J L ",
"K F L F L J J ^ 7 7 q  .o.Y 7 7 7 7 7 7 7 7 7 7 7 7 7 7 7 7 7 7 7 7 7 O n J J L L L L J L L L J J L ",
"L L L L L x.< } ] 7 7 7 7 d d 7 7 7 7 7 7 7 7 7 7 7 7 7 7 7 7 7 7 7 o     1 L J L L L L L L L L L L ",
"L L L L a.  q.i.+.I 7 7 7 7 7 7 7 7 7 7 7 7 7 7 7 7 7 7 7 7 7 7 2   2 7 -       =.L L L L J L L L L ",
"L L L J a.. f ! Q Q T 8 7 7 7 7 7 7 7 7 7 7 7 7 7 7 7 7 7 7 7 - . 7 7 7 7 - @ g.J L L L L L L L L L ",
"L J J L F x.< i Q Q T 8 7 7 7 2     - 7 7 7 7 7 7 7 7 7 7 O & 7 7 7 7 7 *   @ d.F J J L L L L L J J ",
"J J J J J x.< i Q Q Q Q w 7 4 2       & 7 7 7 7 7 7 7 7 7 O & 7 7 7 7 %   h S ;.A F J L L J J J J F ",
"J F F F F F J l 5 Q T 8 7 %     X s.H F F ;.;.>.;.;.>.l.,   & 7 7 7 7 % n Z Z Z Z Z J L J J J J F J ",
"F J J F F J F l   = T 8 o $.<.<.<.<.G J G F Z ;.>.Z ;.Z Z j & 7 7 7 o   n Z Z Z Z Z F J F F J J J J ",
"F H H <.<.<.<.<.#.o 7 7 o $.<.<.<.<.D G Z Z Z Z Z Z Z Z Z Z m O 7 7 o %.Z Z Z Z ;.Z ,.H J F H J H H ",
"D F <.<.<.<.<.<.<.=.    -.<.,.,.<.<.<.Z Z Z Z Z Z Z Z Z Z Z Z &.    a.Z Z ;.Z Z 1.:.2.1.F >.1.F <.<.",
"1.<.<.<.<.<.<.<.<.=.    -.,.,.;.>.,.Z Z Z Z Z Z Z Z Z Z Z Z Z Z Z ;.Z Z ;.1.;.1.2.2.5.5.2.5.2.1.2.1.",
"2.<.<.,.,.<.,.<.<.,.:.G :.;.,.;.A G Z Z Z Z Z Z Z Z Z Z Z Z Z Z Z 5.2.Z 1.5.1.5.5.5.5.5.5.5.2.2.2.1.",
"5.2.G >.G S ,.,.:.;.;.>.>.;.>.A >.;.>.Z Z Z Z Z Z Z Z Z Z Z Z 1.>.5.5.5.5.5.5.5.5.5.5.2.2.5.2.5.5.5.",
"8.7.7.6.6.6.8.6.6.8.6.6.4.>.>.,.>.;.>.A >.<.S Z ;.Z Z S Z Z D 1.1.2.3.1.2.1.>.3.3.3.1.2.1.3.3.1.3.1."
};
