/* XPM */
static char *result[] = {
/* columns rows colors chars-per-pixel */
"50 50 182 2 ",
"   c #020103",
".  c #05000A",
"X  c #09030E",
"o  c #0B0B0B",
"O  c #0B0013",
"+  c #0F0816",
"@  c #0D0119",
"#  c #10011E",
"$  c #160F19",
"%  c #141414",
"&  c #1D1D1D",
"*  c #130123",
"=  c #1A0C27",
"-  c #160129",
";  c #19022E",
":  c #1F132A",
">  c #1C0234",
",  c #1F023A",
"<  c #231A2A",
"1  c #22033D",
"2  c #240D39",
"3  c #241335",
"4  c #291639",
"5  c #242424",
"6  c #2A232E",
"7  c #2A2A2A",
"8  c #2D2233",
"9  c #343235",
"0  c #3B3B3B",
"q  c #590030",
"w  c #67002B",
"e  c #6A0033",
"r  c #240343",
"t  c #270348",
"y  c #29034C",
"u  c #2C0B49",
"i  c #2F1A43",
"p  c #341C4A",
"a  c #361A4C",
"s  c #2D0452",
"d  c #320857",
"f  c #360B5B",
"g  c #391658",
"h  c #362742",
"j  c #3D3247",
"k  c #3D2356",
"l  c #3A0F61",
"z  c #3D1362",
"x  c #3F1861",
"c  c #502E5F",
"v  c #4C3A58",
"b  c #411669",
"n  c #45196D",
"m  c #4A1D72",
"M  c #492766",
"N  c #4C296B",
"B  c #502D6E",
"V  c #573964",
"C  c #4E2374",
"Z  c #542C73",
"A  c #552977",
"S  c #53257C",
"D  c #592A79",
"F  c #58307D",
"G  c #663D79",
"H  c #424242",
"J  c #4E4E4E",
"K  c #514A58",
"L  c #555555",
"P  c #5A5A5A",
"I  c #635867",
"U  c #6B4E76",
"Y  c #646464",
"T  c #6B6B6B",
"R  c #716677",
"E  c #747474",
"W  c #79757C",
"Q  c #7B7B7B",
"!  c #890039",
"~  c #9B0041",
"^  c #C00050",
"/  c #CB0055",
"(  c #FF006B",
")  c #99DA79",
"_  c #A1DF7A",
"`  c #9AE179",
"'  c #A3E37D",
"]  c #ABE67A",
"[  c #A4E87E",
"{  c #ACE87C",
"}  c #B3EC78",
"|  c #B6F07C",
" . c #B9F179",
".. c #562880",
"X. c #5B2C85",
"o. c #5F2F89",
"O. c #5B3181",
"+. c #62338C",
"@. c #693889",
"#. c #673692",
"$. c #6B3A97",
"%. c #6D3C98",
"&. c #703E9A",
"*. c #784D89",
"=. c #755382",
"-. c #75419D",
";. c #794598",
":. c #7D698B",
">. c #7B47A1",
",. c #7E49A3",
"<. c #825896",
"1. c #837489",
"2. c #886A9A",
"3. c #834DA4",
"4. c #8751A8",
"5. c #8B53AB",
"6. c #935EA7",
"7. c #8E5DB1",
"8. c #955CB2",
"9. c #985EB4",
"0. c #9667A6",
"q. c #9876A5",
"w. c #9C64B4",
"e. c #A077AF",
"r. c #A266BA",
"t. c #A56ABD",
"y. c #A86BBE",
"u. c #A579B5",
"i. c #AC70C4",
"p. c #B37ACC",
"a. c #B97DCF",
"s. c #868686",
"d. c #868089",
"f. c gray55",
"g. c #959595",
"h. c #979798",
"j. c #9B9B9B",
"k. c #9988A8",
"l. c #A990B7",
"z. c #A3A3A3",
"x. c #AEAEAE",
"c. c #B4B4B4",
"v. c #BBBBBB",
"b. c #9FDF80",
"n. c #9FE681",
"m. c #A0E180",
"M. c #A1E880",
"N. c #A8E880",
"B. c #A5E68A",
"V. c #A6E88C",
"C. c #A8EA8B",
"Z. c #B1E18C",
"A. c #A8E890",
"S. c #C2E49C",
"D. c #C5E89C",
"F. c #C4E7A1",
"G. c #B689C7",
"H. c #BD82D3",
"J. c #B2A3C0",
"K. c #C589DB",
"L. c #CA96DD",
"P. c #C6B2CD",
"I. c #CF92E4",
"U. c #D69AEB",
"Y. c #DDA2F2",
"T. c #E4A8FA",
"R. c #EAAEFF",
"E. c #E8BCF9",
"W. c #C3C3C3",
"Q. c #CDCDCD",
"!. c #CFC5D2",
"~. c #D3D3D3",
"^. c #DBDBDB",
"/. c #DEC6E7",
"(. c #EDDDF2",
"). c #F4D7FF",
"_. c #E3E3E3",
"`. c #E8E3EB",
"'. c #EBEBEB",
"]. c #EDE9F0",
"[. c #FCF5FF",
"{. c #FDFDFD",
/* pixels */
"B.M.A.A.A.A.A.A.A.A.V.V.A.A.V.V.V.n.n.n.) ) ) ) ) ) ) ) m.m.b.m.b.b.m.b.m.b.b.m.b.b.m.b.) b.) b.B.V.",
"` ` V.A.V.V.A.V.V.A.V.n.V.A.` n.V.` n.n.) ) ) ) ) ) b.b.b.b.m.b.m.b._ m.b.m.b.b.b.m.b.m.) ) b.) ) B.",
"` ` n.V.n.n.V.M.` n.` ` n.n.` ` ` ` ) ) ) ) ) ) ) ) ) m.b.m.b.m.b.b.b.b.m.m.b.b._ _ _ _ ) ) ) ) ` ` ",
"` ` ` n.` ` n.` ` ` ` ` ` ` ` ` ` ` ` ) ) ) ) _ Y + H M.m._ b.m.b.b.b.) b.b._ _ b.) b.) ) ) ) ) ` ) ",
"` ) ` ` ` ` ` ` ` ` ` ` ` ` ` ) ` ` ` ` ) ` b.m.Y   0 b.m.b.b.b.) _ _ _ ) ) ) ) ) ) ) ) ) ) ) ) ) ) ",
"` ) ` ` ` ) ` ` ` ` ` ` [ [ ' ` ` ` ' [ ' m.' J o # Z E.[.] b.b.) ) _ _ ) ) ) ) ) ) ) ) ) ) ) ) ) ) ",
") ) ) ) ` ` ` ` ` { [ ` } [  .' { { '  .{ _.7 o - y D T.j v.m.m.) ) ) ) ) ) ) ) ) ) ) ) ) ) ) ) ) ) ",
") ) ) ) ) ` ` ` }  . .{  .}  . . . .}  . .^.o > y b 3.T.L.(.] _ ) ) ) ) ) ) ) ) ) ) ) ) ) ) ) ) ) ) ",
") ) ) ) ) ] { [  . . . . . . . . . . . .v.5   r s n >.p.T.I g._ ) ) ) ) ) ) ) ) ) ) ) ) ) ) ) ) ) ) ",
") ) ) ) ) ]  .|  . . . . . . . . .}  .} x.. 1 y m +.%.,.Y.L./.N.) ) ) ) ) ) ) ) ) ) _ ) ) ) ) ) ) ) ",
"` ) ) ) ) }  . . . . . . . .} } ] ] } j.5 . y s S $.$.%.i.U.2.W ) ) ) ) ) ) ) ) ) ) _ _ ) ) _ ) ) _ ",
"] ] ] ` ]  . . . .}  .} ] } ] ' ' ' Q & O r s s S $.$.$.;.t.V L _ ) ) ) ) ) ) _ _ ) } _ _ ) ] _ ] ] ",
"} ] { }  . . .}  .] } } _ m.] b.[.P % 4 A X.X.X.3.9.9.8.9.r.6.U H H H c.` ' ' ] ] ] } ] ] ] } ] ] } ",
"} ] [ ] } } } ' ] ' ' ] m.m.' ~.H o p F $.&.8.9.r.y.t.i.i.t.t.6.*.*.$ 7 g.{ { { _ } ] } { } ] } ] ] ",
"] ] [ [ ] ] ' b.' m.m.m.m._ v.0   k o.%.-.9.t.t.t.t.t.t.y.y.t.y.y.y.e.v & Q ] [ { ] ] ] N.N.{ { ] ] ",
"] ] [ ] ' M.m.m.` m.b.b.m.j.9 O M +.%.%.>.r.3.3.>.3.3.3.r.y.y.y.y.y.U.G.e.G.E.I J J J T {.N.N.N.] [ ",
"N.N.N.m._ b.m.m.m.) ) M.Q 5 = N %.$.$.$.-.-.%.$.$.$.$.%.-.,.7.y.t.t.a.K.a.K.T.u.e.<.1.c.{.N.N.N.M.] ",
"N.N.N.b.) ) ) ` ) ) m.) H # g %.%.%.$.$.$.$.%.$.$.$.$.$.%.%.-.3.4.t.t.t.y.i.a.;.@.V 1.] N.{ N.N.N.' ",
"{ } N.) ) ) ) ) ) ) '.T 4 t n %.$.$.$.$.$.$.$.$.$.$.$.$.$.$.$.$.%.3.3.9.3.D D d ; I W.} }  .{ { { N.",
"N. .} ) _ _ ) ) ) ~.P   1 d n %.$.$.$.$.$.$.$.$.$.$.$.$.$.$.$.$.$.$.$.o.n s d C = s. . . . .Z.] | } ",
" . .D.] } { { ) ) c.  ; t s u a $.$.$.$.$.$.$.$.$.$.$.$.$.$.$.$.$.$.$.X.b f A #.<.R j. . . . .}  . .",
" . . . . .} } } v.J . y s , O X i o.$.$.$.$.$.$.$.$.$.$.$.$.$.$.$.$.$.$.o...$.$.K.G.l.).).1.T x. . .",
" .}  . . . . .} s.X ; y ; q ! e   O.%.$.$.$.$.$.$.$.$.$.$.$.$.$.$.$.$.$.$.$.%.4.p.K.U.R.R.8 L W. . .",
"} {  . .} }  .} s.@ y - e / ( ^   x o.%.$.$.$.$.$.$.$.$.$.$.$.$.$.$.$.%.%.&.5.t.t.t.9.<.U $ z. . .} ",
"} [ M.| M.[ [ [ s.@ t   ^ ( / w   t ..$.$.$.$.$.$.$.$.$.$.$.$.F g $.$.%.%.;.t.y.;.@.M #   T ~.} } ] ",
"M.` M.M.M.M.M.[ s.@ t   ^ ( ~ . - s z X.$.$.$.$.$.$.$.$.$.$.$.F p p O.%.%.-.4.#.x 1 @ % Q _.` ] ] ) ",
"M.M.M.` M.M.M.M.s.@ t   w ! q > s s s z ..$.$.$.$.$.$.$.$.$.;.4.;.p p D $.$.$.C m 3 7 f.{.` ` ` ' ` ",
"[ M.M.M.M.M.M.[ s.@ y - * * > s d :.k r z $.$.$.$.$.$.$.$.$.>.8.t.i.=.v N $.$.$.$.i L ` ` ) ` ` ` ` ",
"n.[ n.n.[ M.n.[ s.X ; ; y d B 2.2.].L - z $.$.$.$.$.$.$.$.$.$.>.9.I.T.0.V M $.3.3.*.q.).).{.) ` ` [ ",
"n.n.n.[ M.n.n.n.s.& T Y :.:.J.{.{.z.j , f ..$.$.$.$.$.$.$.$.$.$.&.5.K.I.U + M w.y.H.H.0.2.`.) ` ` ' ",
"n.n.n.n.M.n.n.n.c.E z.{.{.{.{.'.h.3 r s s d S #.$.$.$.$.$.$.$.$.$.$.4.r.G @ o 6.3.;.Z 4 Y ^.) M.M.) ",
"` [ n.n.[ n.n.[ n.c.& '.{.{.^.d.# t s s s s s m +.o.S S ..+.$.$.$.$.$.&.D 1 . @.a > h Q {.) ) ) ) ) ",
"` n.n.[ [ [ [ [ M.Q.Y j.'.Q.T - s s s s s s s s n z > , y m S X.$.$.X.z t 2 3 ; H P f.) ) ) ) ) ) ) ",
"n.n.[ [ { ` [ [ [ [ _.o Q L ; s s s s s s s s s s , @ @ > t s l ....f r * 3 5.V P.!.x.v.{.) ) ) ) ) ",
"} ` [  . .{ } [ |  .'.P % ; s s s s s s s s s s s s s y * ; , r s s , O $ K U.R.R.q.< 7 {.) ) ) ) _ ",
" .[ }  . . . .}  . .} } E i r y , , , , r s s s s s s s s - O * , , . X c y.y.p.a.p.0.T {.] ) ] _ } ",
" . .}  . . .}  . . . .} { g.9 >   O O O - s s s s s s s s s s 1 @ @ @ > C 3.;.f y M k.} }  .{  .]  .",
" . . . . . .}  . .'.W.[.[ ^.W O O t s s s s s s s s s s s s s s s s s s s s s s r k.}  . . . . . .} ",
" . . . . . . . ._.f.% v.W.L * s s s s s s s 1 y s s s s s s s s s s s s s y 1 1 O T ^. . . . . . . .",
" . . . . . . . .s.  X O X O - s s s s s s t   1 s s s s s s s y r r y r r , X O   & Q  . .} }  . . .",
"} }  . . . . . .j.8 r y s s s s s s s s s t   r s s s s s s t ;     r - X * s r O s.} } } }  .}  . .",
"} } } } } }  .} ] v.7 r y s s s s s s s y 1 X r s s s s s d 4 7 5   > y s s t . & j.] } } ] } } ] } ",
"} } } ] } }  .] ) ` `.9 2 y s s s s s y 2 6 M N N N N N N N l.{ ^.7 X - t s y . c.} ] { ] ] ] } ] } ",
"] } } } ] } } ] ) ) ) ) L 2 t y s s t 3 Y ) ) m.) m.) ` ] [ { N.{ [ J o * s u < v.} { ] } ] ] } } { ",
"] ] ] ] N.{ } M.) ) ) ) ) Q % O t t : s.) ) ) ) ) ) ) ) ' ) ] { N.N.N.Y * y g `.N.[ N.N.] N.N.] { N.",
"] ' } N.A.M.B.V.B.B.) ) ) ) z.% + + c.) ) ) ) ) ) ) ) ) _ ) ) N.N.M.M.T = 1 5 _.N.N.N.N.] N.N.N.N.N.",
"B.V.B.V.A.B.A.A.V.V.B.b.B.b.) ) ) ) ) ) ) ) ) ) ) ) ) ) ) ) ) m.M.m.m.n.h.J M.M.M.N.N.N.N.N.N.N.N.V.",
"B.A.A.V.A.A.A.A.A.A.A.V.A.V.b.A.b.) ) ) ) ) ) ) ) ) ) ) ) ) ) b.M.b.n.M.m.n.' M.M.M.N.M.N.N.M.N.M.V.",
"V.A.A.A.A.V.A.A.V.V.A.A.A.A.V.V.A.B.m.) ) ) ) ) ) ) ) ) ) ) ) m.b.b.b.m.b.b.M.b.b.m.M.m.M.M.' ' V.V.",
"M.V.V.C.V.B.C.B.B.C.C.B.B.C.B.C.C.B.B._ ) ) ' ) ) ) ) ` M.m._ m.m.m.' M.m.Z.S.S.F.S.S.S.S.S.S.D.D.F."
};
