/* XPM */
static char *result[] = {
/* columns rows colors chars-per-pixel */
"50 50 204 2 ",
"   c #020101",
".  c #0B0304",
"X  c #090A06",
"o  c #0B0C0B",
"O  c #170A08",
"+  c #0E130B",
"@  c #17140B",
"#  c #131A0E",
"$  c #0B0F10",
"%  c #191915",
"&  c #27080E",
"*  c #26160B",
"=  c #3A0915",
"-  c #261D16",
";  c #381319",
":  c #2A2413",
">  c #23311B",
",  c #1D2320",
"<  c #0E2F31",
"1  c #232929",
"2  c #313126",
"3  c #262938",
"4  c #2C3336",
"5  c #36383D",
"6  c #333C3C",
"7  c #4C0B1B",
"8  c #491518",
"9  c #48390D",
"0  c #4F3018",
"q  c #52341A",
"w  c #5A351C",
"e  c #693C0B",
"r  c #690F26",
"t  c #6A1424",
"y  c #791626",
"u  c #721129",
"i  c #4C2C28",
"p  c #483528",
"a  c #593929",
"s  c #593937",
"d  c #732F2E",
"f  c #683939",
"g  c #743036",
"h  c #7B3B3B",
"j  c #364C2B",
"k  c #3C403E",
"l  c #385131",
"z  c #6F4B11",
"x  c #4E4F32",
"c  c #555831",
"v  c #764826",
"b  c #624937",
"n  c #625531",
"m  c #476638",
"M  c #506E3E",
"N  c #55723E",
"B  c #2E3D46",
"V  c #3A3A43",
"C  c #403642",
"Z  c #503B40",
"A  c #154A52",
"S  c #344244",
"D  c #394243",
"F  c #2B475D",
"G  c #354C54",
"H  c #3D5A6E",
"J  c #494649",
"K  c #54514B",
"L  c #484B52",
"P  c #575558",
"I  c #6E4E47",
"U  c #536E4A",
"Y  c #557642",
"T  c #726F4D",
"R  c #725A65",
"E  c #6E7478",
"W  c #871C2D",
"Q  c #962430",
"!  c #992C32",
"~  c #8C3938",
"^  c #A52D32",
"/  c #AC2E34",
"(  c #B22F36",
")  c #A83333",
"_  c #BB3333",
"`  c #BF3738",
"'  c #BA3A38",
"]  c #C03535",
"[  c #C03837",
"{  c #C13838",
"}  c #8A5129",
"|  c #885236",
" . c #CA4F31",
".. c #CD453C",
"X. c #87374E",
"o. c #C03F41",
"O. c #8E484D",
"+. c #8A5548",
"@. c #BF4C52",
"#. c #BD565E",
"$. c #8D674B",
"%. c #8D7758",
"&. c #937051",
"*. c #92765F",
"=. c #A9715D",
"-. c #825062",
";. c #8F7564",
":. c #A8746C",
">. c #BD6571",
",. c #D85040",
"<. c #C14A53",
"1. c #E25A43",
"2. c #EC6447",
"3. c #F06848",
"4. c #CB6265",
"5. c #5B8148",
"6. c #658A4A",
"7. c #6B9755",
"8. c #739256",
"9. c #78A65E",
"0. c #74AB5C",
"q. c #7AAC63",
"w. c #7EB765",
"e. c #A98100",
"r. c #CA9A00",
"t. c #8C965D",
"y. c #BF855C",
"u. c #89A85D",
"i. c #A2AB5F",
"p. c #B88763",
"a. c #AB8071",
"s. c #91AC67",
"d. c #9CAD66",
"f. c #88BA68",
"g. c #C28B63",
"h. c #D39B74",
"j. c #D7A078",
"k. c #DDA57D",
"l. c #90C56D",
"z. c #8EC871",
"x. c #92CC73",
"c. c #98C973",
"v. c #95D375",
"b. c #9BD374",
"n. c #98DB77",
"m. c #99D779",
"M. c #99DA79",
"N. c #ADDB70",
"B. c #A9DD73",
"V. c #A1DF7B",
"C. c #9AE179",
"Z. c #AAE175",
"A. c #A3E27C",
"S. c #ABE67A",
"D. c #A4E87E",
"F. c #ACE87C",
"G. c #B3E875",
"H. c #B3EB78",
"J. c #B6F07C",
"K. c #B9F179",
"L. c #3F6583",
"P. c #436C8D",
"I. c #757685",
"U. c #A77387",
"Y. c #BD7B8D",
"T. c #8B859D",
"R. c #BD9C8A",
"E. c #928BA5",
"W. c #9899AA",
"Q. c #AF93B2",
"!. c #B79CB6",
"~. c #C88C9B",
"^. c #DCA781",
"/. c #CAA495",
"(. c #E4B18E",
"). c #E6B596",
"_. c #9FDF80",
"`. c #9FE681",
"'. c #A0E280",
"]. c #A2E880",
"[. c #A8E980",
"{. c #A5E68A",
"}. c #A6E88C",
"|. c #A8EA8B",
" X c #B1E18C",
".X c #B0F080",
"XX c #A8E890",
"oX c #C2E49C",
"OX c #C5E89C",
"+X c #ECC1A5",
"@X c #EEC6AD",
"#X c #F5CCB3",
"$X c #FBD3BB",
"%X c #C4E7A1",
"&X c #B7AECE",
"*X c #B9B3D3",
"=X c #B9B4D5",
"-X c #C5C4D6",
";X c #CBCDDA",
":X c #FAD7C4",
">X c #C8C4E0",
",X c #D5D2E9",
"<X c #EDEAF7",
"1X c #E9E9FA",
/* pixels */
"}.{.A.`._.'._.'.'._._.'._._.'.'._.V._._._._.b.V.m.m.m.M.m.n.M.{.D.}.}.}.}.XX}.}.XXXXXXXX}.XXXX}.].}.",
"{.C.C.M._._._.V._.'.'._._.'.'._.'.'.'.'._._._._.M.m.m.M.n.m.M.C.C.].`.`.XX}.C.}.XX}.}.XX}.}.XX}.C.C.",
"C.C.C.M.'.'.M.'.M._.`._.'._.'.'._._._.V.m._._._.v.v.v.v.v.b.M.n.C.C.C.C.}.C.C.`.}.C.}.}.`.].}.C.C.C.",
"n.C.n.n.M.M.M.M.M.M.m.`._.V._._._._.d.g g g g g g g g g g g g f.n.C.n.C.C.C.C.C.C.C.C.`.C.C.`.C.C.C.",
"n.m.n.m.m.M.m.M.n.M.m.m.V.M.M.c.t.s.%.W Q ! ! ! ! ! ! ! ! Q W %.t.t.c.C.C.C.C.C.C.C.C.C.C.C.C.C.C.C.",
"m.n.m.m.M.m.m.m.n.m.m.n.M.M.M.t.u u W ` 1.3.3.3.3.3.3.3.3.1.{ W u t t.Z.D.C.C.C.C.C.C.C.C.C.C.n.n.C.",
"v.m.m.m.n.m.n.m.m.m.m.n.m.v.j a / / ` 1.2.3.3.3.3.3.3.3.3.3.1.' ) / w m C.K.C.D.D.C.C.C.C.C.n.n.n.n.",
"n.m.v.n.m.n.m.n.v.m.n.m.m.x.+ 8 { { ,.2.3.3.3.3.3.3.3.3.3.3.3...] ] 8 # Z.K.F.K.J.D.C.C.C.n.n.n.n.n.",
"m.n.m.m.m.n.m.m.m.m.n.m.M.v.# 8 { ` ..3.3.3.3.3.3.3.3.3.3.3.3...` { 8 # H.K.G.K.K.K.D.F.S.m.m.m.v.n.",
"n.m.n.m.m.n.n.M.m.n.m.n.u.I 8 y { ` ..3.3.3.3.3.3.3.3.3.3.3.3...` { y 8 +.i.K.K.K.K.J.K.S.M.M.M.n.m.",
"S.M.n.M.m.M.V.Z.M.m.M.m.$.r y Q { ` ..2.3.3.3.3.3.3.3.3.3.2.2...` { Q y t %.K.K.K.K.K.K.H.n.m.A.M.`.",
"H.A.A.F.A.V.S.S.V.A.F.M.M . ^ [ ` { ` { 1.3.3.3.3.3.3.3.3.1.{ ` ` ` ` ) . N K.K.K.K.K.K.K.S.A.G.S.'.",
"G.S.S.G.S.S.S.H.S.S.F.A.M . ) [ { { ` { ..,.,.,...1. ...,...{ { ` { { ) . M H.H.S.H.H.K.K.K.G.F.F.F.",
"S.F.H.S.S.G.G.S.F.F.[.F.N . ^ [ { ` { ` ` ` { ` { { { ] { { { { { ] ` ^ . U S.'.A.F.A.G.H.G.[.[.S.H.",
"[.[.F.S.[.[.S.[.[.[.[.F.Y   r Q { { ` { ` ` ` o.{ ] _ ] ` { { ` ' { Q t   Y _.'.'.'.A.D.F.F.A.[.D.S.",
"[.[.[.[.[.[.[.[.[.[.V.u.c * = t ^ ' ` { ` o.>.>.4.4.>.>.<.[ ` { _ ^ t 7 O c u.m.V.'.'.'.'._.[.[.[.F.",
"[.[.[.[.[.[.[.[.[.[.b.w 0 0 X & u ( ] ` ` @.&X*X&X*X*X&X@.] ` { / u & . 0 0 q c.M.V._._.M.A.A.[.[.[.",
"[.[.[.[.[.[.F.F.F.S.B.w | p.X C Q.X.W y U.!.*XY.@.@.Y.*X!.U.W y X.Q.C . p.| 0 c.m.V.V.M.M.M.`.[.[.[.",
"[.[.[.F.H.[.J.F.[.K.N.w &.j.- V U.-.X.-.Q.>X-X~.4.4.~.=X>X!.X.X.-.T.V - j.&.a c.m.M.m.M.M.m.A.[.H.[.",
"J.K.F.J.K.J.K.K.J.K.N.I =.j.J 1   E.>X<X1X1X1X1X1X1X1X1X1X1X1X>XE.  1 K j.=.b c.m.m.M.M.V.A.M.J.K.[.",
"K.K.K.K.K.K.K.K.K.K.G.i.T q k 6 3 B L E -X1X1X1X1X1X1X1X1X-XE L 5 1 5 D 2 T s.v.m.m.C.F.F.J.F..XK.K.",
"K.K.K.K.H.K.K.K.K.K.K.K.6.# 4 l K @ , L W.-X;X;X;X;X;X;X;XW.L % % K 5 2 # 5.M.M.m.n.G.G.F.K.K.K.K.K.",
"K.K.K.K.K.K.K.K.H.J.K.K.G.B.@ x h.+.-.=XC $ D V D D D D $ V &X-.+.j.s # x.m.n.n.m.A.G.K.K.K.K.K.H.K.",
"H.K.K.H.H.H.K.K.H.H.K.H.G.N.# # b :./.,XJ o *.*.*.*.*.;.+ J ,X/.a.b % # v.M.C.C.n.D.J.K.G.J.K.G.[.H.",
"S.H.K.S.C.G.G.C.D.S.C.G.S.v.> X   R.:X1XP : j.^.^.^.k.k.: P 1X:XR.  o , n.`.C.`.C.C.D.J.D.D.D.D.`.J.",
"C.S.Z.n.C.C.C.C.C.C.C.C.Z.C.n.5.  f :.:X@X@X#X#X#X#X#X#X@X@X:X:.f   5.n.C.`.`.].].`.D.].].D.D.].`.].",
"n.A.A.C.C.n.C.n.n.C.C.C.C.C.n.0.l p s ;./.+X$X@X).).#X$X+X/.;.s p m w.`.].].].].].`.`.`.].].].`.`.].",
"C.C.C.C.C.C.C.C.n.C.C.n.C.C.C.n.C.>     $.^.@X(.h.h.(.#Xk.$.    > ].].`.].].].].].`.`.D.`.].D.].`.`.",
"`.C.C.C.n.C.C.C.n.`.n.C.C.n.n.q.S 4 x } 9 * - s +.O.f - % 9 e.* > }.].].`.].].].].].].].].`.`.].].].",
"`.`.C.M.n.C.n.C.n._._.n.M.v.0.U 4 B n r.e * V s f K s 5 ; e r.9 > 7.b.]..X].].].].].].].].].].`.].C.",
"M.].C.m.M.M.n.n.n.M.M.`.m.x.@ % S x n r. .@.*XI.6 6 E *X@. .r.n 3   7.]..X].].].].C.].`.].].].].].].",
"M.M.m.m.m.n.m.n.n.m.m.n.6.> &.$.n : : z ~ O.#.U.W.W.U.#.X.} z x 6 1 0..X.X]..X.X].].`.].].].].].].C.",
"m.m.m.m.m.M.m.m.n.v.v.m.m X p.y.| * @ w a d _ Y.*X*XY._ g a w b K J 8.b.[..X.X.X[.[.`.].`.D.D.D.'.m.",
"m.n.m.n.M.m.n.n.m.m.n.n.M X p.h.h.: * } * O _ Y.*X*XY._ & * } y.j.j.I V B..XH..X[.[.D.F.].D.H.]._._.",
"M.M.C.m.M.M.M.M.M.v.m.m.f.Y x a a N T } * & _ Y.*X*XY._ O * | g.^.+X;.x B.H.G.G.H.H.F.K.F.J.J.F.'.G.",
"H.A.F.M.S.A.A.M.n.n.m.n.m.v.> + # f.f.v : & _ Y.*X*XY._ = * v g.(.:X*.b B.G.H.H.K.K.J.J.H.K.J.H.F.K.",
"J.F.K.F.K.H.H.S.M.M.M.M.m.m.x.x.x.M.q.  i X.] R.=X=XY.] | i   R.$X:XK # B.G.H.K.K.K.K.K.K.K.K.H.H.K.",
"K.K.K.K.K.H.K.H.V.m.M.M.m.n.M.M.m.V.9.  C P h R I.I.R h Z i % P T ;.T Y B.S.K.K.K.K.K.K.K.K.K.K.K.K.",
"K.K.K.K.K.K.K.K.S.M.A.S.M.M.'.'._.'.q.  B P.G k S 6 6 6 B 3 3 $ o   8.[.`.F.H.F.K.G.K.K.K.K.K.K.K.K.",
"K.K.H.K.K.K.K.H.F.F.F.H.F.'.F.'.'.'.9.  F P.L.G k o < A A <   6.z.z.m._._.F.F.V.K.K.K.G.K.K.K.K.K.K.",
"K.H.H.H.H.H.H.H.H.H.S.G.G.S.H.F.F.S.l.l S F H S 1 l j < < < l f._._._._._.A._._.S.G.K.K.K.H.K.K.H.K.",
"H.H.H.H.G.H.S.G.S.G.S.[.F.S.F.S.S.S.G.Z.j o k % $ _.Y     l ].M._.'.V.M._._._.`.C.Z.H.K.K.H.G.K.H.S.",
"H.G.F.G.S.G.H.S.G.F.[.[.[.[.[.F.F.F.f.> d ! ) 8 + x.x.q.q.l.M.M.M.M.M.n.M.'.m.C.C.M.H.K.G.G.H.H.G.G.",
"F.G.G.F.F.S.F.D.F.F.[.[.[.[.[.[.F.F.9.  y ) ' 8 + x.'.M.M.M.M.m.M.M.m.M.m.M.m.m.M.M.S.H.H.S.H.G.S.H.",
"[.F.F.[.A.F.[.[.D.[.[.D.[.[.[.[.[.[.9.  7 u u & o z.C.M.n.v.m.n.M.M.n.m.m.n.m.M._.M.].F.S.[.F.F.S.F.",
"].[.[.[.[.[.[.[.[.[.[.].`.'.[.'.'.[.m.7.2 & & m 7.v.m.m.m.n.m.m.M.m.m.n.m._.m.n.{.].}.{.F.}.{.F.[.[.",
"}.[.[.[.[.[.[.[.[.].[.`.'.'.`.`.`.'.`.M.x % # 6.n.M.m.n.n.m.m.M.m._.M.m._.{._.{.}.XXXX}.}.XX}.].|.|.",
"}.].[.'.].[.`.[.[.`.].`.D._.`.`.`.`._.n.v.v.v.v.m.M.v.n.M.m.M.M.M.XX}._.{.XX{.XXXXXXXXXXXXXXXXXX}.{.",
"XX{.[.'.'.].C.'.`._._.'.'._._._.`.V._.M.M.M.m.M.M.m.M.m.m.m.M.{.'.XXXX}.XXXXXXXXXXXXXXXXXXXXXXXXXXXX",
"%XOXOXoXoXOX%XOXoX%XoXoX X'.[.'.'._.].M.'.[.C.M.M._.M.A.C.n.C.{.{.}.|.{.|.{.{.|.}.].{.|.{.|.}.].{.{."
};
