/* XPM */
static char *result[] = {
/* columns rows colors chars-per-pixel */
"50 50 200 2 ",
"   c #020101",
".  c #0B0304",
"X  c #090A06",
"o  c #0B0C0B",
"O  c #170A08",
"+  c #0E130B",
"@  c #1E120A",
"#  c #141A0E",
"$  c #0B0F10",
"%  c #191915",
"&  c #27080E",
"*  c #26160B",
"=  c #3A0915",
"-  c #261D16",
";  c #381319",
":  c #2A2413",
">  c #23311B",
",  c #1D2320",
"<  c #0E2F31",
"1  c #222A28",
"2  c #373328",
"3  c #262938",
"4  c #2D3336",
"5  c #36383D",
"6  c #333C3C",
"7  c #4C0B1B",
"8  c #491518",
"9  c #48390D",
"0  c #4F3018",
"q  c #52341A",
"w  c #5A351C",
"e  c #693C0B",
"r  c #690F26",
"t  c #6A1424",
"y  c #791626",
"u  c #721129",
"i  c #4C2C28",
"p  c #483528",
"a  c #593929",
"s  c #593937",
"d  c #732F2E",
"f  c #683939",
"g  c #743036",
"h  c #7B3B3B",
"j  c #364C2B",
"k  c #3C403E",
"l  c #385131",
"z  c #6F4B11",
"x  c #4E4E32",
"c  c #555831",
"v  c #764826",
"b  c #624B35",
"n  c #605931",
"m  c #476538",
"M  c #54733E",
"N  c #5A753D",
"B  c #2E3D46",
"V  c #3A3A43",
"C  c #403642",
"Z  c #503B40",
"A  c #154A52",
"S  c #344244",
"D  c #394243",
"F  c #2B475D",
"G  c #354C54",
"H  c #3D5A6E",
"J  c #494649",
"K  c #54514B",
"L  c #484B52",
"P  c #575558",
"I  c #6E4E47",
"U  c #557744",
"Y  c #71704D",
"T  c #725A65",
"R  c #6E7478",
"E  c #871C2D",
"W  c #962430",
"Q  c #992C32",
"!  c #8C3938",
"~  c #A52D32",
"^  c #AC2E34",
"/  c #B22F36",
"(  c #A83333",
")  c #BB3333",
"_  c #BF3738",
"`  c #BA3A38",
"'  c #C03535",
"]  c #C03837",
"[  c #C13838",
"{  c #8A5129",
"}  c #885236",
"|  c #CA4F31",
" . c #CD453C",
".. c #87374E",
"X. c #C03F41",
"o. c #8E484D",
"O. c #8A5548",
"+. c #BF4C52",
"@. c #BD565E",
"#. c #8D674B",
"$. c #8D7758",
"%. c #937051",
"&. c #92765F",
"*. c #A9715D",
"=. c #825062",
"-. c #8F7564",
";. c #A8746C",
":. c #BD6571",
">. c #D85040",
",. c #C14A53",
"<. c #E25A43",
"1. c #EC6447",
"2. c #F06848",
"3. c #CB6265",
"4. c #5C8249",
"5. c #688C49",
"6. c #6B9755",
"7. c #76A45E",
"8. c #78B15F",
"9. c #79AC61",
"0. c #7EB264",
"q. c #A98100",
"w. c #CA9A00",
"e. c #8C965D",
"r. c #BF855C",
"t. c #89A85D",
"y. c #A2AB5F",
"u. c #B88763",
"i. c #AB8071",
"p. c #92AB69",
"a. c #8ABA68",
"s. c #C28B63",
"d. c #D39B74",
"f. c #D7A078",
"g. c #DDA57D",
"h. c #8CC26C",
"j. c #92C66D",
"k. c #8DC870",
"l. c #93CD73",
"z. c #98C972",
"x. c #95D275",
"c. c #9AD777",
"v. c #99DA79",
"b. c #A9D36D",
"n. c #A6DA72",
"m. c #A1DF7B",
"M. c #9AE179",
"N. c #ADE275",
"B. c #A3E27D",
"V. c #ABE67A",
"C. c #A4E87E",
"Z. c #ACE87C",
"A. c #B3E875",
"S. c #B3EB78",
"D. c #B6F07C",
"F. c #B9F179",
"G. c #3F6583",
"H. c #436C8D",
"J. c #757685",
"K. c #A77387",
"L. c #BD7B8D",
"P. c #8B859D",
"I. c #BD9C8A",
"U. c #928BA5",
"Y. c #9899AA",
"T. c #AF93B2",
"R. c #B79CB6",
"E. c #C88C9B",
"W. c #DCA781",
"Q. c #CAA495",
"!. c #E4B18E",
"~. c #E6B596",
"^. c #9FDF80",
"/. c #9FE681",
"(. c #A0E280",
"). c #A2E880",
"_. c #A8E880",
"`. c #A5E68A",
"'. c #A6E88C",
"]. c #A8EA8B",
"[. c #B1E18C",
"{. c #B0F080",
"}. c #A8E890",
"|. c #C2E49C",
" X c #C5E89C",
".X c #ECC1A5",
"XX c #EEC6AD",
"oX c #F5CCB3",
"OX c #FBD3BB",
"+X c #C4E7A1",
"@X c #B7AECE",
"#X c #B9B3D3",
"$X c #B9B4D5",
"%X c #C5C4D6",
"&X c #CBCDDA",
"*X c #FAD7C4",
"=X c #C8C4E0",
"-X c #D5D2E9",
";X c #EDEAF7",
":X c #E9E9FA",
/* pixels */
"'.`.M.(.(.^.(.^.(.^.^.(.^.^.^.(.(.(.(.^.^.^.x.^.c.c.v.v.v.v.^.^./.].].].}.}.}.}.}.}.}.}.}.}.}.}./.'.",
"`.M.M.M.(.(.^.B.(.(.(.^.^.(.(.^.(.^.^.(.^.^.m.^.c.c.v.c.x.v.^.^.M.M././.}.'././.}.'.'.}.'.'.}.'.M.M.",
"M.M.M.v.(.(.v.^.^.v.^./.(.(.^.(.(.^.m.m.^.m.m.^.x.x.c.x.x.l.c.v.M.M.M.M././.M./.'.M./.}./././.M.M.M.",
"v.M.c.c.v.v.v.v.v.v.v.v.^.^.m.^.^.`.p.g g g g g g g g g g g g a.M.M.M.M.M.M.M.M.M.M.M./.M.M./.M.M.M.",
"v.v.v.x.v.v.v.x.v.v.v.v.v.v.m.z.e.p.$.E Q Q Q Q Q Q Q Q Q W E $.e.e.z.M.M.M.M.M.M.M.M.M.M.M.M.M.M.M.",
"x.x.v.v.v.v.v.v.x.v.v.v.v.v.v.e.u u E [ <.2.2.2.2.2.2.2.2.<._ E r u e.B.C.M.M.M.M.M.M.M.M.M.M.M.M.M.",
"v.v.v.v.v.v.c.c.x.v.c.c.v.l.j a ^ ^ _ <.1.2.2.2.2.2.2.2.2.2.<.` ^ ^ w l M.F.M.C.C.M.M.M.M.M.x.x.x.M.",
"v.x.v.x.v.v.c.c.v.v.v.v.v.l.# 8 ' ' >.<.2.2.2.2.2.2.2.2.2.2.2. .' | 8 # N.F.Z.F.D.Z.M.M.M.M.M.M.x.x.",
"v.v.x.v.c.c.c.v.v.v.x.v.c.l.# 8 [ ]  .2.2.2.2.2.2.2.2.2.2.2.2. ._ [ 8 # S.D.S.F.F.F.C.D.V.c.v.c.v.v.",
"v.v.v.v.c.v.c.v.v.v.v.v.e.O.8 t [ )  .2.2.2.2.2.2.2.2.2.2.2.2. .[ ] y 8 O.y.F.F.F.F.S.F.V.v.v.v.v.v.",
"Z.v.x.M.v.v.v.V.c.c.v.v.Y r y W [ ]  .1.2.2.2.2.2.2.2.2.2.1.1. ._ ] W y t $.F.F.F.F.S.F.S.v.v.m.m.M.",
"S.B.M.Z.B.m.V.Z.v.m.B.^.M . ~ [ ] ] [ [ 1.2.2.2.2.2.2.2.2.<._ ` _ _ _ ^ . N F.F.F.F.F.F.F.V.B.V.V.C.",
"A.V.V.A.V.V.A.A.Z.V.Z.B.U . ( [ ] [ [ [  . .<. .>.>.>.>. . . .[ ] ] [ ( . U S.A.V.S.S.F.F.F.A.Z.V.S.",
"V.Z.V.S.A.A.V.V.Z.Z._.Z.M . ~ [ ] ] [ [ _ ' [ [ _ _ _ _ [ [ _ [ ] ] [ ~ . U V.(.C.V.C.A.S.S.Z._.V.N.",
"_._.Z.V._._.Z._._._._.Z.N   r W [ [ [ ] ' ' ' ' ) ' ) ) _ [ [ _ [ [ W t   U ^.^.(.(.^.B.Z.V._._.C.Z.",
"_._._._._._._._._._.m.t.c @ = t ~ ` _ [ ) ,.:.:.:.:.:.:. ._ [ [ ) ~ t = @ x t.v.B.^.^.).(.^._._._.Z.",
"_._._._._._._._.Z.Z.n.q 0 0 X & u / [ _ _ +.@X@X@X$X@X@X+._ _ _ ^ u &   0 0 q z.v.(.^.^.v.B.(._._._.",
"_._._._._._.Z.C.C.S.c.w } u.O C T...E y K.R.#XL.+.+.L.@XR.K.E y ..T.C O u.} w z.c.m.m.v.v.v.(._._._.",
"_._._.Z.D.Z.F.Z.S.{.b.a %.d.- V P.=.....T.%X=XE.3.3.E.%X=XR.....=.P.D - d.%.a a.c.v.v.c.c.c.B._.S._.",
"D.D.Z.D.F.D.F.F.D.F.b.I *.f.J 1   U.=X:X:X:X:X:X:X:X:X:X:X:X:X=XU.  1 J f.*.I z.v.c.v.v.m.B.v.F.F._.",
"F.F.F.F.F.F.S.F.F.F.F.y.Y q k 5 3 5 L R %X:X:X:X:X:X:X:X:X%XR L 5 1 4 k 2 Y p.c.c.v.v.Z.Z.F.Z.{.F.D.",
"F.F.F.F.F.F.F.F.F.F.F.F.5.# 4 l K % , L Y.%X&X&X&X&X&X&X%XY.L % % K V 4 # U v.v.v.v.S.S.Z.F.F.F.F.F.",
"F.F.F.F.F.F.F.F.S.F.F.F.A.n.# x d.O.=.$XC $ S D D D D D $ V #X=.O.f.a # k.v.v.v.v.B.S.F.F.F.F.F.S.F.",
"A.F.F.F.A.S.F.F.A.Z.F.D.A.n.# @ b ;.Q.-XJ O &.&.&.&.-.-.O J -XQ.i.b - # x.M.M./.v.v.F.F.S.F.F.Z._.S.",
"V.A.S.V.M.A.A.M.B.N.M.N.V.x.> X   I.*X;XP 1 g.g.g.W.g.f.: P :X*XI.  X > v./.M.).M.M.C.C.C.C.C.C.).S.",
"M.V.N.M.M.M.M.M.M.M.M.M.M.M.M.M   f ;.*XXX.XoXoXoXoXoXoXXXoX*X;.f   U v.M./.M./.).).C.).).).C.C./.).",
"M.B.M.M.M.M.M.M.M.M.M.M.M.M.M.8.m 2 s -.Q..XOXXX~.~.oXOX.XQ.-.s p U 0./././.).).).)./.C.).)./.).)./.",
"M.M.M.M.M.M.M.M.M.M.M.M.M.M.M.M.c.>     #.g.XX!.f.d.!.oXg.#.    > /.)./././.).).).)./.C.).).C././.).",
"/.M.M.M.M.M.M.M.v.v.M.M.v.M.v.v.v.> * q.9 @ - s O.O.f - % 9 { z 4 S a./.).).).).).).).)././.C./.C./.",
"/.M.M.M.x.M.v.c./.v.v.M.v.v.M.k.5.> 9 w.e ; 6 s f Z s 5 ; e w.n B 4 U 9.).).).).).).).).C.)./.C.).).",
"M./.M.v.v.M.c.v.M.v.v.v.v.v.^.U   4 n w.| +.$XJ.V B J.#X+.| w.N k k # # C.).).{.M././.).).).).).).).",
"v.v.v.v.x.c.v.c.x.v.v.v.v.v.^.6., 6 l z ! o.@.K.Y.Y.K.,.} { z : - b #.#.j 6.).{.)./.C./.).).).)./.M.",
"v.c.c.v.v.c.c.c.c.v.v.x.v.x.0.6.J K b a a d ) L.$X$XI.) d a w O @ { r.u.. N Z.{._.).).).).).C.).(.v.",
"c.v.v.v.v.v.c.c.v.v.v.x.v.l.V P g.d.s.{ * O ) L.#X#XL.) & * { * : d.f.u.. N D.{.Z.C.M.Z.).C.D.)._.v.",
"m.v.v.v.v.v.v.v.v.v.v.v.c.l.b -..Xg.s.{ * & ) L.#X@XL./ & * { Y 5.a x a 5.a.A.S.F.D.C.F.V.D.F.V.(.V.",
"Z.v.Z.v.Z.m.m.v.v.x.x.v.v.l.b -.*X!.s.v ; & ) L.#X@XL.) & : v z.a.# # > V.S.S.S.F.F.S.F.F.D.F.S.S.F.",
"D.S.F.Z.F.S.S.Z.v.c.v.v.c.k.+ K *XOXI.. i ..' L.$X$XI.X...i . 7.B.n.v.n.A.V.S.F.F.F.F.F.F.F.F.S.S.F.",
"S.F.F.F.F.F.F.F.m.v.v.v.v.x.U Y $.T K % i Z h T K.J.T h P C   7.(.v.^.V.V.V.F.S.F.F.A.F.F.F.F.F.F.F.",
"F.F.F.F.F.F.F.F.V.v.(.V.v.v.M.6.X X $ 3 3 3 B 4 B 6 S S G.F . 7.(.(.^.V.^.Z.F.A.F.F.F.F.F.F.F.F.F.F.",
"F.F.F.S.S.F.F.S.S.B.Z.S.Z.B.Z.v.k.l.6.  < A A < o 6 G G.H.B   7.(.^.(.^.^.Z.V.m.A.F.F.F.S.F.F.F.F.F.",
"F.S.S.F.S.S.S.Z.S.S.S.V.A.Z.A.Z.Z.V.a.l < < < j l 1 S H F S l a.^.(.^.^.^.^.v.^.V.S.F.F.F.F.F.F.S.S.",
"S.S.S.S.A.S.A.A.S.V.V._.Z.V.Z.V.S.V.S.V.j X   5.v.+ , k o j ).v.v.^.m.v.(.^./.^.M.N.S.F.S.S.A.F.S.A.",
"A.A.A.V.Z.V.S.V.A.V.Z._._._._.Z.Z.Z.V.V.j.0.0.l.x.+ 8 ( Q d > 7.v.^.v.c.v.^.v.^.M.v.S.F.S.V.A.S.A.Z.",
"Z.A.V.Z.Z.A.Z.C.V._._._._._._._._._.Z.V.V.C.v.v.l.+ 8 / ( y   7.v.v.v.v.v.v.v.v.v.v.V.S.S.S.S.A.Z.A.",
"_.Z.Z._.C.Z._._.B._._._._._._._._._.Z.Z.M./.v.v.k.+ = u u 7   6.v.c.c.c.v.v.x.v.v.^./.S.N._.V.Z.Z.Z.",
")._._._._._._._._._._.C./.)._.).)._.).v.v.M.x.x.x.6.x & O 2 6.h.v.v.c.c.c.^.v.v././.'.`._.'.`.Z._._.",
"`._._._._._._._._./._././.)././.(.).M.v.v.v.v.M.v.v.4.# # m c.c.v.^.^.v.^.`.^.`.}.}.}.'.'.}.'.].'.`.",
"}.)._.)._._.)._.)./.)./.B.^.).^.(./.^.v.v.v.v.v.x.v.v.x.x.x.v.v.v.`.'.^.'.}.'.}.}.}.}.}.}.}.'.'.'.`.",
"}.`._.(.C.M.).)./.^.^.(.^.(.(.^.(.^.^.v.v.v.v.v.v.v.c.v.v.v.v.`.^.}.}.`.}.}.}.}.}.}.}.'.}.}.'.}.}.}.",
"+X X X|.|.|.|.|.|.+X|.|.[.^.(._.(.^._.v.(._.M.v.^.v.v.M.v.v.B.`.'.'.'.'.'.`.`.'.'.).`.].`.].].`.].`."
};
