/* XPM */
static char *result[] = {
/* columns rows colors chars-per-pixel */
"50 50 211 2 ",
"   c #020302",
".  c #0B0B07",
"X  c #050909",
"o  c #0A0B0B",
"O  c #0D130B",
"+  c #1D150B",
"@  c #161915",
"#  c #26080C",
"$  c #2E1016",
"%  c #361010",
"&  c #3D1111",
"*  c #1B2615",
"=  c #29221B",
"-  c #2A311D",
";  c #1B2327",
":  c #252B2A",
">  c #2A342C",
",  c #343C3D",
"<  c #3B3D3D",
"1  c #4B0E1B",
"2  c #5B151D",
"3  c #482A16",
"4  c #4A301C",
"5  c #513119",
"6  c #653D1B",
"7  c #5E1829",
"8  c #6D1527",
"9  c #711028",
"0  c #77172A",
"q  c #761B33",
"w  c #422424",
"e  c #4E3435",
"r  c #7A332E",
"t  c #2E4123",
"y  c #364927",
"u  c #3D4F37",
"i  c #724C12",
"p  c #4F4E2B",
"a  c #47433C",
"s  c #5A4635",
"d  c #734C2A",
"f  c #644C37",
"g  c #486739",
"h  c #656C3A",
"j  c #363F41",
"k  c #3F3E42",
"l  c #263E51",
"z  c #413D40",
"x  c #7F2E45",
"c  c #394141",
"v  c #384446",
"b  c #3B4950",
"n  c #3A5463",
"m  c #3E5F77",
"M  c #444746",
"N  c #465749",
"B  c #57544F",
"V  c #474D58",
"C  c #6D4B44",
"Z  c #7A4643",
"A  c #536B4B",
"S  c #707C43",
"D  c #796759",
"F  c #445A76",
"G  c #71576C",
"H  c #746D6E",
"J  c #84321D",
"K  c #861B2C",
"L  c #921F30",
"P  c #872727",
"I  c #97292D",
"U  c #852E34",
"Y  c #A82E34",
"T  c #A33637",
"R  c #BA3637",
"E  c #BD3535",
"W  c #C03635",
"Q  c #C13939",
"!  c #C53A39",
"~  c #956A12",
"^  c #A57711",
"/  c #844C27",
"(  c #905629",
")  c #844D36",
"_  c #C77215",
"`  c #CF473D",
"'  c #D54D3F",
"]  c #84314A",
"[  c #864B50",
"{  c #806248",
"}  c #876756",
"|  c #946958",
" . c #A86557",
".. c #A56E50",
"X. c #90566E",
"o. c #BD5F6A",
"O. c #91726C",
"+. c #C74B4C",
"@. c #CE5140",
"#. c #DC5341",
"$. c #E25A44",
"%. c #EC6447",
"&. c #EF6748",
"*. c #F06848",
"=. c #CC6C70",
"-. c #5D854A",
";. c #658849",
":. c #658359",
">. c #6A9755",
",. c #6B905D",
"<. c #769E56",
"1. c #78A459",
"2. c #709961",
"3. c #79A863",
"4. c #7DB163",
"5. c #9B8922",
"6. c #C88F0E",
"7. c #C99801",
"8. c #D0AC3B",
"9. c #838356",
"0. c #8C9C5F",
"q. c #8FAD5D",
"w. c #8D9C60",
"e. c #919D63",
"r. c #AC876F",
"t. c #85A965",
"y. c #88B967",
"u. c #94B464",
"i. c #89BE72",
"p. c #B4B073",
"a. c #D0976E",
"s. c #CE9873",
"d. c #D59E76",
"f. c #D89F75",
"g. c #DAA37B",
"h. c #8CC46E",
"j. c #93C46E",
"k. c #9CCC6A",
"l. c #9ED06B",
"z. c #8DC774",
"x. c #97CD76",
"c. c #94D274",
"v. c #98D677",
"b. c #99DA79",
"n. c #A7D574",
"m. c #ADD370",
"M. c #A1DE7A",
"N. c #9AE179",
"B. c #A3E27C",
"V. c #ABE67A",
"C. c #A4E87E",
"Z. c #ACE87C",
"A. c #B6E975",
"S. c #B3EB78",
"D. c #B6F07C",
"F. c #B9F179",
"G. c #3D6A8A",
"H. c #436582",
"J. c #416989",
"K. c #4B7985",
"L. c #9B7087",
"P. c #BF7D8D",
"I. c #AB7C92",
"U. c #7A95B0",
"Y. c #83828F",
"T. c #B99D8B",
"R. c #BC879C",
"E. c #9A93AE",
"W. c #8C93B0",
"Q. c #A894B0",
"!. c #B1A0BF",
"~. c #C69688",
"^. c #D5959E",
"/. c #DEA984",
"(. c #E3AC85",
"). c #E7B899",
"_. c #D59BA5",
"`. c #D3ABAD",
"'. c #E8BFA5",
"]. c #9FDF80",
"[. c #9FE681",
"{. c #A0E280",
"}. c #A2E880",
"|. c #A9E980",
" X c #A5E68A",
".X c #A6E88C",
"XX c #A8EA8B",
"oX c #B1E18C",
"OX c #B0F080",
"+X c #A8E890",
"@X c #C2E49C",
"#X c #C5E89C",
"$X c #F2C9B0",
"%X c #FCD3BA",
"&X c #FBD5BE",
"*X c #C4E7A1",
"=X c #A9ACC3",
"-X c #B9A8C6",
";X c #BDBDCB",
":X c #BAB2D2",
">X c #BDBCDC",
",X c #B8C0D1",
"<X c #C0C0CD",
"1X c #C9C7DA",
"2X c #E3CFCB",
"3X c #FFDBC1",
"4X c #C9D1E4",
"5X c #D5D3E6",
"6X c #E2DFF1",
"7X c #E5E6F7",
"8X c #EAEAFA",
/* pixels */
".X XB.N.{.].{.].].{.].].{.{.{.].{.].].{.{.].b.].b.b.b.b.v.v.b..X[.+X.X.X+X+X+X+X+X+X+X+X+X+X+X+X[..X",
" XN.N.N.{.{.].{.].].{.].{.].{.{.].{.M.].].M.b.{.b.b.b.b.v.b.[.N.N. X[.[.+X.XN. X+X.X.X+X[.+X+X+X[.N.",
"N.N.N.b.].{.b.].b.].[.[.{.].].].{.].{.{.].{.[.B.b.v.b.b.b.b.b.N.N.N.N.N.}.[.N.[..X[.[.+X[.[.[.N.N.N.",
"b.N.b.v.b.b.b.M.v.].b.b.{.M.].{.].].{.].].].].{.b.b.b.b.v.b.b.b.N.N.N.N.N.N.N.N.N.N.N.N.N.[.[.N.N.N.",
"v.b.b.v.b.b.v.v.b.b.b.b.].b.b.[.{.].{.].].e.e.e.e.w.e.t.0.0.0.t.b.b.N.b.N.N.N.N.N.N.N.N.N.N.N.N.N.N.",
"b.v.v.b.b.b.b.v.v.b.v.b.b.b.b.N.M.].{.{.].r 9 9 9 9 9 0 8 8 9 0 x.].N.C.C.N.N.b.N.N.N.N.N.N.N.N.c.N.",
"v.b.b.v.v.b.v.b.b.v.v.b.b.v.b.N.v.n.[ d [ Y R ' @.@.#.@.@.@.R Y ) 6 t k.C.S.B.V.C.N.N.N.N.N.c.N.b.c.",
"b.v.v.b.b.v.b.v.b.v.b.v.b.b.b.v.i.e.0 K K W ' *.*.*.*.*.*.*.#.! P 2 # 1.l.F.S.F.D.S.N.N.N.N.c.N.c.N.",
"v.v.b.v.v.b.v.b.b.b.v.v.c.b.b.b.{ 0 E Q ! $.*.*.*.*.*.&.*.&.&.%.+.E E # y F.A.F.F.F.C.S.V.v.v.v.b.b.",
"N.v.v.b.b.v.v.b.b.v.b.b.b.v.b.v.{ q _.=.W %.*.*.*.*.*.*.*.*.*.%.! R E # y F.F.F.F.D.D.F.Z.b.v.b.b.b.",
"V.M.b.N.b.v.M.V.b.b.b.b.b.b.b.z.} ] 7X^.W %.&.*.*.*.*.*.*.&.*.%.! Q E % y m.A.F.F.F.F.F.Z.b.b.V.B.N.",
"S.B.N.Z.M.M.V.V.b.M.S.b.b.v.h.v L.>X7X^.W %.&.&.*.*.*.*.*.&.&.&.! Q Q R Y 0 u.F.F.F.F.F.F.Z.M.S.V.C.",
"V.V.V.S.V.V.S.V.Z.Z.|.x.,.,.:.n H P.7X^.W @.$.&.*.*.*.*.&.*.$.' Q Q Q Q I % q.S.V.F.A.D.F.F.S.V.V.S.",
"S.V.S.V.A.V.S.V.Z.V.{.t.M M V G.X.+.6X^.E E ` &.%.&.*.*.&.&.' W Q Q E ! P   <.{.B.Z.N.A.S.S.|.|.V.V.",
"|.|.V.V.B.|.V.|.|.|.y N 5X5X,XJ.W.-X>XP.W Q E ` ! ` ! ! ` ! ! Q Q E Q ! P   <.].{.{.{.V.V.V.|.|.C.Z.",
"|.|.|.|.|.|.|.|.j.;.B Y.8X8X4XJ.W.:XR.o.Q E Q R E R Q E R W Q Q Q Q E Q P   <.{.].].[.{.{.].|.|.Z.Z.",
"|.|.|.|.|.|.}.Z.;.  <X8X8X8X4XJ.W.!.Q W Q Q Q Q Q Q E Q Q Q Q R R Q Q Q P   2.[.b.[.[.].b.{.{.|.|.|.",
"|.|.|.|.|.|.Z.C.;.X <X8X7X7X7X4XL.x R W Q Q R Q E Q Q Q Q E Q Q W W ! L 2   >.N.b.b.b.b.b.v.{.V.|.|.",
"|.|.|.Z.D.Z.S.Z.;.X ;X8X8X7X7X6XI.] Y R Q R Q R Q Q Q Q Q Q Q Q Y Y P 7 1 - 4.b.b.b.b.b.b.b.M.OXS.|.",
"D.D.Z.D.F.D.F.F.;.X <X8X8X8X6X:X:X!.q L ! Q Q Q Q Q Q Q Q Q Q E 9 1     t v.v.b.b.b.b.b.M.M.b.OXF.|.",
"F.F.F.F.F.F.F.F.l.0.N H 1X1X1X:X:X-XQ.X.K K q & & & % % & & & & # $ : : > t 3.N.v.v.B.Z.V.S.|.F.F.F.",
"F.F.F.F.F.S.F.F.F.F.y < E.E.E.E.E.!.-XX.2 L 7 + o X X   X X X X   ; c c > X -.i.v.b.S.S.S.F.F.F.F.F.",
"F.F.F.F.F.F.F.F.F.F.F.1.    X X w x Z : X >X2Xa.B , j j , < j , , j j u v c O * c.B.S.F.F.F.F.F.S.F.",
"A.F.F.D.S.A.F.S.A.A.A.k.;.-.h & | ~.T.C X 1X2Xf.O.D u D | f a j j j j ; ; @ g >.b.B.S.F.S.S.D.S.|.S.",
"V.A.A.V.N.A.S.N.V.V.N.V.V.N.m.[ ~.3X3XO.@ 1X2Xd.g.a.a r.a.( f u , , , @ O O 3.N.N.C.C.C.C.C.C.C.}.Z.",
"N.V.V.N.N.N.N.N.N.N.N.N.V.N.m.a.'.3X$X$X'.&X&X%X/.f.d.g.a.( s , O X   1.c.c.N.}.}.}.C.}.}.}.C.C.[.|.",
"N.N.B.N.N.N.N.N.N.N.N.N.N.N.l.m.p.~.).$X$X'.).)./.a. .O.} 5 = ;   * A c.N.}.}.}.}.}.[.[.}.}.}.[.[.[.",
"N.N.N.N.c.N.N.N.N.N.N.N.v.N.N.N.9.] s.(.$X/.d.f.f.r.[ e >     .   g N.[.}.}.}.}.[.}.C.}.}.}.[.[.[.}.",
"}.N.N.N.N.N.N.N.N.].b.N.N.b.N.N.c.y.= + = Z  .d.| Z c w 4 3 S c.k.c.C.[.}.}.}.}.[.[.[.}.C.[.[.C.}.N.",
"[.N.N.b.c.N.b.N.N.b.b.N.b.b.N.N.b.v.u y y B O.'.../ h d 6 i 9.u.u.l.D.[.}.}.}.}.C.[.[.C.}.[.}.}.}.}.",
"N.}.N.b.b.b.v.b.b.b.b.b.b.b.b.b.N.|.D.|.C.K.U.7X8.7.7.~ ( 7.~ 3 5 h OXC.OX}.}.OX[.[.[.[.}.}.}.}.}.}.",
"b.b.b.b.b.b.v.b.v.b.b.b.b.b.].b.b.N.}.3.A ;X!.=.6.6.h p s J J i 5.~ h N.OXOXOXC.}.[.C.[.}.C.}.}.[.[.",
"b.b.v.b.v.b.v.b.v.v.b.b.c.b.c.b.v.b.b.,.v 1X`.W _ ^ j j M U U / 7.~ 3 k.|.D.OXOX|.}.[.}.[.C.C.[.}.b.",
"b.v.v.b.v.b.b.v.v.b.b.b.b.b.b.b.b.v.b.,.v =XP.E Q T k j M g. .9 6.~ 5 k.S.Z.S.OXOXC.C.Z.C.C.D.}.{.b.",
"M.v.b.b.b.b.b.b.b.b.v.b.v.b.v.b.b.v.b.,.M =XR.W W Y @ H T.g.d # ~ i + u.V.A.V.S.S.S.C.F.Z.S.F.Z.B.V.",
"Z.B.Z.b.V.B.M.b.v.v.b.b.b.b.b.c.v.b.b.2.N E.I.E ! I   Y.&X(.C   d 5 . u.A.V.F.A.F.F.D.F.D.F.F.Z.Z.D.",
"F.Z.F.V.F.S.S.B.b.b.b.b.c.b.c.b.b.b.].b.x.B z 9 R I   r.3X3XD   / 5   y.S.S.S.F.F.S.F.F.F.F.F.F.F.F.",
"F.F.F.F.F.F.F.F.M.b.b.b.b.b.b.N.b.].].].v.B z e P K $ x H D f & 3 4 A k.V.V.F.F.F.F.F.A.F.F.F.F.F.F.",
"F.F.F.F.S.F.F.F.V.b.|.V.b.b.B.[.].{.].].x.M j v 7 9 9 #     3 / . u }.B.N.Z.S.Z.F.F.F.F.F.F.F.F.F.F.",
"F.F.F.F.S.F.F.F.S.{.V.S.V.{.V.{.{.V.].;.O X ; J.H.F < , , > , a y : * y.B.V.Z.B.A.F.F.A.F.F.F.F.F.F.",
"F.S.S.F.V.S.S.S.S.S.S.S.V.V.V.V.h.t.t.N @ ; l J.G.m c c c j c c c ;   y.].{.b.].V.S.F.F.F.F.F.A.S.S.",
"S.A.S.S.A.S.A.S.S.S.V.|.V.S.V.S.:.v c u v H.J.J.G.m c c c c c j u :   4.].].[.].N.V.S.F.F.S.F.S.A.A.",
"S.S.S.V.V.V.V.V.V.V.|.|.|.|.|.V.:.e T T ] F m b b N i.i.y.z.g X o u 4.x.b.{.b.].N.b.S.F.A.A.S.S.V.V.",
"V.V.V.V.V.S.V.|.V.V.|.|.{.|.|.|.t.A U T ! G B > N ,.].v.v.].-.- - A b.b.b.b.b.v.b.v.V.F.S.V.S.V.S.S.",
"V.V.Z.|.C.V.|.|.C.|.|.|.|.|.|.}.|.c.. 2 ! ! 0   3.b.b.b.v.b.v.v.b.b.c.b.v.v.v.b.b.].}.Z.V.C.Z.A.Z.Z.",
"|.|.|.|.|.|.|.|.|.|.}.|.}.|.|.}.B.B.1.p & & p >.h.v.v.b.b.v.b.b.b.v.b.b.v.].].b.[.[..X XC. X XZ.|.|.",
".X{.|.|.|.|.|.|.|.[.|.[.[.}.[.].{.}.B.-.@ * g b.v.b.b.v.v.b.b.b.v.].N.b.]. X]. X+X+X+X.X.X+X.X}..X X",
".X}.|.}.}.|.}.|.C.[.}.[.{.].}.].{.}.N.c.c.c.c.v.b.v.b.v.v.b.v.b.b..X.XN..X+X.X+X+X+X+X+X+X+X+X+X.X X",
"+XXX|.{.}.B.[.[.[.].{.{.].{.[.].].].].b.b.b.b.b.b.b.b.b.b.b.b. X X+X.X+X+X+X+X+X+X+X+X.X+X+X.X+X+X+X",
"*X#X#X@X@X@X@X@X@X*X@X@XoX].{.|.B.].|.b.{.}.B.b.b.b.b.N.b.b.B..X X XXX XXX X{. XXXXX XXX XXXXX XXX X"
};
