/* XPM */
static char *result[] = {
/* columns rows colors chars-per-pixel */
"50 50 209 2 ",
"   c #020303",
".  c #090906",
"X  c #050909",
"o  c #0B0C0C",
"O  c #180E0E",
"+  c #0D120A",
"@  c #181A17",
"#  c #24090B",
"$  c #2C1211",
"%  c #361010",
"&  c #3D1111",
"*  c #1C2816",
"=  c #302918",
"-  c #191F21",
";  c #1C2222",
":  c #272929",
">  c #2A3A23",
",  c #32312E",
"<  c #2B3232",
"1  c #343D3D",
"2  c #3A3F3D",
"3  c #4B0E1B",
"4  c #5C121F",
"5  c #482B16",
"6  c #4A301C",
"7  c #513119",
"8  c #653D1B",
"9  c #5D1120",
"0  c #710F28",
"q  c #701028",
"w  c #76192A",
"e  c #70192D",
"r  c #422424",
"t  c #49392F",
"y  c #582734",
"u  c #782221",
"i  c #71373A",
"p  c #2E4123",
"a  c #354927",
"s  c #3D562F",
"d  c #714C12",
"f  c #484427",
"g  c #564F34",
"h  c #70502F",
"j  c #634A35",
"k  c #49663A",
"l  c #6B6C38",
"z  c #383F41",
"x  c #4B3743",
"c  c #7F2E45",
"v  c #364242",
"b  c #394242",
"n  c #394549",
"m  c #364B57",
"M  c #3C576A",
"N  c #3E5B71",
"B  c #454948",
"V  c #515151",
"C  c #794443",
"Z  c #705349",
"A  c #537543",
"S  c #536A50",
"D  c #687E4A",
"F  c #796759",
"G  c #645E76",
"H  c #6F6D79",
"J  c #861B2C",
"K  c #921F30",
"L  c #882828",
"P  c #99282E",
"I  c #A82E34",
"U  c #A43035",
"Y  c #BC3536",
"T  c #BB3838",
"R  c #C03534",
"E  c #C13939",
"W  c #C53938",
"Q  c #926C0E",
"!  c #9F6A17",
"~  c #A57214",
"^  c #874E28",
"/  c #895427",
"(  c #8A5129",
")  c #915727",
"_  c #84473D",
"`  c #CF473D",
"'  c #D54D3F",
"]  c #84314A",
"[  c #864B50",
"{  c #806248",
"}  c #876756",
"|  c #946958",
" . c #A76E53",
".. c #90566E",
"X. c #BD5F6A",
"o. c #91726C",
"O. c #AF7660",
"+. c #C74B4C",
"@. c #CE5140",
"#. c #DC5341",
"$. c #E25A44",
"%. c #EC6447",
"&. c #EF6748",
"*. c #F06848",
"=. c #CE756B",
"-. c #5B8149",
";. c #658849",
":. c #648759",
">. c #6B9855",
",. c #6B915D",
"<. c #759D56",
"1. c #79A457",
"2. c #719A67",
"3. c #79A567",
"4. c #7AAD60",
"5. c #86863A",
"6. c #C58104",
"7. c #C59501",
"8. c #CA9900",
"9. c #D0AD3D",
"0. c #838356",
"q. c #8C9C5F",
"w. c #8FAD5D",
"e. c #8D9C60",
"r. c #919D63",
"t. c #99887B",
"y. c #AD876E",
"u. c #B8886A",
"i. c #89A965",
"p. c #89BB67",
"a. c #92B667",
"s. c #D1936D",
"d. c #CC9872",
"f. c #D59E75",
"g. c #D99C75",
"h. c #DAA37B",
"j. c #8BC36D",
"k. c #93C56E",
"l. c #9CCC6A",
"z. c #9ED06C",
"x. c #8CC572",
"c. c #99CB75",
"v. c #94D375",
"b. c #98D677",
"n. c #99DA79",
"m. c #A7D574",
"M. c #ADD370",
"N. c #A1DE7A",
"B. c #9AE179",
"V. c #A3E27C",
"C. c #ABE67A",
"Z. c #A4E87E",
"A. c #ACE87C",
"S. c #B6E975",
"D. c #B3EB78",
"F. c #B6F07C",
"G. c #B9F179",
"H. c #3F6481",
"J. c #3E6B8B",
"K. c #406685",
"L. c #416989",
"P. c #4B7985",
"I. c #9B7087",
"U. c #B37C90",
"Y. c #83828F",
"T. c #BA879D",
"R. c #8790AF",
"E. c #9A93AE",
"W. c #B1A0BF",
"Q. c #C69688",
"!. c #C48090",
"~. c #D5959E",
"^. c #DDA982",
"/. c #C7B08D",
"(. c #E7B899",
"). c #D59BA5",
"_. c #DCB8A2",
"`. c #9FDF80",
"'. c #9FE681",
"]. c #A0E280",
"[. c #A2E880",
"{. c #A9E980",
"}. c #A5E58A",
"|. c #A6E88C",
" X c #A8EA8B",
".X c #B1E18C",
"XX c #B0F080",
"oX c #A8E890",
"OX c #C2E49C",
"+X c #C5E89C",
"@X c #C5C0A7",
"#X c #F2C8AF",
"$X c #FCD3BB",
"%X c #F9D3BD",
"&X c #C4E7A1",
"*X c #B9A8C6",
"=X c #AFBDCD",
"-X c #BBBBC9",
";X c #BAB2D2",
":X c #BDBCDC",
">X c #B8C0D1",
",X c #C0C0CD",
"<X c #C8C5D9",
"1X c #EAD2C8",
"2X c #C9D1E4",
"3X c #D5D3E6",
"4X c #E2DFF1",
"5X c #E5E6F7",
"6X c #EAEAFA",
/* pixels */
"|.}.V.B.].`.].`.`.'.`.`.'.`.{.`.`.`.`.].].`.n.`.n.n.n.n.b.b.n.|.B.oX X XoXoXoXoXoXoXoXoXoXoXoX|.'.|.",
"}.B.B.B.].].`.].`.'.`.`.`.`.`.`.N.`.].`.`.N.n.].n.n.n.n.b.n.B.B.B.[.'.'.oXoX'.'.oX|.oXoX|.|.oX|.B.B.",
"B.B.B.n.`.].n.`.n.`.`.'.N.`.].].].`.`.].`.].].[.n.b.n.n.n.n.n.B.B.B.B.B.'.'.B.'.'.'.'.oX[.[. XB.B.B.",
"n.B.n.b.n.n.n.N.b.`.b.'.].`.`.`.].].].`.].`.].B.n.n.n.n.n.n.n.B.B.B.B.B.B.B.B.B.'.B.B.B.B.B.[.B.B.B.",
"n.n.n.n.n.n.b.b.n.n.n.b.`.n.`.`.].`.].].N.r.r.r.r.e.r.i.e.q.q.i.b.B.B.B.B.B.B.B.B.B.B.B.B.B.B.B.B.B.",
"n.n.b.v.n.n.n.b.b.n.n.n.n.n.n.'.N.N.`.].m.i q q 0 0 0 w q q 0 e c.m.B.V.Z.B.B.B.B.B.B.B.B.B.B.v.v.B.",
"v.n.n.n.n.b.b.n.b.n.n.b.b.n.n.B.b.c.[ C [ U T ' @.@.#.@.@.@.T U _ j p l.Z.D.V.V.Z.B.B.B.B.B.v.B.B.v.",
"n.n.n.v.n.n.b.n.n.b.n.b.b.b.b.n.a.i.L w J R ' *.*.*.*.*.*.*.#.W L 4 # 1.z.G.D.G.F.A.B.B.B.n.B.n.B.v.",
"v.b.n.n.b.b.n.n.n.n.b.n.b.b.b.b.} w Y R Y %.&.*.*.*.&.*.*.*.&.%.` T T # a F.G.G.G.G.Z.D.C.n.n.n.n.n.",
"n.n.n.n.n.b.b.B.n.b.n.b.b.n.n.n.{ e ).=.E %.*.*.*.*.*.*.&.*.*.%.W E T # a D.G.G.G.G.D.G.C.n.b.n.n.n.",
"C.n.n.n.b.b.N.C.n.n.n.n.n.b.b.x.} ] 5X~.R %.&.*.*.*.*.&.*.*.*.%.W E Y % f M.S.G.G.G.G.G.A.n.n.N.B.n.",
"S.V.B.C.V.N.C.C.N.N.A.B.n.n.j.n I.;X5X~.Y %.*.&.*.*.*.*.*.*.*.%.W Y E Y U w w.G.G.G.G.G.G.C.C.C.C.Z.",
"D.C.C.C.C.C.S.C.C.C.C.c.,.,.:.M H !.5X~.R ' $.&.*.*.&.&.*.*.$.' E E Y E P % i.D.C.D.D.G.G.D.D.A.A.D.",
"A.C.D.C.C.S.A.C.A.A.{.p.n B B J...+.4X~.R Y ` %.%.%.&.&.%.*.#.Y E E E W L   1.`.V.A.V.D.D.D.A.{.A.A.",
"A.{.A.C.A.{.C.{.{.{.a B 3X3X>XL.R.*X:XU.R E E W ` E ` E W W E Y Y E Y W L   <.'.].N.V.Z.A.C.{.{.A.C.",
"{.{.{.{.{.{.{.{.j.;.V Y.6X6X2XL.R.*XT.X.Y E E E E T T E E E E E E E E E L   <.].`.`.`.{.].`.{.{.{.A.",
"{.{.{.{.{.{.{.A.;.  <X6X6X6X2XL.R.*X+.Y E E E E E E E E E E E E R E Y E L   2.B.B.'.].`.N.`.].{.{.{.",
"{.{.{.{.{.{.Z.Z.;.. -X6X6X5X5X2XI.K Y E Y E Y E E Y Y R E Y E Y E E W K 4   >.B.n.n.`.n.n.n.V.{.{.{.",
"{.A.{.F.F.A.F.A.;.X -X6X5X6X5X4XU.] I Y E E E E E E E E E E E Y I I L 9 3 > 1.b.b.n.n.b.n.b.N.{.D.{.",
"D.F.{.F.G.D.G.G.;.  ,X6X5X6X4X;X;XW.e K E E E W E E E E E E E Y 0 3     p n.n.n.n.n.n.n.N.V.n.G.G.{.",
"XXG.G.G.D.G.G.G.z.q.V H <X<X<X;X;X*XE...J J q & & & % % & & & & # @ : < < p 4.n.b.n.B.D.A.D.A.XXG.G.",
"G.G.G.G.G.G.G.G.G.G.a a E.E.E.E.E.W.*X..9 J y @ o X X X X X X X X ; z b < X -.j.b.n.D.D.D.G.F.G.G.G.",
"G.G.G.G.G.G.G.G.D.D.G.1.  .     r C c , X <X1Xd.V 1 1 1 z z z z 1 2 z v v v + * v.V.D.G.D.G.G.G.D.F.",
"S.G.G.G.S.D.G.G.S.S.G.l.-.-.l r } Q.Q.Z   <X1Xd.O.F z F } j g z v v 1 ; - * k >.n.V.D.G.D.F.G.D.{.D.",
"C.S.S.C.B.S.D.B.C.C.B.C.C.B.M.[ /.$X1Xo.O <X1Xh.h.u.B y.s.) j z 1 1 1 @ + + 4.B.B.B.Z.Z.Z.Z.Z.Z.[.A.",
"B.C.C.B.B.B.B.B.B.B.B.B.C.B.M.s.(.$X$X#X_.%X%X$X^.h.d.g.s.) j z o X   1.v.v.B.'.[.[.Z.Z.[.[.Z.[.[.Z.",
"B.B.V.B.B.B.B.B.B.B.n.B.B.B.z.M.Q.Q.(.#X%X#X(.(.^.d.O.o.} 7 : *   * k b.[.'.[.'.[.[.'.'.[.[.Z.[.[.B.",
"B.B.B.B.B.v.B.B.B.B.B.B.B.B.B.B.0.h d.^.#Xf.f.g.h.u.i g <         k '.'.'.[.Z.'.[.[.[.[.Z.[.[.'.'.[.",
"[.B.B.B.B.B.B.B.B.n.B.B.B.B.B.B.b.p.$ ; = [  .g.| Z z , 6 5 D z.k.b.[.'.[.[.[.[.[.[.[.'.'.'.'.'.[.[.",
"[.B.B.B.v.B.b.B.B.n.n.B.n.n.n.n.N.b.s a a V o._. ./ h d 8 d 5.a.w.k.XX[.XX[.[.[.[.[.[.'.'.Z.Z.'.[.[.",
"n.[.B.n.n.B.n.n.n.n.n.n.n.n.'.n.B.{.XX{.A.P.R.6X9.8.8.! ) 8.Q 5 > D XXZ.XX[.[.[.[.'.'.[.[.[.[.[.[.[.",
"n.n.n.b.b.b.n.b.n.n.n.n.b.n.n.n.n.n.A.3.S =X@X9.l g l = & 7.! h 6.Q l B.XXXXXXXXZ.'.[.'.[.[.Z.'.'.'.",
"n.n.b.n.n.b.n.b.n.b.n.n.n.n.n.n.n.b.n.,.n -X/.6.l B z @ $ 7.~ ) 7.Q 7 l.D.XXXXXXXX}.Z.'.'.Z.Z.'.].n.",
"n.b.n.b.n.n.b.n.b.n.n.b.n.v.n.v.b.n.n.,.v 1 i W s.y.z y u 7.~ ) 7.Q 7 l.D.D.D.{.A.Z.Z.A.Z.Z.F.[.].N.",
"n.n.n.n.n.n.n.b.n.b.n.n.v.n.n.n.b.b.n.-.@ t.u.=.g.O.y 0 w ! ) ( ! d # l.C.C.D.D.D.F.Z.G.A.F.G.A.V.A.",
"D.V.A.n.A.V.`.n.b.n.b.b.n.n.n.v.n.n.n.A . _.#X^.d.O.0 0 e ^ / ( ^ 7   p.D.C.S.D.G.G.D.G.D.G.G.A.A.G.",
"F.A.G.C.G.D.D.C.n.b.n.n.n.n.n.b.n.n.`.k   _.$X$Xt # q 0 w ^ ( ( ) 7   p.D.C.D.G.G.G.G.G.G.G.G.D.D.G.",
"G.G.G.G.G.G.G.G.N.n.b.n.n.v.n.B.n.`.`.:.: F F F , ; y y y j 6 5 5 f A l.C.C.G.D.G.S.G.G.G.G.G.G.G.G.",
"G.G.G.G.G.G.G.G.C.n.{.C.n.b.B.].`.N.n.,.1       < z z z n v -     k `.C.N.A.D.D.G.S.G.G.G.G.G.G.G.G.",
"G.G.G.D.D.G.G.D.D.{.A.A.A.{.A.].V.b.* o X < < 1 z n K.K.H.H.m 2 p.v.`.].].A.A.V.G.G.S.G.G.G.G.G.G.G.",
"G.D.D.S.D.D.D.D.D.C.C.C.S.D.C.C.A.l.o o @ 1 v z b n N N N J.N m 2.p.`.`.].`.n.`.D.D.D.G.G.G.G.G.D.D.",
"G.D.D.D.D.S.C.D.D.D.C.{.C.C.C.D.D.l.+ * z z 2 b b b 2 z n H.J.H.m D `.n.`.`.'.'.B.V.D.G.G.S.S.G.D.S.",
"D.D.D.C.C.C.C.C.C.D.{.{.{.{.{.{.A.Z.a.k o o o + ,.x.x.S 1 o m J.H.N S p.n.`.n.`.B.n.D.G.S.C.C.S.S.C.",
"C.C.S.A.C.C.A.A.C.A.{.{.{.{.{.{.{.A.A.>.> > > > p.n.].S : $ x G G V < p.n.n.n.b.b.b.A.G.D.D.C.D.A.D.",
"A.C.A.{.{.V.{.{.Z.{.{.{.].{.{.[.{.{.{.A.B.'.b.`.n.n.n.a O Y E W E w   4.b.b.b.b.`.`.[.A.C.{.A.S.A.A.",
"{.{.{.{.{.{.{.{.{.{.{.[.[.{.{.].[.{.{.n.n.B.b.b.n.n.n.4.-.& & & & f >.x.b.`.n.`.'.'.oX'.Z. X[.A.{.Z.",
"}.{.{.{.A.{.{.{.{.'.{.'.[.[.'.'.].[.B.n.n.n.b.n.n.b.n.b.j.* @ * @ A '.n.`.}.`.'.oXoXoXoXoXoXoX'.|.}.",
"|.[.{.].[.{.[.{.[.'.].[.'.`.'.N.].[.`.n.n.b.b.b.n.n.b.n.b.v.v.n.v.}.|.`.oXoXoXoXoXoXoXoXoXoXoXoXoX}.",
"oX}.{.'.[.B.].[.[.`.`.].].`.`.'.`.`.`.n.n.n.n.n.n.n.n.n.n.n.n.}.'.oX|.oXoXoXoXoX|.|.oX|.oXoXoXoXoXoX",
"&X+X+XOXOXOXOXOXOX&XOXOX.X].].{.].`.{.n.].{.n.n.'.n.n.n.B.n.N.}.}.}. X}. X}.}.}. X}.}. X}. X{. X|.}."
};
