/* XPM */
static char *result[] = {
/* columns rows colors chars-per-pixel */
"50 50 204 2 ",
"   c #030202",
".  c #090706",
"X  c #150E0A",
"o  c #180908",
"O  c #0F150C",
"+  c #18170D",
"@  c #171713",
"#  c #29190B",
"$  c #3E0A15",
"%  c #2A1616",
"&  c #391316",
"*  c #1A2417",
"=  c #3F3000",
"-  c #29261A",
";  c #3C2315",
":  c #0F1920",
">  c #1C2F3C",
",  c #242A2A",
"<  c #273822",
"1  c #2D2F34",
"2  c #2C3539",
"3  c #3B3934",
"4  c #333A3B",
"5  c #471718",
"6  c #511618",
"7  c #432719",
"8  c #4F391D",
"9  c #54361A",
"0  c #5E0C22",
"q  c #6C0D24",
"w  c #711128",
"e  c #7F172B",
"r  c #4E2B2B",
"t  c #532A2B",
"y  c #473E3B",
"u  c #623C28",
"i  c #683935",
"p  c #743C3E",
"a  c #364131",
"s  c #49532E",
"d  c #40433F",
"f  c #744B2E",
"g  c #77463A",
"h  c #615A31",
"j  c #4F6D3E",
"k  c #4F743E",
"l  c #59753D",
"z  c #6A6A3A",
"x  c #3A3842",
"c  c #573441",
"v  c #7F314B",
"b  c #374040",
"n  c #394040",
"m  c #354A5B",
"M  c #324F65",
"N  c #3A5C75",
"B  c #46464B",
"V  c #4D5F4C",
"C  c #5B5549",
"Z  c #4C5358",
"A  c #7B4643",
"S  c #6F5146",
"D  c #546E48",
"F  c #527241",
"G  c #587C45",
"H  c #6C6C4E",
"J  c #697547",
"K  c #7E685C",
"L  c #524C60",
"P  c #635D67",
"I  c #635C74",
"U  c #496078",
"Y  c #6C6D75",
"T  c #861B2C",
"R  c #8D222C",
"E  c #902C37",
"W  c #A22F2F",
"Q  c #AB2D33",
"!  c #A83135",
"~  c #B63435",
"^  c #BC3534",
"/  c #BF3738",
"(  c #C13433",
")  c #C23939",
"_  c #A14C1B",
"`  c #8D532A",
"'  c #89403C",
"]  c #B25128",
"[  c #C2453C",
"{  c #CC443C",
"}  c #853B56",
"|  c #874243",
" . c #935B51",
".. c #BF4549",
"X. c #B74951",
"o. c #8A6C51",
"O. c #996357",
"+. c #867B55",
"@. c #9A7259",
"#. c #A7715A",
"$. c #957463",
"%. c #946970",
"&. c #B47E66",
"*. c #BD6A77",
"=. c #CE5140",
"-. c #DB5341",
";. c #E65D44",
":. c #ED6547",
">. c #EF6748",
",. c #F06848",
"<. c #648A4A",
"1. c #6A8F50",
"2. c #699553",
"3. c #79AA60",
"4. c #7EB162",
"5. c #AF8304",
"6. c #CC9C00",
"7. c #8C8659",
"8. c #90945C",
"9. c #89B55E",
"0. c #8D9B60",
"q. c #919D64",
"w. c #9A8478",
"e. c #B58264",
"r. c #A88C76",
"t. c #B28675",
"y. c #94A966",
"u. c #85B868",
"i. c #90B16A",
"p. c #C4926E",
"a. c #CB9772",
"s. c #D39D76",
"d. c #D7A178",
"f. c #8DC56D",
"g. c #94C86D",
"h. c #8CC770",
"j. c #94CC73",
"k. c #98CA74",
"l. c #94D375",
"z. c #97D876",
"x. c #99DA79",
"c. c #A8CE6E",
"v. c #AAD86C",
"b. c #A6D973",
"n. c #A1DF7A",
"m. c #9AE179",
"M. c #AEE372",
"N. c #A3E37C",
"B. c #ABE67A",
"V. c #A4E87E",
"C. c #ACE87C",
"Z. c #B3E273",
"A. c #B3EC78",
"S. c #B6F07C",
"D. c #B9F179",
"F. c #3D6786",
"G. c #406888",
"H. c #7B778D",
"J. c #877287",
"K. c #807F91",
"L. c #B57889",
"P. c #BC7B8D",
"I. c #A07B99",
"U. c #858A91",
"Y. c #89829A",
"T. c #AD89A5",
"R. c #BA93AB",
"E. c #BA99B2",
"W. c #B9A0BC",
"Q. c #C8998A",
"!. c #D0A68F",
"~. c #E5B18A",
"^. c #E5B493",
"/. c #ECBA97",
"(. c #C099B2",
"). c #CFA9B8",
"_. c #9FDF80",
"`. c #9FE681",
"'. c #A0E280",
"]. c #A1E880",
"[. c #A8E880",
"{. c #A5E68A",
"}. c #A6E88C",
"|. c #A8EA8B",
" X c #B1E18C",
".X c #B0F080",
"XX c #A8E890",
"oX c #C2E49C",
"OX c #C5E89C",
"+X c #F1C9B1",
"@X c #FBD2BA",
"#X c #C4E7A1",
"$X c #B0AFC5",
"%X c #B7B2D3",
"&X c #B9B3D4",
"*X c #C2BADA",
"=X c #D6C3D5",
"-X c #CED2DF",
";X c #F8D7C4",
":X c #F1DFDE",
">X c #D9D7EC",
",X c #E3E5F6",
"<X c #EBEBFC",
"1X c #F2F2FF",
/* pixels */
"}.{.N.m.'._._.'._._.'._.'._._.'._._.'._.'._.x.x.x.x.x.z.z.z._.{.`.XXXX}.XXXXXXXXXXXXXXXXXXXXXX}.`.}.",
"{.m.m.m.'.'.'._._._._.'.'.'.'.'.'._._.'.'._.n._.x.x.x.x.z.x.x.x.m.].`.`.XX}.`.`.XX}.XXXX}.}.XX}.`.m.",
"m.m.m.x._._.x._._.x._._.'._.'._._.'.'._._.'.'.'.x.x.x.x.x.x.x.m.m.m.m.m.].`.m.`.`.m.`.}.`.`.}.m.m.m.",
"x.m.z.z.x.x.x.n.x.x.x._.'._.n._.n._.'._._.'._.'.x.x.x.x.x.x.x.m.z.m.m.m.m.m.m.m.`.m.m.`.m.m.].m.m.m.",
"x.x.x.l.x.x.x.z.z.x.x._._.x.N.'.'._.k.q.q.q.q.q.q.q.q.q.0.0.0.l.m.m.m.m.m.m.m.m.m.m.m.m.m.m.m.m.m.m.",
"l.z.x.l.x.x.z.x.x.x.l.x.x.x.x.x.n._.y.w w w w w w w w w q w q y.x.M.m.N.V.m.m.m.m.m.m.m.m.m.m.z.l.m.",
"x.x.z._.z.z.z.z.l.x.z.x.z.z.z.y.p A E Q [ =.=.=.{ =.=.=.=.[ Q ' ' f 9.D.V.A.N.V.V.m.m.m.m.m.z.m.l.m.",
"l.x.z.x.z.z.x.z.z.x.x.z.z.z.9.H T T E { ;.,.,.,.,.,.,.,.,.:.{ R T T +.g.A.D.A.D.S.C.m.m.m.z.z.m.z.z.",
"x.x.x.x.x.z.x.z.z.x.x.x.x.j.O 5 ) ^ { >.,.,.,.>.,.,.,.,.,.,.,.{ ^ ) 5 * M.D.Z.D.D.S.N.A.B.x.x.z.z.m.",
"_.l.l.z.z.z.z._.z.l.x.l.z.l.* 5 ) / { ,.>.>.,.,.,.,.,.,.,.,.,.{ ) ) 5 + M.D.D.D.D.D.S.D.B.z.z.x.m.l.",
"B.n.x._.x.x.n.B.z.z._.x.j.i.+ 6 ) ) { ,.,.,.,.,.,.,.,.,.,.,.,.{ / ) 6 @ c.Z.D.D.D.D.D.D.C.x.x.B.x._.",
"B.n.n.B.n.n.B.Z._.n.B._.+.w q R ) ) { ,.,.>.>.,.,.,.,.,.,.,.,.{ / ) R q w 7.D.D.A.D.D.D.D.B.B.B.C.N.",
"A.B.B.A.B.B.B.A.B.B.B.n.H 5 T Q ) ) ) { :.,.,.,.,.,.,.>.,.:.-.) ) ) Q T 5 H A.A.B.D.A.D.D.D.Z.C.B.A.",
"B.B.B.A.B.Z.A.B.C.B.[.B.l   Q ) ) ) ) ) -.,.>.>.:.:.:.:.,.-./ / ) ) ) Q   F B.'.V.B.N.A.D.B.V.[.B.C.",
"[.[.C.B.[.[.B.[.[.[.[.[.j . Q ) ) ) ) ) ) ) { ) { ) ) { [ ) / ) ) ^ ) Q   j n.'.'.'.n.[.C.C.V.[.C.B.",
"[.[.[.[.[.[.[.[.[.[.[.[.l   R ~ ) ) ) ) ) ) ^ / ) ) ) ) ) ) / / ) ) ~ R . j '._.'._._.'.'._.[.[.[.C.",
"[.[.[.[.[.[.C.V.V.V.C.A.F   0 R ( ^ / / ( ) ) ) ) ) / / / / / / / / R 0 . D N.N.x.].'.n.N.m.N.[.[.[.",
"[.[.[.[.[.[.C.C.C.S.b.h s & o $ T ~ ) ) ( ..R.E.E.E.E.R.=./ / / ~ e $ o & 8 h g.x.x._.x.x.z.N.[.[.[.",
"[.[.[.A.S.C.D.C..XS.v.9 u f   & } W Q Q X.*.%X$XR.R.E.%X*.X.Q Q ! } & . f f 7 f.x.x.z.x.z.z.m.B.A.[.",
"S.S.[.S.D.A.D.D.S.D.v.9  .a.X B &X} q q I.%X%X&.^ ( *.&X&XI.q q v &XB X s.o.8 f.z.z.x.x.N.m.z.D.D.[.",
"D.D.D.D.D.A.D.D.D.D.v.g #.d.3 1 x J.T.W.=X>X>X=X).).=X>X>X*X).T.J.x 2 3 a.#.i g.z.x.n.C.C.A.[.OXD.S.",
"S.D.D.D.D.D.A.D.D.D.v.o.@.e.B < . J.W.>X,X<X<X<X1X<X<X<X<X,X-X$XH.. , B e.@.K j.z.x.A.A.A.D.D.D.D.D.",
"D.D.D.D.D.D.D.D.D.A.A.A.l . 4 3 x O : 4 W.1X<X<X1X<X<X1X1X%Xx O O x a 4 . j x.x.x.N.A.D.D.D.D.S.A.D.",
"A.D.D.A.A.A.D.D.A.A.A.A.9.l * y $.r y K.Y Y U.U.U.U.U.U.Y Y H.c t $.y * k 3.x.`.x.n.A.D.A.A.D.A.[.D.",
"M.A.A.B.m.M.A.m.B.B.m.M.B.m.O s a. .%.*Xx   n a d d n a   x *X%. .a.r * x.m.m.`.m.V.].V.V.V.V.V.].C.",
"m.B.M.m.m.m.m.m.m.m.m.m.m.l.O . O Q.;X<Xn X a.a.a.a.a.p.X B ,X;XQ.@ . O m.].].`.].].].].].].V.V.`.[.",
"m.N.m.m.m.m.m.m.m.m.m.m.m.z.k <   %.!.:XU.o.^.^.~.^.^.~.K w.:X).$.  < G m.].`.].].].].].].].`.].`.].",
"m.m.m.m.m.m.m.m.m.m.x.m.m.m.m.<.  t O.+X@X@X@X@X@X@X@X@X@X@X+X .t   2.].`.`.].`.].].m.].].].].`.].`.",
"].`.m.m.m.m.m.m.m.x.m.m.m.m.m.l.f.< X @ e.^.@X/.d.~./.@X^.e.* O < h.x.].].].].].V.].`.].V.`.`.V.m.].",
"].m.m.x.l.m.x.x.m.x.x.m.x.z.z.f.2., @ = f @.r.t.e.e.e.T.@.f 7 @ < 2.z.].].].].].].].].m.`.].].].].`.",
"x.].m.x.x.x.z.z.x.x.x.x.x.x.x.<.  2 h 6.7     7 A g ;     = 6.h 2   2.]..X].]..X].].].].].].].].].].",
"x.x.x.x.x.x.z.z.z.x.x.z.x.z.+.C , 4 h 6._ } Y.P y d P Y.E _ 6.h b < C 7..X.X.X].].].].].V.].].].`.`.",
"z.z.x.z.x.z.z.z.z.z.l.x.k.u.S S C 4 s _ ] ] (.J.Z Z J.E.X.] 5.s 1 C A A c.b..X.X.X[.].].`.].V.N.'.x.",
"x.z.z.x.x.x.x.z.z.x._.l.7.v p O.d.% o 9 g | ) P.%X%XQ./ E i 8 X - s.O.g g 8.B..X.X'.[.C.].V.A.].'.x.",
"n.x._.z.x.x.z.x._.z.k.+.r.Q.&.#. .# o f 7 7 ^ P.&X&XL.~ 5 ; f # X O.#.e.Q.r.7.b.A.A.V.D.C.A.S.C.N.B.",
"C.n.C.x.B.n.n.x.l.z.k.i t.@X~.&.i # # ` # o ^ P.&X&XP.~ o # ` # X i &.^.@Xt.i v.D.D.A.D.D.S.D.A.A.D.",
"S.B.D.B.D.A.A.B.x.x.u.  o.;X;Xw.  7 9 ` # o ^ P.&X&XL.Q o # ` 9 7   %.;X;X$.  v.A.D.D.D.D.D.D.A.A.D.",
"D.D.D.A.D.D.D.A.N.z.j.G H K o.H j <.z 7 & t ^ P.%X&XQ.^ t & 7 z 1.F H o.K H <.v.D.D.D.D.D.D.D.D.D.D.",
"D.D.D.D.D.D.D.D.B.x.'.B.G     s n.'.3.  r | ^ L.$X%XL.! | r   3.n._.s . . <.A.B.D.D.D.D.D.D.D.D.D.D.",
"D.D.D.D.D.D.D.A.A.V.C.B.x.h.h._.N.V.3.  m U d B L B B c U m   3._._.z.h.h.x.V.N.A.A.D.D.D.A.D.D.D.D.",
"D.A.D.D.Z.A.A.A.A.B.A.A.B.A.B.B.C.u.<.@ M G.M 4 , , x M G.M : G u._._._._.'.x._.M.D.D.D.D.D.D.D.A.A.",
"A.B.A.A.B.A.A.A.A.B.B.V.B.B.C.A.C.V x n U G.F.>     > F.G.N B x V _.n.x._._.`._.x.M.A.D.A.A.A.D.A.A.",
"Z.A.A.B.B.A.B.B.A.B.[.[.[.[.[.V.Z.v c N F.N : D 4.u.D : N F.U t v m.x.z.x._.x._.m.x.A.D.A.Z.Z.A.A.B.",
"B.A.B.C.B.A.C.B.Z.V.[.[.[.[.[.[.'.i t I I L   G `.x.G   L I I t u z.x.x.x.x.x.x.x.x.B.A.A.A.B.A.B.A.",
"[.B.C.[.V.V.V.[.V.[.[.[.[.[.[.[.V.- # ) / W   G x.x.G   W ) ) & * l.x.x.z.x.z.l.m.x.].C.B.[.B.A.B.C.",
"[.[.[.[.[.[.[.[.[.[.[.].'.[.[.].].4.J & & 7 2.4.z.z.u.1.7 & & l 3.l.l.x.z._.x._.{.{.XX`.[.}.{.C.[.[.",
"{.[.[.[.[.[.[.[.[.`.[.`.`.].`.`.'.N.4.* @ a x.z.x.x.z.x.a O * 3.z._._.x._.{._.{.XX}.XX}.}.XX}.{.}.{.",
"XX].[.'.].[.`.[.[.`.].].`.n.'._.`.].x.z.l.l.x.l.x.l.x.z.l.j.l.x.x.}.}._.{.XX{.XXXXXXXXXXXXXXXX}.{.{.",
"XX].[.'.].N.'.].`.'._.'.'._.'._._.'.'._.x.x.x.x.x.x.x.x.z.z.x.{.`.XXXXXXXX{.XXXX}.XXXXXXXXXXXXXXXXXX",
"#X#XOXoXoXoXoXoXoX#XoXoX X'.'.].'.n.].x.n.'.N.x.x.x.x.N.m.x._.{.{.XX}.{.|.{.{.|.|.{.{.|.{.|.}.].|.{."
};
