/* XPM */
static char *result[] = {
/* columns rows colors chars-per-pixel */
"50 50 215 2 ",
"   c #020302",
".  c #0A0B07",
"X  c #050909",
"o  c #0A0B0B",
"O  c #0D130A",
"+  c #1D140B",
"@  c #161915",
"#  c #26080C",
"$  c #2E1016",
"%  c #361010",
"&  c #3D1111",
"*  c #192414",
"=  c #272519",
"-  c #2D331F",
";  c #1B2327",
":  c #252B29",
">  c #2D3C25",
",  c #30362E",
"<  c #343C3D",
"1  c #3B3D3D",
"2  c #4C0F1C",
"3  c #5B151D",
"4  c #482A16",
"5  c #4A301C",
"6  c #513119",
"7  c #653D1B",
"8  c #5E1829",
"9  c #6D1527",
"0  c #711028",
"q  c #77172A",
"w  c #761B33",
"e  c #422424",
"r  c #473B3D",
"t  c #523232",
"y  c #7A332E",
"u  c #2E4124",
"i  c #374A27",
"p  c #3D4D37",
"a  c #724C12",
"s  c #4C542E",
"d  c #47433C",
"f  c #594535",
"g  c #6E5128",
"h  c #644C37",
"j  c #476437",
"k  c #363F41",
"l  c #3F3E42",
"z  c #263E51",
"x  c #413D40",
"c  c #7F2E45",
"v  c #394141",
"b  c #384446",
"n  c #3B4950",
"m  c #3A5463",
"M  c #3E5F77",
"N  c #444746",
"B  c #47564A",
"V  c #58564E",
"C  c #474D58",
"Z  c #6D4C43",
"A  c #7A4643",
"S  c #50664F",
"D  c #577B45",
"F  c #6A7841",
"G  c #796759",
"H  c #607F59",
"J  c #445A76",
"K  c #71576C",
"L  c #746D6E",
"P  c #84321D",
"I  c #861B2C",
"U  c #921F30",
"Y  c #872727",
"T  c #892929",
"R  c #97292D",
"E  c #852E34",
"W  c #9B3637",
"Q  c #A72E34",
"!  c #A33637",
"~  c #BA3637",
"^  c #BD3535",
"/  c #C03635",
"(  c #C13939",
")  c #C53A39",
"_  c #956A12",
"`  c #A57711",
"'  c #844C27",
"]  c #855A29",
"[  c #905629",
"{  c #81473D",
"}  c #C77215",
"|  c #CF473D",
" . c #D54D3F",
".. c #84314A",
"X. c #864B50",
"o. c #A1534E",
"O. c #896957",
"+. c #906A50",
"@. c #A56E50",
"#. c #90566E",
"$. c #BD5F6A",
"%. c #91726C",
"&. c #AF7660",
"*. c #C74B4C",
"=. c #CE5140",
"-. c #DC5341",
";. c #E25A44",
":. c #EC6447",
">. c #EF6748",
",. c #F06848",
"<. c #CC6C70",
"1. c #5D8349",
"2. c #668A4C",
"3. c #779C4F",
"4. c #658759",
"5. c #6C9458",
"6. c #77985E",
"7. c #77A55A",
"8. c #6F9761",
"9. c #7BA864",
"0. c #AF8B09",
"q. c #82843A",
"w. c #C88F0E",
"e. c #C99801",
"r. c #D0AC3B",
"t. c #86875B",
"y. c #84A85C",
"u. c #8D9A60",
"i. c #919D64",
"p. c #AC876F",
"a. c #89AA65",
"s. c #92A366",
"d. c #88BB67",
"f. c #93BD66",
"g. c #8ABE72",
"h. c #A6B062",
"j. c #D0976E",
"k. c #CE9873",
"l. c #D59E76",
"z. c #D89F75",
"x. c #DAA37B",
"c. c #8AC46C",
"v. c #8ACC6E",
"b. c #96C66B",
"n. c #92D16F",
"m. c #97CA75",
"M. c #95D275",
"N. c #99D878",
"B. c #99DA79",
"V. c #B1CF72",
"C. c #A6D775",
"Z. c #A1DF7B",
"A. c #9AE179",
"S. c #A3E27D",
"D. c #ABE67A",
"F. c #A4E87E",
"G. c #ACE87C",
"H. c #B1E877",
"J. c #B2EB79",
"K. c #B6F07C",
"L. c #B9F179",
"P. c #3D6A8A",
"I. c #436582",
"U. c #416989",
"Y. c #4B7985",
"T. c #9B7087",
"R. c #BF7D8D",
"E. c #AB7C92",
"W. c #7A95B0",
"Q. c #83828F",
"!. c #B99D8B",
"~. c #BC879C",
"^. c #9A93AE",
"/. c #8C93B0",
"(. c #B1A0BF",
"). c #C69688",
"_. c #C48090",
"`. c #D5959E",
"'. c #E3AC85",
"]. c #E7B899",
"[. c #D59BA5",
"{. c #D3ABAD",
"}. c #E8BFA5",
"|. c #9FDF80",
" X c #9FE681",
".X c #A0E280",
"XX c #A2E880",
"oX c #A9E980",
"OX c #A5E68A",
"+X c #A6E88C",
"@X c #A8EA8B",
"#X c #B1E18C",
"$X c #B0F080",
"%X c #A8E890",
"&X c #C2E49C",
"*X c #C5E89C",
"=X c #F2C9B0",
"-X c #FCD3BA",
";X c #FBD5BE",
":X c #C4E7A1",
">X c #A9ACC3",
",X c #B9A8C6",
"<X c #BDBDCB",
"1X c #BAB2D2",
"2X c #BDBCDC",
"3X c #B8C0D1",
"4X c #C0C0CD",
"5X c #C9C7DA",
"6X c #E3CFCB",
"7X c #FFDBC1",
"8X c #C9D1E4",
"9X c #D5D3E6",
"0X c #E2DFF1",
"qX c #E5E6F7",
"wX c #EAEAFA",
/* pixels */
"+XOXS.A..X|..X|.|.|.|.|.|.|.|..XZ..X|.|..XZ.N.|.B.N.N.N.N.N.B.OXA.%X@X@X%X%X%X%X%X%X%X%X%X%X%X+X X%X",
"OXA.A.A..X.X.X|. X|.|. X|.|.|..X.X|.|..X|.|.B..XB.N.B.N.B.N. XA.A.A. XXX%X+X X X%X+X%X%X%X X%X+X XA.",
"A.A.A.B.|..XB.|.B.|.|. X.X.X|.|..X|..X|.|..X.X|.B.B.B.B.N.N.B.A.A.A.A.A. X XA. X XA. X%X X X XA.A.A.",
"B.A.N.N.B.B.N.Z.N.|.N.|.Z.|.|..X.X.X.X.X|..X|.A.B.B.|.B.N.B.B.B.A.A.A.A.A.A.A.A. XA.A. XA. X XA.A.A.",
"N.B.N.N.B.N.N.N.N.B.N.|.|.B.Z..X.XC.s.s.i.i.s.s.i.u.i.i.a.N.B.A.A.A.A.A.A.A.A.A.A.A.A.A.A.A.A.A.A.A.",
"N.N.N.N.N.B.N.B.N.N.N.N.B.B.B.A.|.m.w 9 9 9 9 9 0 0 0 0 y B.F..XS.S.A.S.F.A.A.A.A.A.A.A.A.A.A.A.M.A.",
"N.N.N.N.N.N.N.N.N.N.N.B.N.N.c.u t X.Q (  . . . .=.=.-.~ Q h { A C.H.F.L.F.L.A.F.F.A.A.A.A.A.N.N.B.N.",
"B.N.N.N.B.N.B.N.N.N.N.N.N.d.2.# 3 U /  .,.,.,.,.,.,.,.-.) I I Y h.C.L.L.L.L.G.L.K.G.A.A.A.A.N.A.N.N.",
"B.B.M.B.N.N.N.B.N.N.N.N.N.u # ^ ~ | :.,.>.,.,.,.,.,.>.>.:.( ~ ^ q +.L.L.L.L.H.L.L.K.F.J.G.N.N.N.B.N.",
"|.M.B.B.N.B.B.B.B.N.N.B.N.u # ^ ~ ) :.,.,.,.>.>.,.,.>.,.:.~ <.[.y +.L.L.L.L.L.L.L.L.J.L.G.N.N.N.B.N.",
"D.B.M. XN.N.Z.D.B.B.B.M.c., % ^ ^ ) :.>.,.>.,.,.,.,.,.,.:./ [.qX..O.C.J.H.L.L.L.L.L.L.L.G.B.B.D.A.A.",
"H.S.A.F.Z.Z.D.D.Z.Z.G.s.q Q ~ ( ~ | >.,.,.,.,.,.,.,.,.,.:.^ `.wX1XQ.d m.H.H.J.L.L.L.L.L.L.D.S.D.D.F.",
"H.D.D.H.D.D.H.H.D.D.D.u.$ R ( ( ~ ( -.;.,.,.,.,.>.>.,.-.=./ `.0X_.#.m 4.5.8.C.H.G.L.H.L.L.L.H.G.G.H.",
"H.G.H.D.D.H.D.D.G.D.oX7.  Y ) ( ( ( ^ =.:.:.>.:.>.>.>.=.^ / `.0X*.X.P.m N b a.B.S.G.S.H.J.H.G.oXG.H.",
"oXoXG.G.oXoXD.oXoXoXoX7.  Y ( ^ ( ~ / ) | ( ) ) ) ) ) ( ( / R.2X,X/.U.3X9X9XB u .XXXS.S.G.D.oXoXF.G.",
"oXoXoXoXoXoXoXoXoXoXoX7.  Y ) ( ( ( ( ( ( ( ( ( ( ( ( ( / / $.~.1X/.U.8XwXwXQ.V 4.d..X.X.X|.oXoXoXG.",
"oXoXoXoXoXoXF.G.oXF.G.7.  Y ) / ( / ( ( ( ( ^ ( ^ ( ( ^ ( ( ~ ( (./.U.8XwXqXwX4Xo D |.|.S.A.S.oXoXoX",
"oXoXoXoXoXG.G.F.F.K.G.7.  3 U ) ( ( ( ^ ( ^ ( ( ( ( ( ( ( ( ( ( c T.8XqXwXqXwX4X  2.|.B.B.N.S.oXoXoX",
"oXoXoXJ.J.oXL.D.K.K.G.f.> 2 3 T Q Q ( ^ ( ( ( ^ ^ ( ( ( ~ ( ~ Q ..E.0XqXqXqXwX4XX 1.N.N.n.N.A.D.J.oX",
"J.J.oXK.L.L.L.L.K.L.L.L.K.i     2 w ^ ( ( ( ( ( ( ( ( ( ( ( U w (.1X1X0XwXwXwX4X  D B.B.S.A.A.L.L.oX",
"$XL.L.L.L.L.L.L.L.L.L.b.i , : : # # & & & & & & & & & 0 I I #.E.>X1X1X5X5X5XL B 2.d.Z.G.D.J.oX*XL.K.",
"L.L.L.L.L.L.L.L.L.L.C.2.X , b v ; X X X X X X X X o + t ..3 T.(.(.(.^.^.^.^.v u B.B.H.J.J.L.L.L.L.L.",
"L.L.L.L.L.L.L.L.L.H.* O b b k k k < 1 1 k < < p < V l.6X2XX $ c c e     X X 5.B.B.S.J.L.L.L.L.L.J.L.",
"H.L.L.L.H.H.L.L.H.L.3.j @ @ ; p k k k d h O.G < G &.z.6X5XX Z ).).O.e S D D c.XXB.S.L.L.J.L.L.G.oXL.",
"H.H.H.D.A.H.H.A.F.D.A.7.O O * , < < k h [ j.p.N p.x.x.6X5XO %.;X;X).X.m.oX.XA.A.A.A.$XF.XXF.F.F. XK.",
"A.D.D.A.A.A.A.A.A.A.A.N.n.n.7.    o k h [ j.z.k.x.'.=X-X-X=X=X-X-X=Xj.C.XXXXXX XXXXXXXXXXXF.F. X XXX",
"A.S.S.A.A.n.A.A.A.A.A.A.A.A.v.j *   ; = 6 O.&.&.k.x.].].}.;X=X].).p.V.oXF. X X XXXXXA.XXXXF. XXX XXX",
"A.A.A.A.A.A.A.A.A.B.A.A.A.A.A.A.j   X     , r h p.x.x.z.x.=X'.j.X.t..X X X XF. XXXXXXXXXXXXXF.XX XA.",
"oXA.A.A.A.A.A.A.B.A.A.A.A.B.A.A.v.c.c.F 4 4 t N Z +.x.@.A : $ = b.|.XXXXXXXXXXXXXXXX X X XXX XXXXXXX",
" XA.A.B.A.A.N.N. XB.N.A.B.B.A.A.d.y.y.q.a g 7 s ] @.].%.V u i s A.XXoX@X$XXXXXXXXXXX XXXXXXX XXXXXXX",
"A.XXA.B.B.A.N.N.B.N.N. XB.N.A.B.F 6 5 _ e.[ _ e.e.r.wXW.Y.$XG.J.$X$X$XXX$XXXXXXXXXA.XX XXXXXXXXXXXXX",
"B.B.B.N.N.N.N.N.N.N.N.N.N.N.n.g _ ` ' 7 P f f h 0.w.<.(.<XS d.J.$XK.$X$X$XXX$X$XXXXXXXXXXXXXXXXX XA.",
"B.N.N.N.N.N.N.N.N.N.N.N.N.N.d.5 _ e.' T E r k k ` } / {.5Xb 6.D.J.D.J.$X$X$X$X$X$X.XXXXXXXF.F.XX.XB.",
"N.B.N.B.B.N.N.B.N.B.N.N.N.N.d.5 _ w.0 o.x.N k b ..) ) _.>Xb 6.H.D.H.H.$XH.$XD.$XJ.oXXXG.XXF.J..X.XB.",
"B.B.B.B.B.B.B.B.N.N.N.N.B.B.a.+ a _ % { x.!.G @ W ( ) _.>Xb 6.H.D.H.H.H.H.H.H.H.J.J.G.K.G.L.K.G.S.D.",
"J.Z.G.B.D.S.S.B.N.B.N.B.N.B.9.  6 g   h '.-Xp.  R ( ~ E.^.B u.D..XH.D.D.D.H.J.H.K.L.J.L.J.L.L.J.G.L.",
"K.J.L.D.L.J.J.D.B.N.B.B.N.N.9.  4 g   G 7X7Xp.  R Q 0 t V |..X.X.XH.|.H.H.D.H.L.L.L.H.L.L.L.L.J.J.L.",
"L.K.L.L.L.J.L.J.S.N.B.B.N.N.v.D s 4 4 t G L Z % q U t 1 B |.|.|.|..X|.H.D.D.L.L.L.L.L.L.L.L.L.L.L.L.",
"L.J.L.L.L.L.L.L.D.B.S.D.Z.B.A.A.s . ' 4     # 0 q 8 b b b M.|.|..X|.|.H.|.oXL.H.L.L.L.L.L.L.L.L.L.L.",
"L.L.L.L.L.L.L.J.H.oXG.H.D.S.c.@ : < l < < , < r J J P.;   O 1.|.|..X.X|.|.D.D..XH.L.L.L.L.L.L.L.L.L.",
"L.J.J.L.H.J.J.H.J.D.H.H.H.D.f.  : k < k k v k v M U.U.z ; @ S 9.9.g..X|..XB.|.|.D.H.L.L.L.L.L.L.J.L.",
"L.H.J.H.H.J.H.H.H.H.D.oXG.D.c.  : b 1 v v v v b M U.U.U.P.k p v k H |.B..X|.|.|.A.D.J.L.J.H.H.L.H.H.",
"H.H.H.G.G.H.H.D.H.G.oXoXoXoXZ.d.i O o j m.c.g.g.S n n I.I.! ! ! x H B.N.B..XB.|.B.B.J.L.J.H.H.J.H.H.",
"G.D.H.G.G.G.G.S.D.oXoXoXoXoXG.G.2.- > 2.D.S.|.B.4.B : C K ( ! T V 8.N.N.B.B.N.B.B.N.H.L.H.H.H.H.G.H.",
"oXD.G.oXG.oXoXoXF.oXoXoXoXoXoXoXoXoXG.G.A.A.N.A.|.9.  q ) ) 3 . c.N.B.N.B.B.M.M.|.|.XXH.H.oXG.G.G.G.",
"oXoXoXoXoXoXoXoXoXXXoXoX X.XXXXXXXoX.XA.B.A.N.N.M.c.2.f & & s 7.M.B.N.N.M.|.|.|. X X%XXXXX+XOXG.oXoX",
"+XoXoXoXF.oXoXoXoX XF. X.X X.XS..XS. XB.B.B.N.N.A.N.N.j @ @ 2.N.B.|.|.N.|.OX|. X%X%X%X%X+X%X+XXX+XOX",
"+XXXoX.XXXoX XoXoX XXXXX.X.X X X|. X|.B.N.B.N.N.N.N.N.M.M.M.M.B.B.OXOX|.OX%X%X%X%X%X%X%X%X%X%X%X%XOX",
"%XOXoX XS. X X.X X XB..X|..X.X|.|..X|.B.B.B.B.B.B.B.B.B.B.N.N.OX X%X%X%X%X+X%X%X+X%X%X+X%X%X+X%X%X+X",
":X*X*X&X&X&X&X&X*X:X:X&X#X|..XoX.X|.oXB..X.XZ.A.B.B.B.S.A.B.A.OXOX+X+XOXOXOXOX@X@XOXOX@XOX@X@XOX@XOX"
};
