/* XPM */
static char *result[] = {
/* columns rows colors chars-per-pixel */
"50 50 205 2 ",
"   c #020303",
".  c #080606",
"X  c #050909",
"o  c #0B0C0B",
"O  c #180D0E",
"+  c #0D120A",
"@  c #191918",
"#  c #24090B",
"$  c #2C1211",
"%  c #361010",
"&  c #3D1111",
"*  c #1B2615",
"=  c #272519",
"-  c #322C17",
";  c #191F21",
":  c #1C2222",
">  c #272929",
",  c #2B3C22",
"<  c #2B362A",
"1  c #363729",
"2  c #2B3232",
"3  c #343D3D",
"4  c #393E3D",
"5  c #4C0F1C",
"6  c #5C121F",
"7  c #482B16",
"8  c #4A301C",
"9  c #513119",
"0  c #653D1B",
"q  c #5D1120",
"w  c #710F28",
"e  c #701028",
"r  c #76182A",
"t  c #70192D",
"y  c #49392F",
"u  c #582734",
"i  c #782221",
"p  c #71373A",
"a  c #2E4124",
"s  c #364A27",
"d  c #3A433F",
"f  c #714C12",
"g  c #504F2F",
"h  c #5B4433",
"j  c #6B552D",
"k  c #634A35",
"l  c #476438",
"z  c #52693E",
"x  c #786B33",
"c  c #383F41",
"v  c #4B3743",
"b  c #7F2E45",
"n  c #364242",
"m  c #394242",
"M  c #394549",
"N  c #364B57",
"B  c #3C576A",
"V  c #3E5B71",
"C  c #3C627D",
"Z  c #454948",
"A  c #505151",
"S  c #794443",
"D  c #705449",
"F  c #577943",
"G  c #556C50",
"H  c #6A7841",
"J  c #796759",
"K  c #645E76",
"L  c #5A6871",
"P  c #861B2C",
"I  c #921F30",
"U  c #882828",
"Y  c #99282E",
"T  c #A72E34",
"R  c #A33035",
"E  c #BC3536",
"W  c #BB3838",
"Q  c #C03534",
"!  c #C13939",
"~  c #C53938",
"^  c #926C0E",
"/  c #9F6A17",
"(  c #A57214",
")  c #874E28",
"_  c #895427",
"`  c #8A5129",
"'  c #915727",
"]  c #81473D",
"[  c #CF473D",
"{  c #D54D3F",
"}  c #84314A",
"|  c #864B50",
" . c #896957",
".. c #906A50",
"X. c #A76E53",
"o. c #90566E",
"O. c #BD5F6A",
"+. c #91726C",
"@. c #AF7660",
"#. c #C74B4C",
"$. c #CE5140",
"%. c #DC5341",
"&. c #E25A44",
"*. c #EC6447",
"=. c #EF6748",
"-. c #F06848",
";. c #CE756B",
":. c #5C8249",
">. c #67894C",
",. c #668857",
"<. c #6B9259",
"1. c #77A459",
"2. c #7A9E62",
"3. c #7AAE61",
"4. c #82843A",
"5. c #C59501",
"6. c #CA9900",
"7. c #D0AD3D",
"8. c #84A85C",
"9. c #919D64",
"0. c #93916E",
"q. c #AD876E",
"w. c #B8886A",
"e. c #89AA65",
"r. c #92A366",
"t. c #87B966",
"y. c #85BC69",
"u. c #93BD66",
"i. c #D1936D",
"p. c #CC9872",
"a. c #D59E75",
"s. c #D99C75",
"d. c #DAA37B",
"f. c #8AC66C",
"g. c #95C56C",
"h. c #92D16F",
"j. c #8DC373",
"k. c #95CA74",
"l. c #97D677",
"z. c #99DA79",
"x. c #B1CF72",
"c. c #A6D775",
"v. c #A1DF7B",
"b. c #9AE179",
"n. c #A3E27D",
"m. c #ABE67A",
"M. c #A4E87E",
"N. c #ACE87C",
"B. c #B1E877",
"V. c #B2EB79",
"C. c #B6F07C",
"Z. c #B9F179",
"A. c #3F6481",
"S. c #3E6B8B",
"D. c #406685",
"F. c #416989",
"G. c #4B7985",
"H. c #9B7087",
"J. c #B37C90",
"K. c #7A95B0",
"L. c #83828F",
"P. c #BA879D",
"I. c #8790AF",
"U. c #9A93AE",
"Y. c #A894B0",
"T. c #B1A0BF",
"R. c #C69688",
"E. c #C48090",
"W. c #D5959E",
"Q. c #DDA982",
"!. c #E7B899",
"~. c #D59BA5",
"^. c #DCB8A2",
"/. c #E8BFA5",
"(. c #9FDF80",
"). c #9FE681",
"_. c #A0E280",
"`. c #A1E880",
"'. c #A9E980",
"]. c #A5E68A",
"[. c #A6E88C",
"{. c #A8EA8B",
"}. c #B1E18C",
"|. c #B0F080",
" X c #A8E890",
".X c #C2E49C",
"XX c #C5E89C",
"oX c #C5C0A7",
"OX c #F2C8AF",
"+X c #FCD3BB",
"@X c #F9D3BD",
"#X c #C4E7A1",
"$X c #B9A8C6",
"%X c #AFBDCD",
"&X c #BBBBC9",
"*X c #BAB2D2",
"=X c #B8C0D1",
"-X c #C0C0CD",
";X c #C8C5D9",
":X c #EAD2C8",
">X c #C9D1E4",
",X c #D5D3E6",
"<X c #E2DFF1",
"1X c #E5E6F7",
"2X c #EAEAFA",
/* pixels */
"[.].n.b._.(._.(._.).(.(.(._._.(._._.(.(._.v.z.(.z.z.z.z.l.z.z.].b. X{.{. X X[. X X X X X X X X[.).[.",
"].b.b.b._._.(._._._.(.(._.(._._._.(.(._._.(.z._.z.z.z.z.z.l.z.b.b.`.).). X[.b.[. X[.[. X[.[. X[.).b.",
"b.b.b.z.(._.z.(.(.z.(.(._._._.(.(._._.(._.(._._.z.z.z.z.z.z.z.b.b.b.b.b.].b.b.).[.b.). X).).[.).b.b.",
"z.b.l.z.z.z.z.v.z.z.z.).(.(.v.(._.v.(._.(.(._._.z.z.z.z.z.z.z.b.b.b.b.b.b.b.b.b.b.b.b.).b.b.`.b.b.b.",
"z.z.z.l.z.z.l.z.l.z.z.z.z.z.(.(.(.c.r.9.9.9.9.9.9.9.9.9.r.l.z.b.b.b.b.b.b.b.l.b.b.b.b.b.b.b.b.b.b.b.",
"z.z.l.z.z.z.l.l.l.z.z.l.z.z.z.(.(.k.t t e e e r e e e e p l.m.M.z.m.b.n.M.b.b.b.b.b.b.b.b.b.b.h.b.b.",
"l.z.l.z.z.l.z.l.z.l.z.l.z.z.f., y ] T W $.$.$.$.$.$.$.W R S ] j x.Z.M.Z.M.V.n.M.M.b.b.b.b.b.h.b.h.b.",
"l.z.z.l.z.z.l.z.z.l.z.z.l.y.>.# e I ~ %.-.-.-.-.-.-.-.%.! P P I u.c.Z.Z.Z.Z.m.Z.C.V.b.b.b.b.z.b.l.l.",
"z.z.l.z.z.l.z.z.z.z.l.z.z.a # W W ~ *.-.=.-.-.-.-.-.=.-.*.! E E w ..Z.Z.Z.Z.V.Z.Z.Z.M.V.m.l.z.z.l.z.",
"z.z.z.l.l.z.l.z.z.l.z.l.z.a # W ! ~ *.-.-.-.=.-.-.-.-.-.&.! ;.~.P ..Z.Z.Z.Z.Z.Z.Z.Z.V.Z.m.z.z.z.z.l.",
"m.z.l.z.l.z.z.m.l.z.z.l.u.1 % W ! ~ *.-.-.-.-.=.-.=.-.-.*.Q ~.1X} +.c.}.Z.Z.Z.Z.Z.Z.Z.Z.V.z.z.n.b.b.",
"B.n.b.N.n.v.m.m.n.n.m.r.r R W ! E [ =.-.-.=.-.=.-.-.-.-.*.Q W.1X;XG.g k.B.B.V.Z.V.Z.Z.Z.Z.m.n.B.m.M.",
"B.m.m.B.m.B.V.B.m.m.m.8.% I ~ ! W ! { &.=.=.-.=.=.=.=.%.$.Q W.1XE.+.B ,.<.<.c.V.m.Z.V.Z.Z.Z.B.m.N.m.",
"V.m.m.m.B.m.m.m.N.m.M.1.  U ~ W ! ! E { =.*.=.=.=.=.*.$.E E W.<X#.| F.Z Z M e.b.M.m.n.B.V.V.'.'.m.V.",
"'.'.N.m.N.'.N.'.'.'.'.1.  U ~ Q ! ! ! ~ #.~ ~ ~ ~ ~ ~ ! ! Q E.*X$XI.F.=X,X,XA a _._._.N.m.m.'.'.'.m.",
"'.'.'.'.'.'.'.'.'.'.'.1.  U ~ Q Q ! W ! ! ! ! ! ! ~ ! ! ! Q O.P.*XI.F.>X2X2XL.A >.y.(._._.(.'.'.'.N.",
"'.'.'.'.M.N.M.M.M.M.M.1.  U ! ! ! W ! ! Q ! ! Q ! ! ! ! Q ! Q ! T.I.F.>X2X2X2X-Xo >.(.(.v.z.`.'.'.'.",
"'.'.'.'.N.M.N.m.N.C.N.1.  6 I ~ ! ! ! Q ! W ! W ! ! ! W W ! ! W b H.>X1X2X2X2X&XX F z.z.z.z._.'.'.'.",
"N.'.'.|.C.'.Z.B.C.C.C.u., 5 6 U Y E W ! ! ! ! W W ! ! ! ! ! W T } J.<X1X1X2X2X&XX :.z.z.z.l.v.'.V.'.",
"V.V.'.Z.Z.V.Z.Z.C.Z.Z.Z.V.s     5 r W ! ! ~ ! ! ~ ! ! ! ! ! I t T.*X*X<X2X2X2X&XX F z.z.v.n.z.Z.Z.'.",
"XXZ.Z.Z.Z.Z.Z.Z.Z.Z.Z.g.s < > > O # % & & & % & & & & q P P o.J.$X*X*X;X>X;XL A >.y.z.V.N.V.'.|.Z.Z.",
"Z.Z.Z.Z.Z.Z.Z.Z.Z.Z.c.>.o 2 M m ; . X X X X X X X + @ u } q H.T.T.Y.U.U.U.U.g a z.z.V.V.V.Z.Z.Z.Z.Z.",
"Z.B.Z.Z.Z.Z.Z.Z.Z.B.* + n n d d c c c c c c 3 3 3 A p.:X-XX % b k u   X X X <.z.l.n.V.Z.Z.Z.Z.Z.V.Z.",
"B.Z.Z.Z.B.B.Z.Z.B.B.1.l @ @ : d c c c h k  .J 3 J q.d.:X;XX D P.R.o.- z F G f.).z.n.Z.Z.V.V.Z.V.'.V.",
"B.B.B.B.b.B.B.b.M.m.b.3.+ + * < 3 c c h ' i.0.g w.d.d.:X;X+ +.@X:XQ.| k._.`.z.).M.b.M.M.`.M.N.M.`.V.",
"b.B.B.b.b.b.b.b.z.b.b.l.h.h.1.    o c k ' a.s.a.d.d.OX@X@XOXOX@X@X/.i.c.).`.`.`.).`.M.`.`.`.M.`.`.`.",
"b.b.b.b.b.b.b.b.b.b.b.b.b.b.f.l *   : - 9  .+.@.p.d.!.!./.@XOX!.R.p.x.'.`.).`.`.`.).`.M.`.`.`.`.`.).",
"b.b.b.b.b.h.b.b.b.b.b.b.b.b.b.b.s   X     2 d b i.p.d.d.d.OXQ.p.p 0._.`.).`.b.`.).`.).`.).M.`.`.).`.",
"`.b.b.b.b.b.b.b.z.z.b.b.z.b.b.b.l.f.f.z 7 8 y c S ..s.X.k = = $ f.(.`.`.`.`.`.`.`.M.).`.`.`.`.`.).`.",
"`.b.b.z.b.b.l.b.).z.z.b.z.z.b.b.f.8.u.4.f 0 f j _ X./.+.A g s s b.`.|.].|.`.`.`.`.`.`.).`.`.`.`.`.).",
"b.`.b.z.b.b.h.b.b.z.z.z.z.z.).l.H 9 9 ^ 6.' / 6.5.7.2XK.G.{.|.|.|.|.C.{.|.`.`.`.`.b.M.).`.b.).`.b.`.",
"z.z.z.z.l.l.l.l.z.l.z.z.z.l.j.j / ( f ^ 6.- - j g x 7.oX%XG t.C.C.C.M.|.|.`.|.|.`.`.`.).`.`.`.).`.`.",
"z.z.l.z.z.z.l.z.l.z.z.l.z.l.t.8 ^ 6.' ( 5.% @ 3 A j ( Q.&Xc 2.B.B.m.B.|.|.|.|.|.|._.`.`.`.).M.)._.z.",
"z.z.l.l.z.z.z.l.z.l.l.z.l.z.t.9 ^ 5.` ( 5.i u d q.i.~ k c c 2.m.m.B.B.|.V.V.N.|.|.N.`.m.`.N.V.`.(.(.",
"z.z.z.z.z.z.z.z.l.z.l.z.z.l.t.O f / _ ' / r e u w.s.;.p.0.: >.m.m.B.B.m.B.m.B.B.B.V.N.C.N.V.Z.m.(.m.",
"V.v.m.v.m.n.v.z.z.l.z.l.l.l.3.  9 ` ) ) ) r e e X.i.d.OX^.. z m._.B.m.B.B.m.Z.B.C.Z.V.Z.Z.C.Z.V.V.Z.",
"C.V.Z.m.Z.V.V.m.z.l.l.z.z.z.3.  7 ' ) ` ) r w w # y :X+X/.. F (.v.m.v.B.B.B.B.Z.Z.Z.Z.Z.C.Z.Z.Z.V.Z.",
"Z.C.Z.Z.Z.V.Z.V.n.l.z.z.l.z.f.z g 7 7 9 h u u u : 2 J J D > ,.)._._.(.m.m.m.Z.Z.Z.Z.Z.Z.Z.Z.Z.Z.Z.Z.",
"Z.Z.Z.Z.Z.Z.Z.Z.N.z.'.m.z.z.M.).l     : M n c n c 2     X 3 <.(.(._.(.m.(.N.Z.B.B.Z.Z.Z.Z.Z.Z.Z.Z.Z.",
"Z.Z.Z.V.Z.Z.Z.V.N.'.N.V.m.n.N._.l.f.d N A.A.D.C Z c 3 2 2   o * k._._.(.(.'.m._.Z.Z.Z.Z.B.Z.Z.Z.Z.Z.",
"Z.Z.V.Z.B.V.V.B.V.B.B.B.m.B.B.N.k.3.B V D.V V V M 4 c c c @ o X k._._.(._._.(.(.m.B.Z.Z.Z.Z.Z.Z.V.V.",
"V.B.V.V.B.V.B.V.B.B.m.'.m.m.N.m.G c D.D.D.M c M n n c c c n * + j.(.v.z.(.(.(.).z.m.V.Z.V.B.V.Z.V.B.",
"B.B.B.m.m.V.m.m.N.m.'.'.'.'.k.G V A.S.N @ c G y.j.<.X o o o l 3.l.z.z.z.z.(.z.z.z.z.V.Z.V.B.B.V.B.B.",
"m.B.m.N.N.B.N.N.B.'.'.'.'.'.j.2 A K K v # > G z.(.y., , , , <.l.z.z.l.z.z.z.z.z.z.l.B.Z.B.B.B.B.m.B.",
"'.N.N.'.M.N.'.'.M.'.'.'.'.'.t.  i ~ ! ! E O s z.z.z.z.z.z.l.z.z.z.z.l.z.z.z.l.z.b.z.`.N.m.'.m.V.B.N.",
"'.'._.'.'.'._.'.'.`.'.`.).`.l.1.g % & & % >.3.l.l.z.l.z.l.z.z.l.z.z.z.l.l.(.z.z.].].[.].M.[.].N.'.{.",
"].'.'.'.'.'.'.'.'.`.'.).).`.).).F + * * * f.z.l.z.z.z.z.z.l.z.z.l.(.(.l.(.].(.].[.[. X[.[. X[.]. X`.",
"].`.'.`.`.'.).'.'.).n.`._.(.`.(.(.(.z.l.l.z.l.z.l.l.z.l.l.z.z.z.z.].].).]. X]. X X X X X X X[.[. X`.",
" X[.'._.`.n.).`.).(.(._.).(.(.(._.(.(.z.z.z.z.z.z.z.z.z.z.z.z.].]. X[.[. X[. X X{. X X{. X X X X X].",
"#XXXXX.X.X.X.X.X.X#X.X.X}.(._.'._._.'.z._.`.v.z.z.z.z.n.b.z.z.].].[.].].[.].].[.{.[.].[.].[.{.{.{.]."
};
