/* XPM */
static char *result[] = {
/* columns rows colors chars-per-pixel */
"50 50 196 2 ",
"   c #020101",
".  c #0B0303",
"X  c #090A06",
"o  c #050808",
"O  c #0D0E0D",
"+  c #150C05",
"@  c #120F0D",
"#  c #0E130B",
"$  c #1A1303",
"%  c #1E120A",
"&  c #141A0E",
"*  c #0B0F10",
"=  c #141314",
"-  c #151E11",
";  c #181A15",
":  c #15161B",
">  c #1B1B1B",
",  c #21140A",
"<  c #230910",
"1  c #300811",
"2  c #241D17",
"3  c #351313",
"4  c #3D1111",
"5  c #1C2518",
"6  c #3C2E02",
"7  c #242614",
"8  c #24321C",
"9  c #1B1C28",
"0  c #201C20",
"q  c #0A2D32",
"w  c #142D31",
"e  c #232323",
"r  c #262827",
"t  c #2D2D2D",
"y  c #39342A",
"u  c #282A39",
"i  c #2A3234",
"p  c #343434",
"a  c #333B3D",
"s  c #3D3D3D",
"d  c #4C0B1B",
"f  c #540C1E",
"g  c #481417",
"h  c #4C380D",
"j  c #553313",
"k  c #623F15",
"l  c #690F26",
"z  c #751927",
"x  c #721129",
"c  c #493628",
"v  c #52392C",
"b  c #523E3E",
"n  c #6C2222",
"m  c #732F35",
"M  c #633D3D",
"N  c #743036",
"B  c #7B3630",
"V  c #344C2E",
"C  c #3D5631",
"Z  c #594A19",
"A  c #6E4B12",
"S  c #765111",
"D  c #4D4A2E",
"F  c #5B4835",
"G  c #435835",
"H  c #5F5830",
"J  c #6E4E2B",
"K  c #604933",
"L  c #4A663A",
"P  c #506E3E",
"I  c #54733E",
"U  c #5A753D",
"Y  c #2B3843",
"T  c #353F41",
"R  c #154A52",
"E  c #354041",
"W  c #3B4141",
"Q  c #3B464A",
"!  c #354D5A",
"~  c #36536A",
"^  c #524A49",
"/  c #425646",
"(  c #774441",
")  c #665447",
"_  c #547742",
"`  c #5B7354",
"'  c #657246",
"]  c #7A7647",
"[  c #7E6A5D",
"{  c #871B2D",
"}  c #972C2C",
"|  c #952531",
" . c #992C32",
".. c #853B3B",
"X. c #973B3B",
"o. c #A42F2F",
"O. c #AA2D33",
"+. c #B12E35",
"@. c #A63031",
"#. c #AB3232",
"$. c #A63A3A",
"%. c #B33135",
"&. c #BF3738",
"*. c #BD3938",
"=. c #C13838",
"-. c #976E09",
";. c #9D700E",
":. c #98621E",
">. c #9F6A1A",
",. c #A87A09",
"<. c #B27F0E",
"1. c #A06B19",
"2. c #8A5126",
"3. c #885128",
"4. c #8B522E",
"5. c #955E21",
"6. c #AD4233",
"7. c #CD453C",
"8. c #875D43",
"9. c #AB444B",
"0. c #8C674A",
"q. c #91754F",
"w. c #8B6955",
"e. c #8E7C54",
"r. c #A9715D",
"t. c #987760",
"y. c #D85040",
"u. c #E25A43",
"i. c #EC6447",
"p. c #F06848",
"a. c #5C8249",
"s. c #688C49",
"d. c #6D875C",
"f. c #6B9755",
"g. c #76A45D",
"h. c #78B15F",
"j. c #79A861",
"k. c #7EB264",
"l. c #A98100",
"z. c #BB8908",
"x. c #C69601",
"c. c #CA9900",
"v. c #8C965D",
"b. c #BF855C",
"n. c #A2AB5F",
"m. c #909B63",
"M. c #AD8263",
"N. c #B68969",
"B. c #91AB67",
"V. c #8ABA68",
"C. c #ACBE6A",
"Z. c #C48E67",
"A. c #D49D75",
"S. c #8CC36C",
"D. c #92C66D",
"F. c #8EC871",
"G. c #92CD74",
"H. c #98C972",
"J. c #95D275",
"K. c #99D375",
"L. c #98DB76",
"P. c #9AD77A",
"I. c #99DA79",
"U. c #A5DA73",
"Y. c #ADDB70",
"T. c #A1DF7B",
"R. c #9AE179",
"E. c #ADE275",
"W. c #A3E27D",
"Q. c #ABE67A",
"!. c #A4E87E",
"~. c #ACE87C",
"^. c #B3E875",
"/. c #B3EB78",
"(. c #B6F07C",
"). c #B9F179",
"_. c #3F6481",
"`. c #426988",
"'. c #BC9C89",
"]. c #E7B38F",
"[. c #9FDF80",
"{. c #9EE581",
"}. c #A0E280",
"|. c #A2E880",
" X c #A8E880",
".X c #A5E68A",
"XX c #A6E88C",
"oX c #A8EA8B",
"OX c #B1E18C",
"+X c #B0F080",
"@X c #A8E890",
"#X c #C2E49C",
"$X c #C5E89C",
"%X c #EEC0A1",
"&X c #FED6BD",
"*X c #C4E7A1",
/* pixels */
"XX.XW.{.}.}.[.}.}.[.}.}.[.}.}.}.}.[.}.}.[.T.P.I.P.P.L.P.P.L.[.{.R.XXXXXX@X@X@X@X@X@X@X@X@X@X@XXX{.XX",
".XR.I.R.[.[.[.[.[.}.[.[.[.[.[.}.[.T.[.}.[.[.T.[.I.I.P.P.L.L.[.[.R.oX{.{.@XXX{.{.@XXXXX@XXXXX@XXX{.R.",
"R.R.R.I.}.}.I.W.I.[.{.[.}.}.[.[.[.}.[.T.[.[.P.T.K.K.K.K.J.J.L.L.R.R.R.R.|.{.R.{.XXR.{.@X|.{.XXR.R.R.",
"L.R.L.L.I.I.I.I.I.I.P.[.[.T.[.}.[..XB.N N N N N N N N N m m m V.R.R.R.R.R.R.R.R.R.R.R.{.R.R.|.R.R.R.",
"L.P.L.L.P.P.I.P.P.L.P.P.T.P.T.H.m.m.e.{ |  . . . . . . . .| { e.m.v.D.R.R.R.L.R.R.R.R.R.R.R.R.R.L.R.",
"P.L.P.L.P.I.P.L.L.P.P.L.I.P.T.v.x x { =.u.p.p.p.p.p.p.p.p.u.=.{ x x v.R.R.!.R.R.R.R.R.R.R.R.L.L.L.R.",
"L.J.L.P.L.J.P.L.P.L.P.P.P.G.V v O.+.*.u.p.p.p.p.p.p.p.p.p.i.u.*.O.O.k C W.^.R.!.!.R.R.R.R.L.L.R.L.L.",
"P.P.P.P.L.P.L.P.L.P.L.L.L.G.# g =.=.7.p.p.p.p.p.p.p.p.i.p.i.i.y.*.=.g & ^.).~.).(.~.R.R.R.R.L.L.L.L.",
"P.I.L.P.P.L.P.L.L.L.L.P.L.J.& g =.*.7.p.p.i.p.p.p.p.p.p.p.i.p.y.&.=.g - ^.(.).).).).!.~.Q.P.I.P.L.J.",
"I.I.J.P.P.L.P.I.P.P.L.P.m.( g z =.=.7.p.p.p.p.p.p.p.p.p.p.p.i.7.=.=.z g 8.n./.).).).(.).Q.L.P.P.L.L.",
"E.T.I.{.I.P.T.Q.P.I.I.I.] l x | =.=.7.i.i.p.p.p.p.p.p.p.p.p.i.7.=.=.| x l e.).).).).).).~.I.P.W.I.[.",
"Q.W.R.W.T.T.Q.Q.T.T.~.I.I . O.=.=.=.=.=.u.p.p.p.p.p.p.p.p.y.&.&.=.=.=.o.. U ).).).).).).).^.Q.Q.!.|.",
"^.Q.Q.^.Q.Q.Q.^.Q.Q.~.T.I . @.=.=.=.=.=.7.y.y.y.y.y.y.y.y.y.&.&.=.&.=.#.. _ ^.^.Q././.).).).^.~.^.^.",
"^.~.Q.Q.^.^.Q.~.~.~. X XI . O.=.=.=.=.=.&.&.=.&.&.&.&.&.=.=.&.&.=.&.=.#.. _ Q.}.W.~.W././.Q.~. X~.~.",
" X X~.~. X X~. X X X X~._ . %.=.=.&.*.=.=.=.*.=.&.=.&.=.=.*.*.=.&.=.=.O.. _ [.}.W.}.R.!.~.~.~. X X~.",
" X X X X X X X X X XT.j.G @ n } =.=.=.=.=.=.=.&.=.&.=.=.=.=.&.=.=.=.| n @ C j.P.}.}.}.}.}.}. X X X~.",
" X X X X X X!.!. X XJ.r e e   g =.=.=.=.=.=.=.=.=.&.=.=.=.=.=.=.=.=.g   e e r G.I.}.[.}.I.T.}. X X X",
" X X X X X X~.!. X/.K.r ) M.@ 1 { %.=.=.=.=.=...b b ..=.=.=.=.=.%.{ 1 + M.) r F.P.I.[.I.L.L.}. X X X",
" X~. X+X). X(.~.~.).U.c w.A.2 < f O.=.=.=.*.X.M a V M $.&.=.&.=.O.f < 2 A.w.y F.I.I.P.P.L.L.R.^./. X",
"(.(. X).).).).).(.).Y.( r.A.y :    .=.=.=.$.s s E E T T $.=.=.=.}   : y A.r.( H.P.P.I.I.W.R.L.).). X",
").).).).).)./.).).).).C.] y 7 > ; 3 4 4 } &.X.X.X.X.X.X.=. .4 4 3 : e r c ' B.P.L.L.I.^.!.).!.$X).).",
").).).).).).).).).).).).s.- 7 e e O o o n o.o.o.o.o.o.o.O.n o o * e 0 > ; _ L.I.P.P././.^.).).).).).",
").).).).).).).)././.).).^.U.& # r p s s =                 = T s p r * # F.P.L.I.L.T.).).(.).).)./.).",
"^.).).)././.).(.^.^.).E.^.E.& o = p s s t e e e e e e e e r a b p = o & J.R.L.!.I.W./.)././.(./. X/.",
"E.^./.Q.R.^.^.R.!.~.R.Q.^.L.8 X   t s a s s V s b s s V s s s s i   X 5 L.{.R.{.R.R.!.!.!.!.!.!.|.~.",
"R.Q.E.R.R.R.R.R.R.R.R.R.R.R.L._   > t b s s s s s a s s s s s p >   a.L.R.{.{.|.|.|.!.|.|.!.!.{.|.|.",
"R.W.R.R.R.L.R.R.R.L.L.R.R.R.R.h.C 5 : e p p s s s s s s p r e : 5 L k.{.|.|.|.{.|.|.!.{.|.|.!.{.|.{.",
"R.R.R.R.L.R.R.R.L.R.R.R.L.R.L.L.R.8   . : r s s s s s p r : . . 8 {.{.{.|.|.{.|.|.|.|.|.|.|.{.|.|.|.",
"{.R.R.I.R.R.R.R.R.I.R.R.I.R.R.L.R./ D l.6   o > r r :   o 6 ,.D i 5 g.{.|.|.|.|.|.|.|.|.!.{.{.|.!.{.",
"{.{.R.L.L.R.L.L.{.I.I.R.R.I.L.S.f.Q H c.h $ 6 h Z Z h h % h c.H i = P h.|.|.|.|.|.|.|.|.{.|.|.!.|.|.",
"I.{.{.P.P.[.L.I.[.J.J.[.I.I.[.a.  i H c.S k x.c.c.c.c.c.k S c.H a W - # !.|.|.|.|.R.|.|.|.|.|.|.|.|.",
"I.I.L.P.P.L.P.L.I.L.L.I.I.J.[.f.9 a D S -.,.:.:.:.5.:.:.,.-.A 7 ; J 0.q.V f.+X+X|.|.{.|.|.|.|.|.{.R.",
"L.P.L.P.P.L.P.P.L.P.J.P.P.P.k.d.^ T b j ;.z.5.5.5.5.5.5.<.1.j + , 4.Z.Z.X U +X+X X X{.|.!.R. X|.}.P.",
"L.L.L.P.I.P.P.L.P.L.L.L.P.G.T ) A.^ b J 4.5.x.c.c.x.x.x.5.3.2., 2 A.A.b.. U /.+X(.!.!.~.|.!.(.|.[.[.",
"I.P.I.I.I.I.I.I.L.P.L.L.P.J.^ w.%XN.q.2.j h x.<.>.:.z.x.h j 6.] ' v v D s.V./.^././.!.(.~.(.).!.}.~.",
"/.[./.I.~.W.T.I.P.L.K.P.P.J.H t.&X].Z.J < $ z.>.3.3.>.z.$ 1 #.C.S.; & 8 E.~./.^.(.)./.).(.).)././.).",
"(.~.).Q.)././.~.I.L.I.P.P.F.# ) &X&X'.    + 2.2.3.2.4.2.+ . . j.W.U.P.U.Q.^.^.(.).).).).).).).).^.).",
").).).).)./.)./.T.P.P.I.P.J._ ` [ [ ) : : 2 F F K F K ^ Y 9   g.R.W.W.Q.Q.~.).).).).).).).).).).).).",
").)./.).).).).).Q.I. XQ.I.P.W.f.X X * u u u a a a T T T `.!   g.W.}.[.W.}.~.(./.).^.).).).)./.).).).",
").).).).).).)./.~. X~.^.Q.W.!.P.F.G.d.o q R R q X a / _.`.!   j.[.[.[.}.}.E.E.}.).).).).)./.).).).).",
")././.).^.).^.Q.^.^.Q.^.^.^.~.~.~.Q.S.C w q q V C r ! `.~ ! C V.[.}.}.[.}.}.{.I.E.^.(.).).).).).).).",
").^./.^.Q./.^.^.^.~.^. X X~.~.Q.^.Q.Q.E.V o   a.L.# u `./ ` {.L.I.[.T.I.[.[.[.[.R.E./.).)./././.^.Q.",
"^./.~.Q.~.^.Q.Q.^.~.!. X X X X!.~.~.Q.Q.D.V.h.G.G.# g 9.9.B 5 k.I.[.I.P.I.[.P.[.R.I.^.)./.^.^./.^.~.",
"~.~.^.~. X^.~. X~. X X X X X X X X X~.~.~.W.I.I.G.# g +.+.z   g.I.I.L.P.I.I.L.P.I.I.Q./././.E./.^.^.",
" X~.~. X X!.~. X~.!. X X X X X X X X~.~.I.{.P.I.F.* 1 x x d   f.I.P.L.L.P.P.L.I.[.R.|.~.E. X~.~.~.!.",
" X X X X X X X X X|. X X X|. X|.|. X}.I.I.R.P.L.J.f.G < < y f.S.P.I.L.P.P.[.I.I..X}.XX.X XXX.X~.|. X",
".X X X X X X X X X{. X{.}.|.{.{.{.|.}.I.I.P.L.P.L.L.s.- - C P.I.P.[.[.P.I.XX[..XXX@X@XXXXX@XXXoX@XoX",
"XX}. X|.|. X|. X X{.|.{.|.[.{.T.W.{.[.I.P.L.P.P.J.P.L.J.J.K.L.I.I..X@XI..X@XXX@X@X@X@X@X@X@XXXXX@X{.",
"@XoX X}.{.W.{.{.{.W.{.{.[.[.[.[.[.}.}.I.I.I.P.P.I.I.P.I.I.I.P..X.X@X@X@X@XXX@X@XXX@X@X@X@X@X@X@X@X@X",
"*X$X$X#X#X#X#X#X#X*X#X#XOX[. X}.}.[.}.T.W.|.R.I.T.I.I.R.R.I.T..X.XoXXX}.oX.X.XoXoX.X.XoX.XoXoX X.X.X"
};
