/* XPM */
static char *result[] = {
/* columns rows colors chars-per-pixel */
"50 50 196 2 ",
"   c #020101",
".  c #0B0303",
"X  c #090A06",
"o  c #050808",
"O  c #0D0E0D",
"+  c #150C05",
"@  c #120F0D",
"#  c #0E130B",
"$  c #1A1303",
"%  c #17140B",
"&  c #131A0E",
"*  c #0B0F10",
"=  c #141314",
"-  c #151D11",
";  c #181A15",
":  c #15161B",
">  c #1B1B1B",
",  c #21140A",
"<  c #230910",
"1  c #300811",
"2  c #241D17",
"3  c #351313",
"4  c #3D1111",
"5  c #1C2518",
"6  c #3C2E02",
"7  c #242614",
"8  c #23311B",
"9  c #1B1C28",
"0  c #201C20",
"q  c #0A2D32",
"w  c #142D31",
"e  c #232323",
"r  c #262827",
"t  c #2D2D2D",
"y  c #2A3528",
"u  c #3B322C",
"i  c #282A39",
"p  c #2B3336",
"a  c #343434",
"s  c #333C3D",
"d  c #3D3D3D",
"f  c #4C0B1B",
"g  c #540C1E",
"h  c #481417",
"j  c #4C380D",
"k  c #553313",
"l  c #623F15",
"z  c #491D20",
"x  c #690F26",
"c  c #751927",
"v  c #721129",
"b  c #493628",
"n  c #52392C",
"m  c #523E3E",
"M  c #6C2222",
"N  c #633D3D",
"B  c #773332",
"V  c #743036",
"C  c #344C2E",
"Z  c #3D5631",
"A  c #594A19",
"S  c #6E4B12",
"D  c #765111",
"F  c #4D4A2E",
"G  c #5C4835",
"H  c #435835",
"J  c #5F5830",
"K  c #754828",
"L  c #604834",
"P  c #625530",
"I  c #49663A",
"U  c #506E3E",
"Y  c #55723E",
"T  c #2B3843",
"R  c #353F41",
"E  c #154A52",
"W  c #354041",
"Q  c #3B4141",
"!  c #3B464A",
"~  c #354D5A",
"^  c #36536A",
"/  c #4B5148",
"(  c #774441",
")  c #665447",
"_  c #73554A",
"`  c #557642",
"'  c #5B7354",
"]  c #656D48",
"[  c #767347",
"{  c #7E6A5D",
"}  c #871B2D",
"|  c #972C2C",
" . c #952531",
".. c #992C32",
"X. c #853B3B",
"o. c #973B3B",
"O. c #A42F2F",
"+. c #AA2D33",
"@. c #B12E35",
"#. c #A63031",
"$. c #AB3232",
"%. c #A63A3A",
"&. c #B33135",
"*. c #BF3738",
"=. c #BD3938",
"-. c #C13838",
";. c #976E09",
":. c #98621E",
">. c #A87A09",
",. c #B27F0E",
"<. c #A06B19",
"1. c #8A5126",
"2. c #885128",
"3. c #8B522E",
"4. c #955E21",
"5. c #AD4233",
"6. c #CD453C",
"7. c #D0483D",
"8. c #875D43",
"9. c #AB444B",
"0. c #8C674A",
"q. c #8B6955",
"w. c #8E7C54",
"e. c #A9715D",
"r. c #987760",
"t. c #D85040",
"y. c #E25A43",
"u. c #EC6447",
"i. c #F06848",
"p. c #5B8148",
"a. c #658A4A",
"s. c #6C944F",
"d. c #6A9755",
"f. c #75965A",
"g. c #78A65E",
"h. c #74AB5C",
"j. c #7AA962",
"k. c #7EB765",
"l. c #A98100",
"z. c #BB8908",
"x. c #C69601",
"c. c #CA9900",
"v. c #8C965D",
"b. c #BF855C",
"n. c #A2AB5F",
"m. c #909B63",
"M. c #AD8263",
"N. c #B68969",
"B. c #91AB67",
"V. c #88BA68",
"C. c #A5BA6A",
"Z. c #C48E67",
"A. c #D49D75",
"S. c #8DC46C",
"D. c #94C76E",
"F. c #8EC871",
"G. c #91CC73",
"H. c #98C973",
"J. c #95D375",
"K. c #99D374",
"L. c #98DB76",
"P. c #99D77A",
"I. c #99DA79",
"U. c #A5D972",
"Y. c #ADDB70",
"T. c #AADF74",
"R. c #A1DF7B",
"E. c #9AE179",
"W. c #AAE175",
"Q. c #A3E27C",
"!. c #ABE67A",
"~. c #A4E87E",
"^. c #ACE87C",
"/. c #B3E875",
"(. c #B3EB78",
"). c #B6F07C",
"_. c #B9F179",
"`. c #3F6481",
"'. c #BC9C89",
"]. c #E7B38F",
"[. c #9FDF80",
"{. c #9FE681",
"}. c #A0E280",
"|. c #A2E880",
" X c #A8E980",
".X c #A5E68A",
"XX c #A6E88C",
"oX c #A8EA8B",
"OX c #B1E18C",
"+X c #B0F080",
"@X c #A8E890",
"#X c #C2E49C",
"$X c #C5E89C",
"%X c #EEC0A1",
"&X c #C4E7A1",
"*X c #FFDAC1",
/* pixels */
"XX.XQ.{.[.[.[.}.}.[.[.[.}.}.[.}.[.[.}.[.[.[.P.R.P.P.P.L.P.P.I..XE.@XXXXX@X@X@X@X@X@X@X@X@X@X@X@X{.XX",
".XE.E.I.[.}.}.[.}.}.}.}.[.}.[.}.[.}.}.[.[.[.I.[.I.P.P.P.P.L.E.E.E.{.{.{.@XXX{.{.@XXXXX@XXXXX@XXXE.E.",
"E.E.E.I.[.}.I.[.[.I.[.[.}.}.[.[.}.[.R.R.[.R.R.[.K.J.J.P.K.K.P.L.E.E.E.E.XXE.E.{.XXE.{.@X{.{.XX{.E.E.",
"L.E.L.L.I.I.P.R.I.I.I.R.[.[.R.}.[..XB.V V V V V V V V V V B B V.E.E.E.E.E.E.E.E.E.E.E.{.E.E.{.E.E.E.",
"L.P.L.P.I.P.L.P.P.P.P.I.I.I.Q.H.m.m.w.}  ................. .} w.m.v.D.E.E.E.E.E.E.E.E.E.E.E.E.E.E.E.",
"P.L.P.K.P.I.L.P.L.P.P.L.I.I.I.v.v v } -.y.i.i.i.i.i.i.i.i.y.-.} x v v.Q.~.E.E.E.E.E.E.E.L.E.E.L.L.E.",
"L.P.P.L.P.L.P.P.L.L.P.L.I.J.C n @.@.*.y.u.i.i.i.i.i.i.i.u.u.y.=.+.+.l Z E./.Q.~.~.E.E.E.E.E.L.L.L.L.",
"L.P.L.P.L.P.P.L.P.L.P.P.I.G.# h -.-.6.i.i.i.i.i.i.i.i.i.i.u.u.t.-.-.h & /._.!._.).(.E.E.E.L.L.L.L.J.",
"P.P.L.P.P.L.P.L.P.P.L.P.L.J.& h -.*.6.i.i.i.i.i.i.i.i.i.i.i.i.t.*.-.h - /._.(._._._.~.^.!.P.P.I.L.P.",
"I.P.P.L.P.P.P.I.L.P.L.P.v._ h c -.*.6.i.i.i.i.i.i.i.i.i.i.u.u.6.-.-.c h 8.n._._._._.(._.^.L.P.P.L.P.",
"!.I.L.I.P.P.R.!.L.P.R.P.0.x v  .-.*.6.u.i.i.i.i.i.i.i.i.i.i.u.-.-.-. .v x w._._._._._._.(.I.P.Q.I.E.",
"/.!.R.!.R.R.!.!.R.Q.!.I.U . $.*.-.*.-.*.y.i.i.i.i.i.i.i.i.y.-.-.-.-.-.O.. Y _._._._._._._.!.!.!.^.~.",
"/.!.!./.!.!./.^.!.!.!.}.` . #.-.-.*.-.*.7.t.t.t.t.t.t.t.t.t.=.*.-.*.-.$.. ` (./.!.(.(._._.(.(.^.^.!.",
"^.^.^././.!./.!.^.^. X!.Y . $.*.*.-.-.-.*.*.*.*.*.*.*.*.-.-.*.*.*.-.-.$.. ` !.}.~.^.~./.(./.^. X^.(.",
" X X^.!. X X!. X X X X!.Y . @.-.-.-.*.-.-.-.-.*.*.-.-.*.-.-.*.-.-.-.-.+.  ` [.}.}.}.Q.~.^.^. X X X!.",
" X X X X X X X X X XR.j.H @ M | -.-.-.=.*.-.*.-.-.*.*.-.*.*.-.*.-.-. .M @ H g.I.[.[.[.Q.}.[. X X X^.",
" X X X X X X X X X XJ.r e e   h -.-.-.-.-.-.-.-.-.*.-.-.-.-.=.-.-.-.h   e e r G.I.}.}.}.R.I. X X X X",
" X X X X X X^. X X(.K.r ) M.# 1 } &.-.*.-.-.-.X.m m X.-.-.-.-.-.&.} 1 + M.) r F.P.I.[.P.I.P.[. X X X",
" X^. X X).^._.^.(.+XU.b q.A.2 < g $.-.-.-.*.o.N C R N %.=.-.-.-.+.g < 2 A.q.u S.I.I.P.I.P.L.R. X(. X",
").).(.+X_.(._._.)._.Y.( e.A.u =   ..-.-.-.%.d d R R R R %.-.-.-.|   : a A.e.( H.P.P.I.I.R.Q.I.)._. X",
"_._._.)._._._.(._._./.C.[ j e e > 3 4 4 | =.o.o.o.o.o.o.-...4 4 3 > e r b ] B.P.L.P.R.!.!._.~._._.).",
"_._._._._._._._._._._._.s.- 5 9 e O o o M O.O.O.O.O.O.O.+.M o o * e 7 > & p.P.I.P.I.(.(.!._._._._._.",
"_._._._._._._._._.(._._./.U.& # r a d d =                 = d d a e * # F.L.P.I.L.Q.(._._._._._.(._.",
"/._._._./.(._.(.(./._././.W.& o = a d d t e e e e e e 0 e t d d a = o & J.E.E.{.I.Q.(._.(._._.(. X_.",
"!./._.!.E././.E.W.!.E./.!.L.8 o   t s m d Q d d m d d C d d d d p   o 5 I.{.E.E.E.E.~.).~.~.~.~.|.^.",
"E.!.W.E.E.E.E.E.E.E.E.E.W.L.L.`   > t R m d d d d s d d d d d a 5   p.P.|.E.{.{.|.{.~.|.|.~.~.{.{. X",
"E.Q.E.E.E.L.L.E.E.E.E.I.E.E.E.h.H 5 ; e r p d d d d d d a t e : 5 I k.|.|.|.|.|.|.{.{.{.|.|.|.|.{.E.",
"E.E.E.E.E.L.E.E.E.E.E.E.E.E.L.E.E.8     > r d d d d d a e : . . 8 |.|.|.|.|.|.|.{.{.{.~.|.|.|.~.|.{.",
"|.{.E.E.E.E.L.E.E.E.E.E.E.E.E.d.5 y F l.6 . o > r t : o   6 l.F / oX|.|.|.{.|.|.|.|.|.|.{.|.{.{.|.|.",
"{.E.E.I.E.E.I.L.E.I.I.E.I.J.h.I * p J c.j $ 6 j A A j 6 % j c.P ! f.E.|.|.|.|.|.|.|.|.|.|.|.{.|.|.|.",
"I.|.E.I.I.I.L.I.I.I.P.E.P.G.# : Q R J c.D l x.c.x.c.c.x.l D c.J i   d.|.+X|.|.+X|.|.|.|.|.|.|.|.|.|.",
"I.I.I.P.I.P.L.P.P.L.P.E.p.y 0.0.K 2 7 S ;.>.:.:.:.:.:.:.>.;.S F C 9 h.+X+X+X+X|.|.E.|.{.|.|.|.|.|.E.",
"I.L.P.L.P.I.P.P.L.P.K.L.I X N.b.3., $ k <.z.4.4.4.4.4.4.,.<.k m R m f.H.+X+X+X+X X X|.|.E.|.|.|.}.I.",
"P.P.L.P.I.P.L.P.L.P.P.L.I X Z.A.A.2 , 3.3.4.x.x.c.c.x.x.4.2.2.F / A._ R T. X(.+X^. X{.^.|.^.).|.}.I.",
"R.I.I.I.I.I.I.P.P.P.P.P.k.` F n b ` [ 5.k j x.,.<.<.,.x.j k 3.q.N.%Xq./ T././.(.(.(. X).^.)._.^.}.!.",
"(.I.(.I.^.Q.R.I.P.L.L.P.P.J.8 % - k.C.$.1 $ x.:.2.2.<.z.$ , K Z.].*Xr.L T./.(.(._._.(._.(._.).(.(._.",
"(.(._.(.(.(.(.^.I.P.I.I.L.K.G.J.G.I.j..   + 1.1.2.2.1.1.+     '.*X*X) O U.(.(._._._._./._._._.(.(._.",
"_.)._.(._.)._.(.Q.I.P.I.P.P.I.E.I.I.j.  w T G G L N L L > : : ) { { ] a.T.!._._._._._._._._._._._._.",
"_._._._._._._._.!.I.Q.!.I.P.Q.[.[.[.j.  ~ `.! W s s W s i i i * o o d.R.{.^.(.!._._._._._._._._._._.",
"_.(._._._._._.(.(.~.^.(.^.Q.^.}.[.}.j.  ~ `.`.^ a X q E E w   d.G.F.P.[.[.!.^.R._./._._._._._._._._.",
"_.(.(._./.(.(.!.(.!.(.!./.!.(.!.~./.S.Z ~ ^ `.~ r C C q q w Z V.[.}.[.Q.}.}.I.[.!./._._._._._._.(._.",
"(./.(././.(.(./././.!. X^.!.^.!./.!.!.!.' / `.i # [.`   o C }.I.I.[.[.I.[.[.}.{.E.W.(._._./._.(./.!.",
"(././.^.^././.^.!.!. X X X X X^.^.^.V.8 B %.9.z # G.G.k.g.S.I.I.I.}.I.P.R.[.I.E.E.I.(._.(.!./././.(.",
"^.^.!.^.^.^.^. X/. X X X X X X X^.!.g.  c &.&.h # G.}.I.I.I.P.L.P.I.P.L.P.P.I.P.I.I.!.(.(./.!./.!.(.",
" X^.^. X^. X X^.~. X X X X X X X X Xg.  f v v 1 O F.I.P.L.P.L.P.I.P.P.L.P.P.P.I.I.I.|.^./..X/.!.!.^.",
" X X X X X X X}. X X X|.{.|. X|.|. XJ.d.u < < H d.J.P.I.P.L.P.L.P.L.P.P.P.[.P.I.XX.XXXXX XXX|.^. X X",
".X X X}.~. X X X X{. X{.Q.|.{.{.|. XQ.L.H & 5 p.P.P.I.P.P.P.P.I.P.[.I.I.[..X{..XXXXX@XXXXX@X@XXXoX.X",
"XX|. X X|. X{. X X{.|.{.{.[.{.[.}.|.I.L.K.J.J.J.L.L.P.L.L.P.I.I.I.XXXX}..X@X.XXX@X@X@X@X@X@XXXXXXX.X",
"@X.X X}.|.~.{.E.}.}.[.}.[.}.{.[.[.[.[.R.P.I.I.P.I.I.I.I.I.I.P..X}.@XXX@X@X@X@X@X@X@X@X@X@X@X@X@X@X@X",
"&X$X$X#X#X#X&X#X#X&X#X#XOX[.}. X}.R.|.I.}.|.Q.I.I.I.I.E.E.I.R..XXXXXoX.XoX.X.XoXoX|..XXX.XXX X.X.XXX"
};
