/* XPM */
static char *result[] = {
/* columns rows colors chars-per-pixel */
"50 50 225 2 ",
"   c #030302",
".  c #050A04",
"X  c #0A0A06",
"o  c #0D0B09",
"O  c #120C06",
"+  c #120D09",
"@  c #051105",
"#  c #0B190A",
"$  c #17170B",
"%  c #12130C",
"&  c #151E11",
"*  c #191816",
"=  c #251919",
"-  c #291C1A",
";  c #361E1B",
":  c #112409",
">  c #172713",
",  c #1B2413",
"<  c #1E2B18",
"1  c #123612",
"2  c #392D0F",
"3  c #3C300B",
"4  c #2D221B",
"5  c #222C19",
"6  c #302418",
"7  c #38291B",
"8  c #25341C",
"9  c #29351C",
"0  c #35341E",
"q  c #292928",
"w  c #342322",
"e  c #392A26",
"r  c #2B3B22",
"t  c #353C24",
"y  c #353434",
"u  c #442D1E",
"i  c #44301F",
"p  c #452C2B",
"a  c #502E2F",
"s  c #483727",
"d  c #583A27",
"f  c #4B3533",
"g  c #543839",
"h  c #663E34",
"j  c #174917",
"k  c #1C581C",
"l  c #37561D",
"z  c #1E741E",
"x  c #316415",
"c  c #284422",
"v  c #36492A",
"b  c #295724",
"n  c #3A542D",
"m  c #334932",
"M  c #2E5E30",
"N  c #385232",
"B  c #286927",
"V  c #2A7B29",
"C  c #376A33",
"Z  c #337632",
"A  c #4A7D19",
"S  c #484B2A",
"D  c #594729",
"F  c #47592D",
"G  c #484835",
"H  c #465B35",
"J  c #585036",
"K  c #674628",
"L  c #6A4C35",
"P  c #645836",
"I  c #77583A",
"U  c #497927",
"Y  c #496737",
"T  c #4A643A",
"R  c #546839",
"E  c #4F703E",
"W  c #53733D",
"Q  c #597838",
"!  c #636239",
"~  c #4B4C4B",
"^  c #564445",
"/  c #634343",
"(  c #694947",
")  c #754A4B",
"_  c #615243",
"`  c #715C47",
"'  c #765455",
"]  c #576F41",
"[  c #4E7040",
"{  c #527441",
"}  c #597A44",
"|  c #7C654A",
" . c #647A42",
".. c #757852",
"X. c #89563A",
"o. c #985E38",
"O. c #AB713E",
"+. c #845B45",
"@. c #855B59",
"#. c #8B5D5C",
"$. c #886846",
"%. c #936E49",
"&. c #9C764E",
"*. c #886653",
"=. c #98685B",
"-. c #9A7353",
";. c #AB6B4C",
":. c #AC7256",
">. c #A67C54",
",. c #905F60",
"<. c #956363",
"1. c #996666",
"2. c #9C6965",
"3. c #9E6969",
"4. c #A46D66",
"5. c #A97567",
"6. c #B17D67",
"7. c #C27B5F",
"8. c #2E8A2E",
"9. c #30952A",
"0. c #328E32",
"q. c #329533",
"w. c #339C33",
"e. c #2DA52F",
"r. c #34A834",
"t. c #34B533",
"y. c #4D881E",
"u. c #448128",
"i. c #51972E",
"p. c #63982A",
"a. c #41AA33",
"s. c #52AC34",
"d. c #51B933",
"f. c #74BD27",
"g. c #35C533",
"h. c #4ECD32",
"j. c #5BD733",
"k. c #72E935",
"l. c #5C8447",
"z. c #6A8B46",
"x. c #658949",
"c. c #679352",
"v. c #6A9452",
"b. c #6F9E58",
"n. c #719750",
"m. c #7BA354",
"M. c #73A35B",
"N. c #78A85C",
"B. c #79AB60",
"V. c #7DB264",
"C. c #8AE933",
"Z. c #F9C638",
"A. c #BC8849",
"S. c #A98158",
"D. c #B4875A",
"F. c #BB8B5C",
"G. c #83AC59",
"H. c #8BB55C",
"J. c #91BC5F",
"K. c #B88566",
"L. c #BD8B66",
"P. c #B89470",
"I. c #82B966",
"U. c #88BB67",
"Y. c #86BA73",
"T. c #DF8759",
"R. c #DCA956",
"E. c #D6A35D",
"W. c #EDBA44",
"Q. c #E7B44C",
"!. c #F1BE41",
"~. c #E1AE53",
"^. c #C28F67",
"/. c #C59363",
"(. c #C99665",
"). c #CC9966",
"_. c #C7976C",
"`. c #CD9A69",
"'. c #D39B65",
"]. c #D89A67",
"[. c #D19D68",
"{. c #E89C68",
"}. c #F99765",
"|. c #8BC26D",
" X c #88C46C",
".X c #99CB68",
"XX c #8EC970",
"oX c #92CD73",
"OX c #93CB7E",
"+X c #94D375",
"@X c #9BD573",
"#X c #97D778",
"$X c #99DA79",
"%X c #A4D76C",
"&X c #A6DC72",
"*X c #A1DF7B",
"=X c #9AE179",
"-X c #ACE374",
";X c #A3E27D",
":X c #ABE67A",
">X c #A4E87E",
",X c #ACE87C",
"<X c #B2E977",
"1X c #B3EB78",
"2X c #B6F07C",
"3X c #B9F179",
"4X c #A69A8F",
"5X c #A29C96",
"6X c #B8BAA5",
"7X c #CFAE84",
"8X c #9EDD82",
"9X c #9FE681",
"0X c #A0E180",
"qX c #A2E881",
"wX c #A8E880",
"eX c #A5E68A",
"rX c #A6E88C",
"tX c #A8EA8B",
"yX c #B1E986",
"uX c #A8E890",
"iX c #D3C597",
"pX c #C2E49C",
"aX c #C5E89C",
"sX c #EDD6BF",
"dX c #C4E7A1",
/* pixels */
"rXeX;X=X0X0X0X0X0X0X8X0X0X0X0X8X0X0X0X8X0X*X@X*X$X#X#X#X#X$X$XeX=XuXtXtXuXuXuXuXuXuXuXuXuXuXuXrX9XrX",
"eX=X=X=X0X0X0X0X0X0X*X0X0X8X0X8X0X*X0X0X0X8X8X0X$X$X#X$X#X#X$X;X=X9X9X9XuXtX9X9XuXrXrXuXrXrXuXrX=X=X",
"=X=X=X$X0X0X$X0X*X8X0X0X0X0X0X0X8X0X0X8X0X0X8X0X#X$X$X$X#X#X=X=X=X=X=X=X9X9X=X9X9X9X9XuX9X9XrX=X=X=X",
"$X=X$X#X$X$X$X$X$X$X$X*X0X$X0X0X0X0X*X0X0X0X*X0X$X$X8X$X$X$X$X=X=X$X=X=X=X=X=X=X9X=X=X9X=X=X9X=X=X=X",
"#X#X#X$X$X#X$X#X#X$X$X$X8X$X*X0X0X0X0X0X8X0X0X8X;X$X9X*X$X$X=X=X=X=X=X=X=X=X=X$X=X=X=X=X=X=X=X=X=X=X",
"#X#X#X#X#X$X$X#X#X$X$X#X$X$X$X0X*X*X0X0X;X*X8XwX1X0X*X;X0X;X>X>X>X=X=X;X>X=X=X=X=X=X=X=X=X=X=X#X#X=X",
"$X#X$X#X$X@X#X#X$X#X#X#X#X$X$X$X#X8X0X0X1X1X0X1X3X:X,X<XXX.X-X;X<X,X>X2X>X3X;X>X=X=X=X=X=X=X#X=X#X=X",
"#X$X#X#X$X$X#X$X#X#X$X#X$X#X$X#X#X#X*X;X3X3X1X3X3X3X<XH.% % G.1X3X3X3X3X1X3X,X3X2X2X=X=X=X#X#X=X#X#X",
"#X$X#X$X@X#X#X$X$X#X#X$X$X#X$X$X#X$X*X1X<X3X3X3X3X3Xz.D 7.7.d p.3X3X3X3X3X3X3X3X3X3X>X2X:X$X#X$X#X$X",
"$X$X$X#X$X$X$X$X#X$X$X#X#X#X#X#X$X$XwX1X3X3X3X3X3X1XR u {.{.u R 1X1Xz.Q m.3X3X3X3X3X1X3X:X$X#X$X$X$X",
":X$X#X*X$X$X*X-X$X$X$XN.b.b.M.#X#X$X<X<X<X3X1X3X<X0Xz.S &./.K P G.m.s - S H.1X3X3X3X3X<X1X$X$X;X;X=X",
"1X-X*X:X*X*X:X:X*X$X.X9 @ @ > I.@X-X<X;X:X:X8X<X:X0X;XM.% F.`.I X $ S.6./ & &X3X3X3X3X3X3X:X;X<X:X>X",
":X:X:X1X:X:X1X<X:XJ.< f.j.e.V > M.-X0X0X:X0X0X0X$X8X9XM.O D.[./.F.T.O.;./ $ &X1X:X1X1X3X3X3X1X,X:X<X",
":X1X:X:X:X<X:X1X,XU.X p.s.e.8.. M.0X8X0X*X8X0XoXv v v G %./.A.I u s ; - G N.*X*X>X,X;X<X1X:X:XeX:X:X",
"wXwX:X1XwXwX:XwXwXU.X Z i.u.M , H B.0X0X0X0XU.] K K a L `.K.L S T T T H c.8X0X0X;X0X;X>X:X:XwXwX>X1X",
"wXwXwXwXwXwXwXwXwXXXr B u.Q Y N > Y Y.*X0XXX} a }.{.K.6.(.5.d F |.=X8X0X0X0X0X0X0X0X0X;XwX0XwXwX>X,X",
"wXwXwXwXwXwX:X>X;X@X+X< q Q C.j.r.j r 8X0XN d }.}.}.{./.).).`.I 8 XX$X0X8X$X0X0X$XeX;X0X*X*X0XwXwXwX",
"wXwXwX,X:XwX>X:Xn., > 4 / ..a.g.r.k 9 8X0XN d '.'.].[.'.).).).L.%.5 U.8X$X$X$X$X$X$X$X$X$X#X0X:XwXwX",
"wX,XwXyX2XwX3Xz.U p.u.Z ]  .9.t.r.j 8 $XT P P.sX[.'.).[.).).).[.>.X V.$X$X#X$X#X$X$X$X$X$X$X=XwX1XwX",
"2X3XwX3X3X1X3Xv x k.j.r.R P l.b b b } 8X& ` 7X5X_.P.7X7X).).).).>.X V.#X$X#X$X$XV.l.l.l.|.;X$X2X3X,X",
"yX3X3X3X3X3X3Xv j g.g.9.J ) ) 5 , x.eXY.7 %.$.7 F.4X6XiX).).).).>.X V.$X#X#X$X XY > & : l.%X,X3X3X3X",
"3X3X3X3X3X3X3Xl j 9.q.m ) ( , %X<XwXU.% >./././.`.4X~ s ).).).).&.% V.$X+X+X+Xr A C.p.t.j Y 3X3X3X3X",
"3X3X3X3X3X3X3X%XQ # # @ ^ *.S 9 J.3XJ.O D.| | [.[._.D.S.).).[.$.t N.#XW , < < c 9.h.g.r.1 F <X3X1X2X",
"<X3X3X3X<X<X3X<X|.x.x.x.J d ` X G.3XJ.X S.>.| ` ` ` | *.).).).I < +XW U y.n k M 0.r.t.r.1 F 3X3XwX2X",
"<X<X3X-X=X<X<X=X:X:X=X-XY 6 ,.e ] G.z.e D.[.S._ _ _ P | `.).&.P T oX> y.k.s.w.Z C Z V B b c.>X>X9X1X",
"=X-X-X=X=X=X=X=X=X=X=X=XE e #.*.w o 7 4._.).).).`.`.`.).`.).0 T 9X#X< z g.g.w.C m y q & M.>X>XqX9XqX",
"=X>X=X=X=X=X=X=X=X=X=X=X$Xx.$ ! @.#.4.}.'.).).).`.).).).).`.e T 9X9X< k w.w.q.M y q # V.=X9X9XqXqX>X",
"=X=X=X=X=X=X=X=X=X$X=X=X=XXXc.> = d ;.'.).).).`.).).).)._.5.4 Y 9X9X XM < J m s.t.e.9.k B.>X9X>X9X9X",
"qX=X=X=X+X=X=X=X=X$X=X=X$X=X+Xl.W S K ).).).E.~.).).).).).K.$.P W [ { I +.) y d.j.g.t.# c.=XqXqXqXqX",
"qX=X=X$X=X=X$X$X=X$X$X=X$X$X=X$X$X} 6 ).).E.Q.Z.).).).)./.S./.$.7 7 7 X.;.( q i.h.t.8.# b.9XqX9XqX9X",
"=X0X=X$X$X$X#X$X$X$X$X=X#X$X=X$X=Xl.6 (.).W.Z.Z.).).).).L.G -.F.F.F.L.d % % % B q.8.8.# M.9XqX9X>X9X",
"$X$X$X$X$X$X#X#X$X#X$X#X$X#X$X#X#XE 6 (.).W.W.E.).).).)._.<.e o + + % x.*X@X+Xc @ @ & V.=XqX9XqX9X=X",
"$X$X#X$X$X$X#X#X#X#X#X$X#X$X#X$X#XW 2 W.'.E.E.).).).).'.T.u Q G.m.m.m.@XyX1XyXU.N.M.N.=X9XqX>X9X0X$X",
"$X$X#X#X$X$X#X#X$X#X$X#X$X#X$X#X#XE 3 Z.E.(.).).).R.E.(.7.O G.<X<X:X:X1X1X1X2X2X,X>X=X,XqX>X2XqX0X*X",
"$X$X$X$X$X$X$X$X#X$X#X$X@X$X#X$X#XE 2 W.E.).).).).W.~.^.X.X m.1X:X<X:X<X<X:X<X:X1X2X>X3X,X2X3X,X0X:X",
"1X*X1X$X:X;X;X$X$X#X$X#X#X#X$X#X$XW 6 ).).).).).).'.(.F.#.o m.:X;X<X:X:X<X<X1X1X3X3X1X3X2X3X3X1X1X3X",
"2X,X3X:X3X1X1X:X$X#X$X$X#X$X#X$X$XW 6 `.`.(.~.!.(.).).L.*.+ b.=X;X:X*X:X<X<X1X3X3X3X3X3X3X3X1X3X1X3X",
"3X3X3X3X3X3X3X1X*X$X$X$X#X#X$X*X$XY. .s F.`.~.Z.).'.L.4.<.( G c.0X*X8X:X:X1X3X1X3X3X3X3X3X3X<X3X3X3X",
"3X3X3X3X3X3X3X3X:X$XwX:X*X$X;X0X8X0XV.X =.(.R.Q.).L.4.<.1.3.- ~ 0X0X0X:X8X:X3X1X3X<X3X3X3X3X3X3X3X3X",
"3X3X1X3X1X3X3X1X1X;X:X:X:X0X:X0X8X@Xv.= @.K.^././.4.1.1.1.1.p H |.0X8X0X0X:X:X0X<X3X3X3X3X3X<X3X3X3X",
"3X<X3X3X<X1X1X:X1X:X:X1X:X:X1X:X:X} - <.<.1.=.=.3.1.1.1.1.1.1.g 8 8X0X0X8X;X0X;X<X<X1X3X3X3X3X3X1X1X",
"3X:X1X1X:X1X1X1X<X1X:XwX1X:X,X:XH f @.<.^ ' ;./.1.1.) ^ 2.^.5.g 5 $X$X$X9X;X8X8X=X-X3X3X3X<X3X1X1X<X",
"<X<X:X:X1X:X1X:X<X1XwXwXwXwXwXwXr p 4.1.' g i D 1.3.) L K.).6.g 5 $X$X#X$X0X$X$X=X$X1X3X1X:X<X<X1X:X",
":X:X1X,X:X<X1X>X:X:XwXwXwXwXwXwX} G ) <.( G n v / / a h ^.).=.a < +X#X$X$X$X$X$X$X$X,X1X<X<X<X<X<X<X",
":X,X,XwXwX>X,XwXwX,XwXwXwXwXwXwX#XE w ,.- x.oX X, & & e @.L.+.; < #X#X$X#X#X$X$X$X$XqX,X<XwX,X,X,X>X",
"wXwXwXwXwXwXwXwXwXqXwXqX0XwXqX>Xv f ,.1.,.e N $XXXXXoXc.* *.| 0 < oX#X#X$X8X$X$XeXeXrXeXqXrXeX,XwXwX",
"tX>XwXwX>XwXwXwXqXqXwX9X;X9X9X0XY.T = = = { V.=X$X#X#XoXb.4 ( @.( t Y.#X8XeX9XeXrXrXuXrXrXuXrXqXrXeX",
"rXeXwXwXqXwXqXwXwXqX0X9X9X9XqX0X9XV.{ { { V.#X$X#X$X$XV.Y I :.7.I   Y.*XeXuXeXuXuXuXuXuXuXuXuXuXrXeX",
"rXtXwX0X0X=X0XqX9X8X9X9X0X8X0X0X0X8X0X$X$X*X$X$X$X$X$XB.v $.;.o.D v OXuXuXuXuXuXrXuXuXuXuXuXrXrXuXuX",
"dXaXaXpXpXaXpXaXaXdXpXpXyX0X0X0X0X0X0X*X0X0X$X$X$X$X$X;XXX%     5 eXtXeXwXeXeXtXtXeXeXtXeXtXeXeXtXtX"
};
