/* XPM */
static char *result[] = {
/* columns rows colors chars-per-pixel */
"50 50 49 1 ",
"  c #292818",
". c #415B01",
"X c #496D01",
"o c #4A4129",
"O c #524939",
"+ c #6B5939",
"@ c #587D46",
"# c #8C7142",
"$ c #5A820A",
"% c #6E961E",
"& c #5D824A",
"* c #648747",
"= c #638749",
"- c #699553",
"; c #6C9956",
": c #6E9B58",
"> c #739E56",
", c #719E5A",
"< c #75A056",
"1 c #7AA153",
"2 c #74A058",
"3 c #739F61",
"4 c #88B038",
"5 c #98C048",
"6 c #ACD45C",
"7 c #99DA79",
"8 c #A1DF7A",
"9 c #9AE179",
"0 c #A3E37C",
"q c #ABE67A",
"w c #A5E87E",
"e c #ACE87C",
"r c #B3EB78",
"t c #B6F07C",
"y c #B9F179",
"u c #9FDF81",
"i c #9FE681",
"p c #A0E280",
"a c #A2E881",
"s c #A8E880",
"d c #A5E68A",
"f c #A6E88C",
"g c #A8EA8B",
"h c #B1E18C",
"j c #A8E890",
"k c #C2E49C",
"l c #C5E89C",
"z c #C2E6A0",
"x c #C6E8A2",
/* pixels */
"fd90uu0uuuuuu8ppppuuu8877777777uijffjjjjjjjjffjfif",
"d999upuuuuuuuuuuup8puu8u7777777u9aiijfiijfjjffjf9i",
"9997pp7p7uu7uuuuuppuupp8777777779999ai9if9ifiia999",
"797777777777uu8uuuuppuup7..7777999999999979i99i999",
"77777777777787uupuuuuXXu.66.7XX9999999999999999999",
"777777777777777888uuX44.5665.44X9090w9999999999779",
"77777777777777777uXXX44%6666%44XXX0ywr0ww999997977",
"77777777777777777XXX%4%566665%4%XXXtyteyte99977777",
"5777777777777777XX4444%566665%4444XXyyrytywrq77777",
"u7777777777777XXXX%44%55666655%44%XXXXyyyyryq77777",
"q777778q77777X%%%X4%445556655544%4X%%%Xyyyryq87u97",
"q7u788qq8887sX%%%.%44455555555444%.%%%Xyyyyyyqqrq9",
"qqqrqqrrqqqpXX$%.444444555555444444.%$XXqyryyyqeqr",
"qqrqrqqqqqsX%%%$.4%44445555554444%4.$%%%Xe0rrrqsqq",
"ssrqqsqs8ssX%%%%%.44%4445555444%44.%%%%%Xp7eqqesee",
"ssssssssrssXX%%%%%.%444455554444%.%%%%%$Xpppppasee",
"ssssssssssw.X%%%%%.44444455444444.%%%%%X.9ai87dsss",
"ssssssses..$X$%%%%.444%444444%444.%%%%$X$..9778sss",
"sestteye.X$X%%%%%%%..%44444444%..%%%%%%%X$X.779srs",
"ttsytyyy.$X%%%%%%%%%%.444%%444.%%%%%%%%%%X$.807tys",
"ytyyyyyry.X%%%%%%%%%%%%4%%%%4%%%%%%%%%%%%X.wwyeyyy",
"ytyyyyyr.X$X%%$%%%%%%%%%%%%%%%%%%%%%%$%%X$X.eyyyyy",
"ryyyyyr.$$$$X$%%$$%%%%%%%%%%%%%%%%$$%%$X$$$$.yytry",
"ryyyry.$X$$$X%%%$$%%%%%%%%%%%%%%%%$$%%%X$$$X$.yrst",
"qrrq9r.X$$$$X%$%%%%%%%%%%%%%%$$%%%%%%$%X$$$$X.twae",
"9qq998.X$X$$$X%%%$%%%%%%%%%%%$$%%%$%%%X$$$X$X.iiaa",
"9099979..$$$$$XX$%%%%%$$%%%%%%%%%%%$XX$$$$$..iiwaa",
"9999999.$$$$$$$X%%%%$%$$%%%%%%%$%%%%X$$$$$$$.iiaa9",
"i99799.X$$$$$$$X%%%XX%%%%XX%%%%XX%%%X$$$$$$$X.aiai",
"i99779 XX$$$$$$$XXX$$X%%X$$X%%X$$XXX$$$$$$$XX aiaa",
"9a9777 XX.$$$$$$$$$$$$XX$$$$XX$$$$$$$$$$$$.XX aaaa",
"7777777  $$$$$$$$$$$$$$$$$$$$$$$$$$$$$$$$$$  aaai9",
"777777777.XX$$$$$$$$$$$$$$$$$$$$$$$$$$$$$X.sdiwap7",
"77777777 X.XXX.$$X$$$$$$$$$$$$$$$$X$$.XXX.X weewu8",
"877777777 XXX..XX$$XX$$$$$$$$$$X$$$XX..XXX yerye8q",
"q7q7q0u777   .XXXX$X$$$$$$$$$$$$X$XXXX.   yyryyrry",
"yqyqyrrq77777 XXXXX.X$$X$$$$X$XXXXXXXX yryyyyyyrry",
"yyyryyyr8777- XXXX XXXXXX$$XXXXXX .XXX 1yyyryyyyyy",
"yyyyyyyyq7qq:-     XXXX.XXXXXXXXX     11yyyyyyyyyy",
"yyyyyyyrqsqq>,>=&  XX.  XXXX  .XX  &&,>,ryyyyyyyyy",
"yrryrrrrrqrq>11* OO   ## XX ##   OO @:::qryyyyyyrr",
"rrrrrrrqrrqs>1>* OOo##+O#  #O+##oOO &:::0qryrrryrq",
"rrqrqrrqrqsss2>>*   +#OO++++OO#+   @::-777ryrrrrrr",
"qqqqqqqsqqsss<<12=&* ++++OO++++ @@@----777qrqrqrqr",
"qqqseessesssss<<22=* O+O    O+O @@----77u7aer0qree",
"sssssssssasadws2,2,;@   @@@@   @-----u77dafdqddqss",
"fsssssssaawiiaii:2;---@@@@@@@@---::-ududfjjffjfajd",
"fassasasapaaipiup::------------:-33udjdjjjjjjjjfja",
"jfw0iii9ppupuppupuu,-;---------2:jjjjjjjfjjjjjfjjf",
"xllkklzkkzzkh8pappp88p;;-;;;;;7ddjgddddggddsdfgdff"
};
